{
.appVersion = "3133";
.formatVersion = 3;
axes = (
{
default = 400;
name = Weight;
tag = wght;
}
);
classes = (
{
code = "zero one two three four five six seven eight nine";
name = Numbers;
},
{
code = "PairinRa PairinHa PairinVa PairinGa PairinCa PairinTta PairinTtha PairinTa PairinDa PairinNa PairinTha PairinYa Udaat Yakash  PairinRaVirama PairinHaVirama PairinVaVirama PairinGaVirama PairinCaVirama PairinTtaVirama PairinTthaVirama PairinTaVirama PairinDaVirama PairinNaVirama PairinThaVirama PairinYaVirama YakashVirama UdaatVirama PairinRaMatraU PairinHaMatraU PairinVaMatraU PairinGaMatraU PairinCaMatraU PairinTtaMatraU PairinTthaMatraU PairinTaMatraU PairinDaMatraU PairinNaMatraU PairinThaMatraU PairinYaMatraU YakashMatraU UdaatMatraU PairinRaMatraUu PairinHaMatraUu PairinVaMatraUu PairinGaMatraUu PairinCaMatraUu PairinTtaMatraUu PairinTthaMatraUu PairinTaMatraUu PairinDaMatraUu PairinNaMatraUu PairinThaMatraUu PairinYaMatraUu YakashMatraUu UdaatMatraUu";
name = bottom;
},
{
code = "MatraU MatraUu MatraU.alt MatraUu.alt";
name = bottom1;
},
{
code = "MatraEe MatraAi MatraOo MatraAu MatraEeBindi MatraAiBindi MatraOoBindi MatraAuBindi MatraAuAddak MatraEe.alt MatraAi.alt MatraOo.alt MatraAu.alt MatraEeAddak.alt MatraAiAddak.alt MatraOoAddak.alt MatraAuAddak.alt MatraEeAddakBindi.alt MatraAiAddakBindi.alt MatraOoAddakBindi.alt MatraAuAddakBindi.alt";
name = top;
},
{
code = "Tippi Addak AddakBindi Bindi";
name = top1;
},
{
code = "MatraOo MatraOoBindi MatraOoAddak MatraOoAddakBindi";
name = top2;
},
{
code = "Addak.alt AddakBindi.alt";
name = top3;
},
{
code = Bindi.alt;
name = top4;
},
{

glyphs = (
{
glyphname = MatraAa;
layers = (
{
layerId = master01;
shapes = (
{
closed = 1;
nodes = (
(-20,593,l),
(-20,499,l),
(65,499,l),
(65,226,l),
(185,226,l),
(185,499,l),
(271,499,l),
(271,593,l)
);
}
);
vertWidth = 1130;
width = 251;
},
{
layerId = master02;
shapes = (
{
closed = 1;
nodes = (
(-20,494,l),
(61,494,l),
(61,224,l),
(194,224,l),
(194,494,l),
(275,494,l),
(275,597,l),
(-20,597,l)
);
}
);
vertWidth = 1130;
width = 255;
},
{
layerId = master03;
shapes = (
{
closed = 1;
nodes = (
(251,577,l),
(-20,577,l),
(-20,539,l),
(92,539,l),
(92,237,l),
(139,237,l),
(139,539,l),
(251,539,l)
);
}
);
vertWidth = 814;
width = 231;
},
{
layerId = master04;
shapes = (
{
closed = 1;
nodes = (
(253,577,l),
(-20,577,l),
(-20,527,l),
(87,527,l),
(87,234,l),
(147,234,l),
(147,527,l),
(253,527,l)
);
}
);
vertWidth = 1130;
width = 233;
},
{
layerId = master05;
shapes = (
{
closed = 1;
nodes = (
(-20,510,l),
(76,510,l),
(76,229,l),
(165,229,l),
(165,510,l),
(261,510,l),
(261,582,l),
(-20,582,l)
);
}
);
vertWidth = 1130;
width = 241;
},
{
layerId = master06;
shapes = (
{
closed = 1;
nodes = (
(256,577,l),
(-20,577,l),
(-20,515,l),
(81,515,l),
(81,231,l),
(155,231,l),
(155,515,l),
(256,515,l)
);
}
);
width = 236;
},
{
layerId = master07;
shapes = (
{
closed = 1;
nodes = (
(-20,588,l),
(-20,504,l),
(70,504,l),
(70,227,l),
(176,227,l),
(176,504,l),
(266,504,l),
(266,588,l)
);
}
);
vertWidth = 1130;
width = 246;
}
);
unicode = 2622;
},
{
glyphname = MatraI;
lastChange = "2022-06-07 15:02:57 +0000";
layers = (
{
layerId = master01;
shapes = (
{
closed = 1;
nodes = (
(190,0,l),
(190,499,l),
(279,499,l),
(279,593,l),
(189,593,l),
(189,686,ls),
(189,738,o),
(218,764,o),
(259,764,cs),
(299,764,o),
(328,736,o),
(328,687,cs),
(328,652,l),
(448,652,l),
(448,687,ls),
(448,804,o),
(358,861,o),
(259,861,cs),
(151,861,o),
(69,801,o),
(69,680,cs),
(69,593,l),
(-20,593,l),
(-20,499,l),
(70,499,l),
(70,0,l)
);
}
);
vertWidth = 1130;
width = 259;
},
{
layerId = master02;
shapes = (
{
closed = 1;
nodes = (
(198,0,l),
(198,494,l),
(283,494,l),
(283,597,l),
(198,597,l),
(198,689,ls),
(198,734,o),
(224,760,o),
(263,760,cs),
(300,760,o),
(326,734,o),
(326,689,cs),
(326,651,l),
(460,651,l),
(460,689,ls),
(460,810,o),
(364,868,o),
(263,868,cs),
(148,868,o),
(65,804,o),
(65,680,cs),
(65,597,l),
(-20,597,l),
(-20,494,l),
(65,494,l),
(65,0,l)
);
}
);
vertWidth = 1130;
width = 263;
},
{
layerId = master03;
shapes = (
{
closed = 1;
nodes = (
(145,0,l),
(145,539,l),
(263,539,l),
(263,577,l),
(145,577,l),
(145,679,ls),
(145,760,o),
(193,787,o),
(245,787,cs),
(297,787,o),
(343,754,o),
(343,679,cs),
(343,645,l),
(390,645,l),
(390,678,ls),
(390,775,o),
(329,828,o),
(243,828,cs),
(164,828,o),
(98,779,o),
(98,682,cs),
(98,577,l),
(-20,577,l),
(-20,539,l),
(98,539,l),
(98,0,l)
);
}
);
vertWidth = 814;
width = 243;
},
{
layerId = master04;
shapes = (
{
closed = 1;
nodes = (
(152,0,l),
(152,527,l),
(264,527,l),
(264,577,l),
(151,577,l),
(151,678,ls),
(151,755,o),
(196,782,o),
(245,782,cs),
(296,782,o),
(338,748,o),
(338,679,cs),
(338,650,l),
(398,650,l),
(398,678,ls),
(398,778,o),
(332,833,o),
(243,833,cs),
(162,833,o),
(91,785,o),
(91,682,cs),
(91,577,l),
(-20,577,l),
(-20,527,l),
(92,527,l),
(92,0,l)
);
}
);
vertWidth = 1130;
width = 244;
},
{
layerId = master05;
shapes = (
{
closed = 1;
nodes = (
(169,0,l),
(169,510,l),
(270,510,l),
(270,582,l),
(168,582,l),
(168,680,ls),
(168,746,o),
(205,772,o),
(249,772,cs),
(296,772,o),
(331,739,o),
(331,681,cs),
(331,654,l),
(420,654,l),
(420,681,ls),
(420,789,o),
(342,845,o),
(249,845,cs),
(157,845,o),
(79,794,o),
(79,681,cs),
(79,582,l),
(-20,582,l),
(-20,510,l),
(81,510,l),
(81,0,l)
);
}
);
vertWidth = 1130;
width = 250;
},
{
layerId = master06;
shapes = (
{
closed = 1;
nodes = (
(160,0,l),
(160,515,l),
(266,515,l),
(266,577,l),
(158,577,l),
(158,677,ls),
(158,750,o),
(199,776,o),
(245,776,cs),
(295,776,o),
(333,741,o),
(333,679,cs),
(333,655,l),
(407,655,l),
(407,678,ls),
(407,782,o),
(335,838,o),
(244,838,cs),
(160,838,o),
(84,791,o),
(84,682,cs),
(84,577,l),
(-20,577,l),
(-20,515,l),
(86,515,l),
(86,0,l)
);
}
);
width = 246;
},
{
layerId = master07;
shapes = (
{
closed = 1;
nodes = (
(180,0,l),
(180,504,l),
(275,504,l),
(275,588,l),
(179,588,l),
(179,683,ls),
(179,742,o),
(212,768,o),
(255,768,cs),
(298,768,o),
(329,737,o),
(329,684,cs),
(329,653,l),
(435,653,l),
(435,684,ls),
(435,797,o),
(350,854,o),
(254,854,cs),
(154,854,o),
(74,798,o),
(74,681,cs),
(74,588,l),
(-20,588,l),
(-20,504,l),
(75,504,l),
(75,0,l)
);
}
);
vertWidth = 1130;
width = 255;
}
);
unicode = 2623;
},
{
glyphname = MatraIi;
layers = (
{
layerId = master01;
shapes = (
{
closed = 1;
nodes = (
(40,764,o),
(69,736,o),
(69,687,cs),
(69,593,l),
(-20,593,l),
(-20,499,l),
(70,499,l),
(70,0,l),
(190,0,l),
(190,499,l),
(279,499,l),
(279,593,l),
(190,593,l),
(190,687,ls),
(190,804,o),
(99,861,o),
(-1,861,cs),
(-110,861,o),
(-191,801,o),
(-191,680,cs),
(-191,652,l),
(-71,652,l),
(-71,686,ls),
(-71,738,o),
(-42,764,o),
(0,764,cs)
);
}
);
vertWidth = 1130;
width = 259;
},
{
layerId = master02;
shapes = (
{
closed = 1;
nodes = (
(38,760,o),
(64,734,o),
(64,689,cs),
(64,597,l),
(-20,597,l),
(-20,494,l),
(65,494,l),
(65,0,l),
(198,0,l),
(198,494,l),
(283,494,l),
(283,597,l),
(198,597,l),
(198,689,ls),
(198,810,o),
(102,868,o),
(0,868,cs),
(-116,868,o),
(-199,804,o),
(-199,680,cs),
(-199,651,l),
(-66,651,l),
(-66,689,ls),
(-66,734,o),
(-40,760,o),
(0,760,cs)
);
}
);
vertWidth = 1130;
width = 263;
},
{
layerId = master03;
shapes = (
{
closed = 1;
nodes = (
(51,787,o),
(98,754,o),
(98,679,cs),
(98,577,l),
(-20,577,l),
(-20,539,l),
(98,539,l),
(98,0,l),
(145,0,l),
(145,539,l),
(263,539,l),
(263,577,l),
(145,577,l),
(145,678,ls),
(145,779,o),
(76,828,o),
(-1,828,cs),
(-81,828,o),
(-147,779,o),
(-147,683,cs),
(-147,645,l),
(-100,645,l),
(-100,679,ls),
(-100,760,o),
(-53,787,o),
(-1,787,cs)
);
}
);
vertWidth = 814;
width = 243;
},
{
layerId = master04;
shapes = (
{
closed = 1;
nodes = (
(50,782,o),
(92,748,o),
(92,679,cs),
(92,577,l),
(-20,577,l),
(-20,527,l),
(92,527,l),
(92,0,l),
(152,0,l),
(152,527,l),
(264,527,l),
(264,577,l),
(152,577,l),
(152,678,ls),
(152,780,o),
(82,833,o),
(-2,833,cs),
(-84,833,o),
(-155,785,o),
(-155,683,cs),
(-155,650,l),
(-95,650,l),
(-95,678,ls),
(-95,755,o),
(-51,782,o),
(-1,782,cs)
);
}
);
vertWidth = 1130;
width = 244;
},
{
layerId = master05;
shapes = (
{
closed = 1;
nodes = (
(45,772,o),
(80,739,o),
(80,681,cs),
(80,582,l),
(-20,582,l),
(-20,510,l),
(81,510,l),
(81,0,l),
(169,0,l),
(169,510,l),
(270,510,l),
(270,582,l),
(169,582,l),
(169,681,ls),
(169,789,o),
(91,845,o),
(-2,845,cs),
(-94,845,o),
(-172,794,o),
(-172,681,cs),
(-172,654,l),
(-83,654,l),
(-83,680,ls),
(-83,746,o),
(-46,772,o),
(-2,772,cs)
);
}
);
vertWidth = 1130;
width = 250;
},
{
layerId = master06;
shapes = (
{
closed = 1;
nodes = (
(48,776,o),
(86,741,o),
(86,679,cs),
(86,577,l),
(-20,577,l),
(-20,515,l),
(86,515,l),
(86,0,l),
(160,0,l),
(160,515,l),
(266,515,l),
(266,577,l),
(160,577,l),
(160,678,ls),
(160,782,o),
(88,838,o),
(-3,838,cs),
(-87,838,o),
(-163,791,o),
(-163,682,cs),
(-163,655,l),
(-89,655,l),
(-89,677,ls),
(-89,750,o),
(-48,776,o),
(-2,776,cs)
);
}
);
width = 246;
},
{
layerId = master07;
shapes = (
{
closed = 1;
nodes = (
(43,768,o),
(74,737,o),
(74,684,cs),
(74,588,l),
(-20,588,l),
(-20,504,l),
(75,504,l),
(75,0,l),
(180,0,l),
(180,504,l),
(275,504,l),
(275,588,l),
(180,588,l),
(180,684,ls),
(180,797,o),
(95,854,o),
(-1,854,cs),
(-102,854,o),
(-182,798,o),
(-182,681,cs),
(-182,653,l),
(-77,653,l),
(-77,683,ls),
(-77,742,o),
(-44,768,o),
(-1,768,cs)
);
}
);
vertWidth = 1130;
width = 255;
}
);
unicode = 2624;
},
{
glyphname = VowelA;
lastChange = "2022-06-08 22:57:38 +0000";
layers = (
{
layerId = master01;
shapes = (
{
closed = 1;
nodes = (
(715,0,l),
(715,499,l),
(805,499,l),
(805,593,l),
(595,593,l),
(595,438,l),
(559,414,o),
(512,380,o),
(470,345,c),
(466,402,o),
(459,466,o),
(451,519,c),
(360,555,l),
(315,524,o),
(261,479,o),
(214,437,c),
(204,485,o),
(188,544,o),
(172,593,c),
(-30,593,l),
(-30,499,l),
(80,499,l),
(91,460,o),
(101,398,o),
(104,363,c),
(25,191,l),
(36,161,o),
(61,138,o),
(100,138,cs),
(157,138,o),
(205,179,o),
(218,306,c),
(257,346,o),
(306,389,o),
(347,421,c),
(350,376,o),
(352,337,o),
(353,283,c),
(273,108,l),
(283,78,o),
(311,54,o),
(348,54,cs),
(404,54,o),
(450,88,o),
(464,213,c),
(509,251,o),
(556,288,o),
(595,315,c),
(595,0,l)
);
}
);
vertWidth = 1130;
width = 785;
},
{
layerId = master02;
shapes = (
{
closed = 1;
nodes = (
(742,0,l),
(742,494,l),
(827,494,l),
(827,597,l),
(609,597,l),
(609,448,l),
(575,426,o),
(530,393,o),
(490,360,c),
(486,413,o),
(480,469,o),
(473,521,c),
(372,562,l),
(326,529,o),
(273,487,o),
(226,443,c),
(216,491,o),
(200,548,o),
(183,597,c),
(-30,597,l),
(-30,494,l),
(82,494,l),
(93,457,o),
(103,401,o),
(106,367,c),
(21,189,l),
(34,157,o),
(60,132,o),
(103,132,cs),
(164,132,o),
(215,169,o),
(229,300,c),
(267,339,o),
(317,381,o),
(357,414,c),
(359,371,o),
(360,337,o),
(360,285,c),
(276,107,l),
(287,76,o),
(318,49,o),
(358,49,cs),
(421,49,o),
(469,81,o),
(483,214,c),
(526,251,o),
(573,287,o),
(609,313,c),
(609,0,l)
);
}
);
vertWidth = 1130;
width = 807;
},
{
layerId = master03;
shapes = (
{
closed = 1;
nodes = (
(603,0,l),
(603,539,l),
(721,539,l),
(721,577,l),
(556,577,l),
(556,384,l),
(505,346,o),
(443,299,o),
(398,262,c),
(398,318,o),
(386,443,o),
(374,516,c),
(335,529,l),
(288,493,o),
(208,416,o),
(157,361,c),
(154,418,o),
(140,523,o),
(123,577,c),
(-30,577,l),
(-30,539,l),
(87,539,l),
(98,499,o),
(114,382,o),
(114,339,c),
(50,189,l),
(55,172,o),
(69,162,o),
(86,162,cs),
(124,162,o),
(147,216,o),
(157,303,c),
(206,354,o),
(285,428,o),
(336,473,c),
(341,443,o),
(352,354,o),
(352,249,c),
(287,99,l),
(293,83,o),
(305,72,o),
(323,72,cs),
(358,72,o),
(382,120,o),
(393,202,c),
(439,242,o),
(502,289,o),
(556,331,c),
(556,0,l)
);
}
);
vertWidth = 814;
width = 701;
},
{
layerId = master04;
shapes = (
{
closed = 1;
nodes = (
(611,0,l),
(611,527,l),
(723,527,l),
(723,577,l),
(551,577,l),
(551,393,l),
(504,359,o),
(445,315,o),
(399,278,c),
(398,334,o),
(386,449,o),
(374,515,c),
(327,529,l),
(282,497,o),
(211,433,o),
(162,385,c),
(157,443,o),
(144,527,o),
(128,577,c),
(-30,577,l),
(-30,527,l),
(81,527,l),
(92,486,o),
(105,385,o),
(106,343,c),
(45,194,l),
(50,173,o),
(67,162,o),
(88,162,cs),
(128,162,o),
(157,218,o),
(167,316,c),
(213,361,o),
(276,422,o),
(324,461,c),
(331,419,o),
(339,345,o),
(340,261,c),
(275,105,l),
(281,84,o),
(297,72,o),
(318,72,cs),
(354,72,o),
(383,117,o),
(394,206,c),
(444,247,o),
(500,289,o),
(551,327,c),
(551,0,l)
);
}
);
vertWidth = 1130;
width = 703;
},
{
layerId = master05;
shapes = (
{
closed = 1;
nodes = (
(650,0,l),
(650,510,l),
(751,510,l),
(751,582,l),
(562,582,l),
(562,414,l),
(521,386,o),
(469,349,o),
(422,312,c),
(419,372,o),
(409,460,o),
(399,515,c),
(332,538,l),
(289,510,o),
(230,461,o),
(183,419,c),
(175,472,o),
(161,535,o),
(146,582,c),
(-30,582,l),
(-30,510,l),
(77,510,l),
(87,468,o),
(98,392,o),
(99,353,c),
(34,197,l),
(42,170,o),
(64,154,o),
(93,154,cs),
(142,154,o),
(180,205,o),
(190,323,c),
(236,365,o),
(281,408,o),
(323,439,c),
(330,387,o),
(334,336,o),
(334,277,c),
(265,110,l),
(273,83,o),
(295,66,o),
(324,66,cs),
(367,66,o),
(405,105,o),
(418,211,c),
(468,252,o),
(517,289,o),
(562,320,c),
(562,0,l)
);
}
);
vertWidth = 1130;
width = 731;
},
{
layerId = master06;
shapes = (
{
closed = 1;
nodes = (
(620,0,l),
(620,515,l),
(726,515,l),
(726,577,l),
(546,577,l),
(546,403,l),
(503,373,o),
(449,335,o),
(400,297,c),
(397,354,o),
(386,457,o),
(375,513,c),
(319,530,l),
(274,501,o),
(213,450,o),
(167,410,c),
(161,466,o),
(148,531,o),
(134,577,c),
(-30,577,l),
(-30,515,l),
(75,515,l),
(85,472,o),
(96,389,o),
(97,348,c),
(39,200,l),
(45,175,o),
(65,161,o),
(90,161,cs),
(134,161,o),
(168,219,o),
(177,331,c),
(220,368,o),
(266,415,o),
(312,447,c),
(320,392,o),
(325,336,o),
(326,274,c),
(262,111,l),
(268,86,o),
(288,72,o),
(313,72,cs),
(349,72,o),
(384,113,o),
(396,211,c),
(451,254,o),
(499,290,o),
(546,322,c),
(546,0,l)
);
}
);
width = 706;
},
{
layerId = master07;
shapes = (
{
closed = 1;
nodes = (
(685,0,l),
(685,504,l),
(780,504,l),
(780,588,l),
(579,588,l),
(579,427,l),
(541,402,o),
(491,365,o),
(447,330,c),
(444,389,o),
(435,463,o),
(427,517,c),
(347,547,l),
(303,517,o),
(247,471,o),
(200,429,c),
(191,479,o),
(176,540,o),
(160,588,c),
(-30,588,l),
(-30,504,l),
(79,504,l),
(89,464,o),
(100,395,o),
(102,358,c),
(29,194,l),
(39,165,o),
(62,146,o),
(97,146,cs),
(150,146,o),
(193,191,o),
(204,313,c),
(247,355,o),
(295,398,o),
(336,430,c),
(341,381,o),
(344,337,o),
(344,280,c),
(269,109,l),
(278,81,o),
(304,60,o),
(337,60,cs),
(387,60,o),
(429,97,o),
(443,212,c),
(489,251,o),
(537,288,o),
(579,317,c),
(579,0,l)
);
}
);
vertWidth = 1130;
width = 760;
}
);
unicode = 2565;
},
{
glyphname = VowelAa;
lastChange = "2022-06-08 22:57:46 +0000";
layers = (
{
layerId = master01;
shapes = (
{
closed = 1;
nodes = (
(715,0,l),
(715,499,l),
(850,499,l),
(850,226,l),
(970,226,l),
(970,499,l),
(1056,499,l),
(1056,593,l),
(595,593,l),
(595,438,l),
(559,414,o),
(512,380,o),
(470,345,c),
(466,402,o),
(459,466,o),
(451,519,c),
(360,555,l),
(315,524,o),
(261,479,o),
(214,437,c),
(204,485,o),
(188,544,o),
(172,593,c),
(-30,593,l),
(-30,499,l),
(80,499,l),
(91,460,o),
(101,398,o),
(104,363,c),
(25,191,l),
(36,161,o),
(61,138,o),
(100,138,cs),
(157,138,o),
(205,179,o),
(218,306,c),
(257,346,o),
(306,389,o),
(347,421,c),
(350,376,o),
(352,337,o),
(353,283,c),
(273,108,l),
(283,78,o),
(311,54,o),
(348,54,cs),
(404,54,o),
(450,88,o),
(464,213,c),
(509,251,o),
(556,288,o),
(595,315,c),
(595,0,l)
);
}
);
vertWidth = 1130;
width = 1036;
},
{
layerId = master02;
shapes = (
{
closed = 1;
nodes = (
(742,0,l),
(742,494,l),
(868,494,l),
(868,224,l),
(1001,224,l),
(1001,494,l),
(1082,494,l),
(1082,597,l),
(609,597,l),
(609,448,l),
(575,426,o),
(530,393,o),
(490,360,c),
(486,413,o),
(480,469,o),
(473,521,c),
(372,562,l),
(326,529,o),
(273,487,o),
(226,443,c),
(216,491,o),
(200,548,o),
(183,597,c),
(-30,597,l),
(-30,494,l),
(82,494,l),
(93,457,o),
(103,401,o),
(106,367,c),
(21,189,l),
(34,157,o),
(60,132,o),
(103,132,cs),
(164,132,o),
(215,169,o),
(229,300,c),
(267,339,o),
(317,381,o),
(357,414,c),
(359,371,o),
(360,337,o),
(360,285,c),
(276,107,l),
(287,76,o),
(318,49,o),
(358,49,cs),
(421,49,o),
(469,81,o),
(483,214,c),
(526,251,o),
(573,287,o),
(609,313,c),
(609,0,l)
);
}
);
vertWidth = 1130;
width = 1062;
},
{
layerId = master03;
shapes = (
{
closed = 1;
nodes = (
(603,0,l),
(603,539,l),
(793,539,l),
(793,237,l),
(840,237,l),
(840,539,l),
(952,539,l),
(952,577,l),
(556,577,l),
(556,384,l),
(505,346,o),
(443,299,o),
(398,262,c),
(398,318,o),
(386,443,o),
(374,516,c),
(335,529,l),
(288,493,o),
(208,416,o),
(157,361,c),
(154,418,o),
(140,523,o),
(123,577,c),
(-30,577,l),
(-30,539,l),
(87,539,l),
(98,499,o),
(114,382,o),
(114,339,c),
(50,189,l),
(55,172,o),
(69,162,o),
(86,162,cs),
(124,162,o),
(147,216,o),
(157,303,c),
(206,354,o),
(285,428,o),
(336,473,c),
(341,443,o),
(352,354,o),
(352,249,c),
(287,99,l),
(293,83,o),
(305,72,o),
(323,72,cs),
(358,72,o),
(382,120,o),
(393,202,c),
(439,242,o),
(502,289,o),
(556,331,c),
(556,0,l)
);
}
);
vertWidth = 814;
width = 932;
},
{
layerId = master04;
shapes = (
{
closed = 1;
nodes = (
(611,0,l),
(611,527,l),
(790,527,l),
(790,234,l),
(850,234,l),
(850,527,l),
(956,527,l),
(956,577,l),
(551,577,l),
(551,393,l),
(504,359,o),
(445,315,o),
(399,278,c),
(398,334,o),
(386,449,o),
(374,515,c),
(327,529,l),
(282,497,o),
(211,433,o),
(162,385,c),
(157,443,o),
(144,527,o),
(128,577,c),
(-30,577,l),
(-30,527,l),
(81,527,l),
(92,486,o),
(105,385,o),
(106,343,c),
(45,194,l),
(50,173,o),
(67,162,o),
(88,162,cs),
(128,162,o),
(157,218,o),
(167,316,c),
(213,361,o),
(276,422,o),
(324,461,c),
(331,419,o),
(339,345,o),
(340,261,c),
(275,105,l),
(281,84,o),
(297,72,o),
(318,72,cs),
(354,72,o),
(383,117,o),
(394,206,c),
(444,247,o),
(500,289,o),
(551,327,c),
(551,0,l)
);
}
);
vertWidth = 1130;
width = 937;
},
{
layerId = master05;
shapes = (
{
closed = 1;
nodes = (
(650,0,l),
(650,510,l),
(807,510,l),
(807,229,l),
(896,229,l),
(896,510,l),
(992,510,l),
(992,582,l),
(562,582,l),
(562,414,l),
(521,386,o),
(469,349,o),
(422,312,c),
(419,372,o),
(409,460,o),
(399,515,c),
(332,538,l),
(289,510,o),
(230,461,o),
(183,419,c),
(175,472,o),
(161,535,o),
(146,582,c),
(-30,582,l),
(-30,510,l),
(77,510,l),
(87,468,o),
(98,392,o),
(99,353,c),
(34,197,l),
(42,170,o),
(64,154,o),
(93,154,cs),
(142,154,o),
(180,205,o),
(190,323,c),
(236,365,o),
(281,408,o),
(323,439,c),
(330,387,o),
(334,336,o),
(334,277,c),
(265,110,l),
(273,83,o),
(295,66,o),
(324,66,cs),
(367,66,o),
(405,105,o),
(418,211,c),
(468,252,o),
(517,289,o),
(562,320,c),
(562,0,l)
);
}
);
vertWidth = 1130;
width = 972;
},
{
layerId = master06;
shapes = (
{
closed = 1;
nodes = (
(620,0,l),
(620,515,l),
(787,515,l),
(787,231,l),
(861,231,l),
(861,515,l),
(962,515,l),
(962,577,l),
(546,577,l),
(546,403,l),
(503,373,o),
(449,335,o),
(400,297,c),
(397,354,o),
(386,457,o),
(375,513,c),
(319,530,l),
(274,501,o),
(213,450,o),
(167,410,c),
(161,466,o),
(148,531,o),
(134,577,c),
(-30,577,l),
(-30,515,l),
(75,515,l),
(85,472,o),
(96,389,o),
(97,348,c),
(39,200,l),
(45,175,o),
(65,161,o),
(90,161,cs),
(134,161,o),
(168,219,o),
(177,331,c),
(220,368,o),
(266,415,o),
(312,447,c),
(320,392,o),
(325,336,o),
(326,274,c),
(262,111,l),
(268,86,o),
(288,72,o),
(313,72,cs),
(349,72,o),
(384,113,o),
(396,211,c),
(451,254,o),
(499,290,o),
(546,322,c),
(546,0,l)
);
}
);
width = 942;
},
{
layerId = master07;
shapes = (
{
closed = 1;
nodes = (
(685,0,l),
(685,504,l),
(830,504,l),
(830,227,l),
(936,227,l),
(936,504,l),
(1026,504,l),
(1026,588,l),
(579,588,l),
(579,427,l),
(541,402,o),
(491,365,o),
(447,330,c),
(444,389,o),
(435,463,o),
(427,517,c),
(347,547,l),
(303,517,o),
(247,471,o),
(200,429,c),
(191,479,o),
(176,540,o),
(160,588,c),
(-30,588,l),
(-30,504,l),
(79,504,l),
(89,464,o),
(100,395,o),
(102,358,c),
(29,194,l),
(39,165,o),
(62,146,o),
(97,146,cs),
(150,146,o),
(193,191,o),
(204,313,c),
(247,355,o),
(295,398,o),
(336,430,c),
(341,381,o),
(344,337,o),
(344,280,c),
(269,109,l),
(278,81,o),
(304,60,o),
(337,60,cs),
(387,60,o),
(429,97,o),
(443,212,c),
(489,251,o),
(537,288,o),
(579,317,c),
(579,0,l)
);
}
);
vertWidth = 1130;
width = 1006;
}
);
unicode = 2566;
},
{
glyphname = VowelI;
lastChange = "2022-06-08 22:59:18 +0000";
layers = (
{
layerId = master01;
shapes = (
{
closed = 1;
nodes = (
(693,-11,o),
(769,17,o),
(804,48,c),
(757,126,l),
(733,110,o),
(677,85,o),
(609,85,cs),
(518,85,o),
(445,123,o),
(410,180,c),
(447,240,o),
(505,260,o),
(576,260,cs),
(770,260,l),
(770,499,l),
(858,499,l),
(858,593,l),
(189,593,l),
(189,686,ls),
(189,738,o),
(218,764,o),
(259,764,cs),
(299,764,o),
(328,736,o),
(328,687,cs),
(328,652,l),
(448,652,l),
(448,687,ls),
(448,804,o),
(358,861,o),
(259,861,cs),
(151,861,o),
(69,801,o),
(69,680,cs),
(69,593,l),
(-20,593,l),
(-20,499,l),
(70,499,l),
(70,0,l),
(190,0,l),
(190,499,l),
(317,499,l),
(325,420,o),
(362,353,o),
(421,318,c),
(375,296,o),
(320,253,o),
(287,176,c),
(334,68,o),
(445,-11,o),
(606,-11,cs)
);
},
{
closed = 1;
nodes = (
(501,357,o),
(443,422,o),
(436,499,c),
(651,499,l),
(651,355,l),
(575,355,l)
);
}
);
vertWidth = 1130;
width = 839;
},
{
layerId = master02;
shapes = (
{
closed = 1;
nodes = (
(704,-12,o),
(784,16,o),
(820,47,c),
(770,133,l),
(746,118,o),
(687,92,o),
(619,92,cs),
(531,92,o),
(458,125,o),
(423,180,c),
(458,238,o),
(512,255,o),
(582,255,cs),
(786,255,l),
(786,494,l),
(869,494,l),
(869,597,l),
(198,597,l),
(198,689,ls),
(198,734,o),
(224,760,o),
(263,760,cs),
(300,760,o),
(326,734,o),
(326,689,cs),
(326,651,l),
(460,651,l),
(460,689,ls),
(460,810,o),
(364,868,o),
(263,868,cs),
(148,868,o),
(65,804,o),
(65,680,cs),
(65,597,l),
(-20,597,l),
(-20,494,l),
(65,494,l),
(65,0,l),
(198,0,l),
(198,494,l),
(320,494,l),
(327,417,o),
(362,353,o),
(418,318,c),
(371,295,o),
(318,251,o),
(288,174,c),
(333,71,o),
(443,-12,o),
(615,-12,cs)
);
},
{
closed = 1;
nodes = (
(517,359,o),
(458,418,o),
(452,494,c),
(654,494,l),
(654,359,l),
(585,359,ls)
);
}
);
vertWidth = 1130;
width = 849;
},
{
layerId = master03;
shapes = (
{
closed = 1;
nodes = (
(646,0,o),
(705,27,o),
(736,59,c),
(711,90,l),
(686,69,o),
(640,41,o),
(568,41,cs),
(452,41,o),
(378,107,o),
(341,183,c),
(383,260,o),
(473,302,o),
(556,302,cs),
(705,302,l),
(705,539,l),
(817,539,l),
(817,577,l),
(145,577,l),
(145,679,ls),
(145,760,o),
(193,787,o),
(245,787,cs),
(297,787,o),
(343,754,o),
(343,679,cs),
(343,645,l),
(390,645,l),
(390,678,ls),
(390,775,o),
(329,828,o),
(243,828,cs),
(164,828,o),
(98,779,o),
(98,682,cs),
(98,577,l),
(-20,577,l),
(-20,539,l),
(98,539,l),
(98,0,l),
(145,0,l),
(145,539,l),
(318,539,l),
(328,432,o),
(378,354,o),
(452,322,c),
(400,306,o),
(331,266,o),
(289,182,c),
(341,63,o),
(435,0,o),
(567,0,cs)
);
},
{
closed = 1;
nodes = (
(427,354,o),
(370,450,o),
(367,539,c),
(658,539,l),
(658,342,l),
(528,342,l)
);
}
);
vertWidth = 814;
width = 797;
},
{
layerId = master04;
shapes = (
{
closed = 1;
nodes = (
(649,-3,o),
(709,24,o),
(742,56,c),
(712,96,l),
(686,76,o),
(641,49,o),
(571,49,cs),
(461,49,o),
(387,112,o),
(352,182,c),
(396,254,o),
(476,291,o),
(555,291,cs),
(709,291,l),
(709,527,l),
(819,527,l),
(819,577,l),
(151,577,l),
(151,678,ls),
(151,755,o),
(196,782,o),
(245,782,cs),
(296,782,o),
(338,748,o),
(338,679,cs),
(338,650,l),
(398,650,l),
(398,678,ls),
(398,778,o),
(332,833,o),
(243,833,cs),
(162,833,o),
(91,785,o),
(91,682,cs),
(91,577,l),
(-20,577,l),
(-20,527,l),
(92,527,l),
(92,0,l),
(152,0,l),
(152,527,l),
(313,527,l),
(323,430,o),
(372,352,o),
(442,320,c),
(394,303,o),
(330,263,o),
(287,182,c),
(339,60,o),
(444,-3,o),
(570,-3,cs)
);
},
{
closed = 1;
nodes = (
(437,351,o),
(379,442,o),
(373,527,c),
(650,527,l),
(650,342,l),
(533,342,l)
);
}
);
vertWidth = 1130;
width = 799;
},
{
layerId = master05;
shapes = (
{
closed = 1;
nodes = (
(666,-8,o),
(732,20,o),
(766,51,c),
(728,110,l),
(701,92,o),
(654,66,o),
(586,66,cs),
(486,66,o),
(413,119,o),
(378,181,c),
(422,245,o),
(488,273,o),
(561,273,cs),
(732,273,l),
(732,510,l),
(833,510,l),
(833,582,l),
(168,582,l),
(168,680,ls),
(168,746,o),
(205,772,o),
(249,772,cs),
(296,772,o),
(331,739,o),
(331,681,cs),
(331,654,l),
(420,654,l),
(420,681,ls),
(420,789,o),
(342,845,o),
(249,845,cs),
(157,845,o),
(79,794,o),
(79,681,cs),
(79,582,l),
(-20,582,l),
(-20,510,l),
(81,510,l),
(81,0,l),
(169,0,l),
(169,510,l),
(311,510,l),
(321,426,o),
(365,350,o),
(428,317,c),
(383,297,o),
(327,257,o),
(286,180,c),
(336,60,o),
(452,-8,o),
(584,-8,cs)
);
},
{
closed = 1;
nodes = (
(465,350,o),
(407,430,o),
(399,510,c),
(645,510,l),
(645,346,l),
(550,346,l)
);
}
);
vertWidth = 1130;
width = 814;
},
{
layerId = master06;
shapes = (
{
closed = 1;
nodes = (
(654,-6,o),
(715,21,o),
(749,53,c),
(714,103,l),
(687,83,o),
(643,58,o),
(576,58,cs),
(472,58,o),
(398,117,o),
(364,181,c),
(410,248,o),
(481,279,o),
(554,279,cs),
(715,279,l),
(715,515,l),
(822,515,l),
(822,577,l),
(158,577,l),
(158,677,ls),
(158,750,o),
(199,776,o),
(245,776,cs),
(295,776,o),
(333,741,o),
(333,679,cs),
(333,655,l),
(407,655,l),
(407,678,ls),
(407,782,o),
(335,838,o),
(244,838,cs),
(160,838,o),
(84,791,o),
(84,682,cs),
(84,577,l),
(-20,577,l),
(-20,515,l),
(86,515,l),
(86,0,l),
(160,0,l),
(160,515,l),
(309,515,l),
(320,428,o),
(367,349,o),
(432,317,c),
(388,298,o),
(330,260,o),
(286,182,c),
(338,56,o),
(455,-6,o),
(574,-6,cs)
);
},
{
closed = 1;
nodes = (
(449,348,o),
(390,433,o),
(382,515,c),
(642,515,l),
(642,342,l),
(539,342,l)
);
}
);
width = 802;
},
{
layerId = master07;
shapes = (
{
closed = 1;
nodes = (
(680,-9,o),
(752,18,o),
(787,50,c),
(744,119,l),
(718,102,o),
(666,76,o),
(599,76,cs),
(503,76,o),
(430,121,o),
(395,180,c),
(435,243,o),
(497,266,o),
(569,266,cs),
(753,266,l),
(753,504,l),
(847,504,l),
(847,588,l),
(179,588,l),
(179,683,ls),
(179,742,o),
(212,768,o),
(255,768,cs),
(298,768,o),
(329,737,o),
(329,684,cs),
(329,653,l),
(435,653,l),
(435,684,ls),
(435,797,o),
(350,854,o),
(254,854,cs),
(154,854,o),
(74,798,o),
(74,681,cs),
(74,588,l),
(-20,588,l),
(-20,504,l),
(75,504,l),
(75,0,l),
(180,0,l),
(180,504,l),
(315,504,l),
(323,423,o),
(364,352,o),
(425,317,c),
(379,297,o),
(324,256,o),
(287,178,c),
(335,64,o),
(449,-9,o),
(596,-9,cs)
);
},
{
closed = 1;
nodes = (
(484,354,o),
(427,425,o),
(420,504,c),
(648,504,l),
(648,351,l),
(563,351,l)
);
}
);
vertWidth = 1130;
width = 827;
}
);
unicode = 2567;
},
{
glyphname = VowelIi;
lastChange = "2022-06-07 15:02:57 +0000";
layers = (
{
layerId = master01;
shapes = (
{
closed = 1;
nodes = (
(434,-11,o),
(510,17,o),
(545,48,c),
(498,126,l),
(474,110,o),
(418,85,o),
(350,85,cs),
(259,85,o),
(186,123,o),
(151,180,c),
(188,240,o),
(246,260,o),
(317,260,cs),
(511,260,l),
(511,499,l),
(649,499,l),
(649,0,l),
(769,0,l),
(769,499,l),
(858,499,l),
(858,593,l),
(769,593,l),
(769,687,ls),
(769,804,o),
(678,861,o),
(578,861,cs),
(469,861,o),
(388,801,o),
(388,680,cs),
(388,652,l),
(508,652,l),
(508,686,ls),
(508,738,o),
(537,764,o),
(579,764,cs),
(619,764,o),
(648,736,o),
(648,687,cs),
(648,593,l),
(-30,593,l),
(-30,499,l),
(58,499,l),
(66,420,o),
(103,353,o),
(162,318,c),
(116,296,o),
(61,253,o),
(28,176,c),
(75,68,o),
(186,-11,o),
(347,-11,cs)
);
},
{
closed = 1;
nodes = (
(242,357,o),
(184,422,o),
(177,499,c),
(392,499,l),
(392,355,l),
(316,355,l)
);
}
);
vertWidth = 1130;
width = 839;
},
{
layerId = master02;
shapes = (
{
closed = 1;
nodes = (
(441,-12,o),
(521,16,o),
(557,47,c),
(507,133,l),
(483,118,o),
(424,92,o),
(356,92,cs),
(268,92,o),
(195,125,o),
(160,180,c),
(195,238,o),
(249,255,o),
(319,255,cs),
(523,255,l),
(523,494,l),
(651,494,l),
(651,0,l),
(784,0,l),
(784,494,l),
(869,494,l),
(869,597,l),
(784,597,l),
(784,689,ls),
(784,810,o),
(688,868,o),
(586,868,cs),
(470,868,o),
(387,804,o),
(387,680,cs),
(387,651,l),
(520,651,l),
(520,689,ls),
(520,734,o),
(546,760,o),
(586,760,cs),
(624,760,o),
(650,734,o),
(650,689,cs),
(650,597,l),
(-30,597,l),
(-30,494,l),
(57,494,l),
(64,417,o),
(99,353,o),
(155,318,c),
(108,295,o),
(55,251,o),
(25,174,c),
(70,71,o),
(180,-12,o),
(352,-12,cs)
);
},
{
closed = 1;
nodes = (
(254,359,o),
(195,418,o),
(189,494,c),
(391,494,l),
(391,359,l),
(322,359,ls)
);
}
);
vertWidth = 1130;
width = 849;
},
{
layerId = master03;
shapes = (
{
closed = 1;
nodes = (
(403,0,o),
(462,27,o),
(493,59,c),
(468,90,l),
(443,69,o),
(397,41,o),
(325,41,cs),
(209,41,o),
(135,107,o),
(98,183,c),
(140,260,o),
(230,302,o),
(313,302,cs),
(462,302,l),
(462,539,l),
(652,539,l),
(652,0,l),
(699,0,l),
(699,539,l),
(817,539,l),
(817,577,l),
(699,577,l),
(699,678,ls),
(699,779,o),
(630,828,o),
(553,828,cs),
(473,828,o),
(407,779,o),
(407,683,cs),
(407,645,l),
(454,645,l),
(454,679,ls),
(454,760,o),
(501,787,o),
(553,787,cs),
(605,787,o),
(652,754,o),
(652,679,cs),
(652,577,l),
(-30,577,l),
(-30,539,l),
(75,539,l),
(85,432,o),
(135,354,o),
(209,322,c),
(157,306,o),
(88,266,o),
(46,182,c),
(98,63,o),
(192,0,o),
(324,0,cs)
);
},
{
closed = 1;
nodes = (
(184,354,o),
(127,450,o),
(124,539,c),
(415,539,l),
(415,342,l),
(285,342,l)
);
}
);
vertWidth = 814;
width = 797;
},
{
layerId = master04;
shapes = (
{
closed = 1;
nodes = (
(405,-3,o),
(465,24,o),
(498,56,c),
(468,96,l),
(442,76,o),
(397,49,o),
(327,49,cs),
(217,49,o),
(143,112,o),
(108,182,c),
(152,254,o),
(232,291,o),
(311,291,cs),
(465,291,l),
(465,527,l),
(647,527,l),
(647,0,l),
(707,0,l),
(707,527,l),
(819,527,l),
(819,577,l),
(707,577,l),
(707,678,ls),
(707,780,o),
(637,833,o),
(553,833,cs),
(471,833,o),
(400,785,o),
(400,683,cs),
(400,650,l),
(460,650,l),
(460,678,ls),
(460,755,o),
(504,782,o),
(554,782,cs),
(605,782,o),
(647,748,o),
(647,679,cs),
(647,577,l),
(-30,577,l),
(-30,527,l),
(69,527,l),
(79,430,o),
(128,352,o),
(198,320,c),
(150,303,o),
(86,263,o),
(43,182,c),
(95,60,o),
(200,-3,o),
(326,-3,cs)
);
},
{
closed = 1;
nodes = (
(193,351,o),
(135,442,o),
(129,527,c),
(406,527,l),
(406,342,l),
(289,342,l)
);
}
);
vertWidth = 1130;
width = 799;
},
{
layerId = master05;
shapes = (
{
closed = 1;
nodes = (
(416,-8,o),
(482,20,o),
(516,51,c),
(478,110,l),
(451,92,o),
(404,66,o),
(336,66,cs),
(236,66,o),
(163,119,o),
(128,181,c),
(172,245,o),
(238,273,o),
(311,273,cs),
(482,273,l),
(482,510,l),
(644,510,l),
(644,0,l),
(732,0,l),
(732,510,l),
(833,510,l),
(833,582,l),
(732,582,l),
(732,681,ls),
(732,789,o),
(654,845,o),
(561,845,cs),
(469,845,o),
(391,794,o),
(391,681,cs),
(391,654,l),
(480,654,l),
(480,680,ls),
(480,746,o),
(517,772,o),
(561,772,cs),
(608,772,o),
(643,739,o),
(643,681,cs),
(643,582,l),
(-30,582,l),
(-30,510,l),
(61,510,l),
(71,426,o),
(115,350,o),
(178,317,c),
(133,297,o),
(77,257,o),
(36,180,c),
(86,60,o),
(202,-8,o),
(334,-8,cs)
);
},
{
closed = 1;
nodes = (
(215,350,o),
(157,430,o),
(149,510,c),
(395,510,l),
(395,346,l),
(300,346,l)
);
}
);
vertWidth = 1130;
width = 814;
},
{
layerId = master06;
shapes = (
{
closed = 1;
nodes = (
(408,-6,o),
(469,21,o),
(503,53,c),
(468,103,l),
(441,83,o),
(397,58,o),
(330,58,cs),
(226,58,o),
(152,117,o),
(118,181,c),
(164,248,o),
(235,279,o),
(308,279,cs),
(469,279,l),
(469,515,l),
(642,515,l),
(642,0,l),
(716,0,l),
(716,515,l),
(822,515,l),
(822,577,l),
(716,577,l),
(716,678,ls),
(716,782,o),
(644,838,o),
(553,838,cs),
(469,838,o),
(393,791,o),
(393,682,cs),
(393,655,l),
(467,655,l),
(467,677,ls),
(467,750,o),
(508,776,o),
(554,776,cs),
(604,776,o),
(642,741,o),
(642,679,cs),
(642,577,l),
(-30,577,l),
(-30,515,l),
(63,515,l),
(74,428,o),
(121,349,o),
(186,317,c),
(142,298,o),
(84,260,o),
(40,182,c),
(92,56,o),
(209,-6,o),
(328,-6,cs)
);
},
{
closed = 1;
nodes = (
(203,348,o),
(144,433,o),
(136,515,c),
(396,515,l),
(396,342,l),
(293,342,l)
);
}
);
width = 802;
},
{
layerId = master07;
shapes = (
{
closed = 1;
nodes = (
(425,-9,o),
(497,18,o),
(532,50,c),
(489,119,l),
(463,102,o),
(411,76,o),
(344,76,cs),
(248,76,o),
(175,121,o),
(140,180,c),
(180,243,o),
(242,266,o),
(314,266,cs),
(498,266,l),
(498,504,l),
(647,504,l),
(647,0,l),
(752,0,l),
(752,504,l),
(847,504,l),
(847,588,l),
(752,588,l),
(752,684,ls),
(752,797,o),
(667,854,o),
(571,854,cs),
(470,854,o),
(390,798,o),
(390,681,cs),
(390,653,l),
(495,653,l),
(495,683,ls),
(495,742,o),
(528,768,o),
(571,768,cs),
(615,768,o),
(646,737,o),
(646,684,cs),
(646,588,l),
(-30,588,l),
(-30,504,l),
(60,504,l),
(68,423,o),
(109,352,o),
(170,317,c),
(124,297,o),
(69,256,o),
(32,178,c),
(80,64,o),
(194,-9,o),
(341,-9,cs)
);
},
{
closed = 1;
nodes = (
(229,354,o),
(172,425,o),
(165,504,c),
(393,504,l),
(393,351,l),
(308,351,l)
);
}
);
vertWidth = 1130;
width = 827;
}
);
unicode = 2568;
},
{
glyphname = VowelU;
lastChange = "2022-06-08 23:00:50 +0000";
layers = (
{
layerId = master01;
shapes = (
{
closed = 1;
nodes = (
(462,-9,o),
(554,56,o),
(554,165,cs),
(554,243,o),
(512,289,o),
(472,306,c),
(533,338,o),
(589,409,o),
(593,499,c),
(678,499,l),
(678,593,l),
(592,593,l),
(583,736,o),
(473,820,o),
(340,820,cs),
(203,820,o),
(97,739,o),
(67,593,c),
(-30,593,l),
(-30,499,l),
(54,499,l),
(51,468,o),
(49,431,o),
(49,398,cs),
(49,88,o),
(183,-9,o),
(336,-9,cs)
);
},
{
closed = 1;
nodes = (
(424,-179,o),
(498,-150,o),
(538,-121,c),
(500,-46,l),
(458,-68,o),
(393,-86,o),
(328,-86,cs),
(258,-86,o),
(197,-69,o),
(155,-46,c),
(118,-120,l),
(156,-151,o),
(234,-179,o),
(326,-179,cs)
);
},
{
closed = 1;
nodes = (
(244,86,o),
(190,155,o),
(177,266,c),
(340,266,ls),
(398,266,o),
(433,222,o),
(433,173,cs),
(433,118,o),
(393,86,o),
(335,86,cs)
);
},
{
closed = 1;
nodes = (
(167,402,l),
(167,430,o),
(169,468,o),
(172,499,c),
(470,499,l),
(462,412,o),
(408,357,o),
(319,357,cs),
(168,357,l)
);
},
{
closed = 1;
nodes = (
(203,660,o),
(252,723,o),
(340,723,cs),
(417,723,o),
(471,667,o),
(474,593,c),
(188,593,l)
);
}
);
vertWidth = 1130;
width = 620;
},
{
layerId = master02;
shapes = (
{
closed = 1;
nodes = (
(469,-11,o),
(566,54,o),
(566,165,cs),
(566,248,o),
(522,290,o),
(485,305,c),
(546,338,o),
(600,409,o),
(605,494,c),
(689,494,l),
(689,597,l),
(603,597,l),
(596,738,o),
(486,827,o),
(345,827,cs),
(207,827,o),
(95,746,o),
(64,597,c),
(-30,597,l),
(-30,494,l),
(50,494,l),
(48,464,o),
(46,430,o),
(46,399,cs),
(46,86,o),
(184,-11,o),
(340,-11,cs)
);
},
{
closed = 1;
nodes = (
(430,-188,o),
(504,-158,o),
(545,-129,c),
(502,-46,l),
(463,-66,o),
(395,-85,o),
(329,-85,cs),
(255,-85,o),
(194,-67,o),
(153,-46,c),
(112,-128,l),
(150,-158,o),
(228,-188,o),
(327,-188,cs)
);
},
{
closed = 1;
nodes = (
(254,92,o),
(200,155,o),
(187,263,c),
(344,263,ls),
(398,263,o),
(432,223,o),
(432,175,cs),
(432,123,o),
(393,92,o),
(338,92,cs)
);
},
{
closed = 1;
nodes = (
(176,409,l),
(176,433,o),
(178,467,o),
(181,494,c),
(469,494,l),
(459,410,o),
(410,361,o),
(321,361,cs),
(177,361,l)
);
},
{
closed = 1;
nodes = (
(211,656,o),
(258,721,o),
(345,721,cs),
(420,721,o),
(471,666,o),
(473,597,c),
(198,597,l)
);
}
);
vertWidth = 1130;
width = 629;
},
{
layerId = master03;
shapes = (
{
closed = 1;
nodes = (
(422,0,o),
(497,58,o),
(497,156,cs),
(497,231,o),
(456,284,o),
(398,306,c),
(470,331,o),
(540,408,o),
(543,539,c),
(633,539,l),
(633,577,l),
(543,577,l),
(541,708,o),
(448,785,o),
(336,785,cs),
(229,785,o),
(137,727,o),
(98,577,c),
(-30,577,l),
(-30,539,l),
(88,539,l),
(80,489,o),
(76,427,o),
(76,364,cs),
(76,76,o),
(196,0,o),
(319,0,cs)
);
},
{
closed = 1;
nodes = (
(402,-142,o),
(469,-121,o),
(510,-90,c),
(494,-62,l),
(442,-90,o),
(387,-103,o),
(329,-103,cs),
(273,-103,o),
(210,-89,o),
(162,-62,c),
(145,-90,l),
(184,-121,o),
(256,-142,o),
(325,-142,cs)
);
},
{
closed = 1;
nodes = (
(209,41,o),
(136,129,o),
(127,293,c),
(307,293,ls),
(394,293,o),
(450,238,o),
(450,158,cs),
(450,83,o),
(395,41,o),
(322,41,cs)
);
},
{
closed = 1;
nodes = (
(125,350,ls),
(125,420,o),
(130,488,o),
(139,539,c),
(495,539,l),
(490,420,o),
(425,333,o),
(318,333,cs),
(125,333,l)
);
},
{
closed = 1;
nodes = (
(173,681,o),
(240,743,o),
(334,743,cs),
(427,743,o),
(493,680,o),
(495,577,c),
(148,577,l)
);
}
);
vertWidth = 814;
width = 583;
},
{
layerId = master04;
shapes = (
{
closed = 1;
nodes = (
(429,0,o),
(504,59,o),
(504,160,cs),
(504,229,o),
(465,284,o),
(411,307,c),
(478,334,o),
(543,409,o),
(546,527,c),
(641,527,l),
(641,577,l),
(547,577,l),
(540,718,o),
(438,790,o),
(330,790,cs),
(211,790,o),
(122,720,o),
(89,577,c),
(-30,577,l),
(-30,527,l),
(78,527,l),
(72,485,o),
(69,429,o),
(69,379,cs),
(69,85,o),
(187,0,o),
(320,0,cs)
);
},
{
closed = 1;
nodes = (
(403,-144,o),
(472,-121,o),
(512,-91,c),
(492,-55,l),
(440,-83,o),
(385,-96,o),
(327,-96,cs),
(271,-96,o),
(209,-82,o),
(161,-55,c),
(141,-91,l),
(181,-123,o),
(255,-144,o),
(323,-144,cs)
);
},
{
closed = 1;
nodes = (
(208,52,o),
(144,141,o),
(133,286,c),
(315,286,ls),
(394,286,o),
(444,229,o),
(444,161,cs),
(444,92,o),
(394,52,o),
(322,52,cs)
);
},
{
closed = 1;
nodes = (
(129,353,ls),
(129,409,o),
(133,476,o),
(140,527,c),
(486,527,l),
(481,418,o),
(413,337,o),
(315,337,cs),
(129,337,l)
);
},
{
closed = 1;
nodes = (
(172,676,o),
(236,738,o),
(329,738,cs),
(420,738,o),
(482,674,o),
(485,577,c),
(150,577,l)
);
}
);
vertWidth = 1130;
width = 586;
},
{
layerId = master05;
shapes = (
{
closed = 1;
nodes = (
(445,-3,o),
(525,59,o),
(525,164,cs),
(525,232,o),
(487,286,o),
(440,308,c),
(501,337,o),
(561,409,o),
(563,510,c),
(651,510,l),
(651,582,l),
(563,582,l),
(553,731,o),
(442,804,o),
(328,804,cs),
(195,804,o),
(102,722,o),
(75,582,c),
(-30,582,l),
(-30,510,l),
(63,510,l),
(59,476,o),
(57,432,o),
(57,397,cs),
(57,93,o),
(179,-3,o),
(326,-3,cs)
);
},
{
closed = 1;
nodes = (
(410,-157,o),
(483,-130,o),
(522,-101,c),
(493,-48,l),
(444,-74,o),
(386,-88,o),
(326,-88,cs),
(265,-88,o),
(204,-73,o),
(158,-48,c),
(130,-101,l),
(170,-134,o),
(247,-157,o),
(322,-157,cs)
);
},
{
closed = 1;
nodes = (
(218,70,o),
(165,154,o),
(152,274,c),
(327,274,ls),
(395,274,o),
(436,221,o),
(436,167,cs),
(436,107,o),
(393,70,o),
(327,70,cs)
);
},
{
closed = 1;
nodes = (
(144,368,l),
(144,406,o),
(146,467,o),
(152,510,c),
(473,510,l),
(469,416,o),
(405,346,o),
(314,346,cs),
(145,346,l)
);
},
{
closed = 1;
nodes = (
(182,667,o),
(238,729,o),
(328,729,cs),
(413,729,o),
(470,667,o),
(475,582,c),
(164,582,l)
);
}
);
vertWidth = 1130;
width = 599;
},
{
layerId = master06;
shapes = (
{
closed = 1;
nodes = (
(437,0,o),
(511,61,o),
(511,164,cs),
(511,227,o),
(474,285,o),
(425,308,c),
(487,337,o),
(548,409,o),
(549,515,c),
(649,515,l),
(649,577,l),
(550,577,l),
(539,729,o),
(428,796,o),
(323,796,cs),
(191,796,o),
(105,713,o),
(80,577,c),
(-30,577,l),
(-30,515,l),
(67,515,l),
(63,481,o),
(61,433,o),
(61,396,cs),
(61,95,o),
(178,0,o),
(321,0,cs)
);
},
{
closed = 1;
nodes = (
(403,-147,o),
(476,-121,o),
(514,-92,c),
(490,-48,l),
(438,-76,o),
(383,-89,o),
(325,-89,cs),
(269,-89,o),
(208,-75,o),
(160,-48,c),
(136,-92,l),
(177,-126,o),
(254,-147,o),
(321,-147,cs)
);
},
{
closed = 1;
nodes = (
(206,63,o),
(153,154,o),
(140,278,c),
(323,278,l),
(394,274,o),
(437,220,o),
(437,165,cs),
(437,102,o),
(393,63,o),
(323,63,cs)
);
},
{
closed = 1;
nodes = (
(134,378,ls),
(134,421,o),
(136,466,o),
(143,515,c),
(476,515,l),
(473,417,o),
(403,341,o),
(312,341,cs),
(134,341,l)
);
},
{
closed = 1;
nodes = (
(174,670,o),
(232,732,o),
(323,732,cs),
(411,732,o),
(470,667,o),
(476,577,c),
(153,577,l)
);
}
);
width = 589;
},
{
layerId = master07;
shapes = (
{
closed = 1;
nodes = (
(454,-6,o),
(540,57,o),
(540,165,cs),
(540,238,o),
(499,288,o),
(456,307,c),
(517,337,o),
(575,408,o),
(579,504,c),
(665,504,l),
(665,588,l),
(578,588,l),
(568,734,o),
(459,812,o),
(335,812,cs),
(199,812,o),
(100,731,o),
(71,588,c),
(-30,588,l),
(-30,504,l),
(58,504,l),
(55,472,o),
(53,431,o),
(53,398,cs),
(53,90,o),
(181,-6,o),
(331,-6,cs)
);
},
{
closed = 1;
nodes = (
(418,-169,o),
(491,-140,o),
(531,-111,c),
(497,-47,l),
(452,-71,o),
(390,-87,o),
(327,-87,cs),
(262,-87,o),
(201,-71,o),
(157,-47,c),
(124,-111,l),
(163,-143,o),
(240,-169,o),
(324,-169,cs)
);
},
{
closed = 1;
nodes = (
(231,78,o),
(178,154,o),
(165,270,c),
(337,270,l),
(398,266,o),
(434,221,o),
(434,170,cs),
(434,113,o),
(393,78,o),
(331,78,cs)
);
},
{
closed = 1;
nodes = (
(156,394,l),
(156,427,o),
(158,467,o),
(163,504,c),
(472,504,l),
(465,413,o),
(407,352,o),
(317,352,c),
(157,352,l)
);
},
{
closed = 1;
nodes = (
(194,663,o),
(246,726,o),
(335,726,cs),
(415,726,o),
(471,667,o),
(475,588,c),
(177,588,l)
);
}
);
vertWidth = 1130;
width = 610;
}
);
unicode = 2569;
},
{
glyphname = VowelUu;
lastChange = "2022-06-08 23:01:12 +0000";
layers = (
{
layerId = master01;
shapes = (
{
closed = 1;
nodes = (
(462,-9,o),
(554,56,o),
(554,165,cs),
(554,243,o),
(512,289,o),
(472,306,c),
(533,338,o),
(589,409,o),
(593,499,c),
(678,499,l),
(678,593,l),
(592,593,l),
(583,736,o),
(473,820,o),
(340,820,cs),
(203,820,o),
(97,739,o),
(67,593,c),
(-30,593,l),
(-30,499,l),
(54,499,l),
(51,468,o),
(49,431,o),
(49,398,cs),
(49,88,o),
(183,-9,o),
(336,-9,cs)
);
},
{
closed = 1;
nodes = (
(427,-307,o),
(504,-279,o),
(548,-249,c),
(516,-178,l),
(469,-201,o),
(407,-218,o),
(341,-218,cs),
(263,-218,o),
(208,-203,o),
(154,-178,c),
(122,-249,l),
(159,-278,o),
(241,-307,o),
(339,-307,cs)
);
},
{
closed = 1;
nodes = (
(427,-163,o),
(495,-135,o),
(538,-105,c),
(506,-34,l),
(461,-56,o),
(404,-73,o),
(341,-73,cs),
(266,-73,o),
(215,-59,o),
(164,-34,c),
(132,-105,l),
(174,-135,o),
(245,-163,o),
(339,-163,cs)
);
},
{
closed = 1;
nodes = (
(244,86,o),
(190,155,o),
(177,266,c),
(336,266,ls),
(396,266,o),
(433,224,o),
(433,173,cs),
(433,118,o),
(393,86,o),
(335,86,cs)
);
},
{
closed = 1;
nodes = (
(167,402,l),
(167,430,o),
(169,468,o),
(172,499,c),
(470,499,l),
(462,412,o),
(408,357,o),
(319,357,cs),
(168,357,l)
);
},
{
closed = 1;
nodes = (
(203,660,o),
(252,723,o),
(340,723,cs),
(417,723,o),
(471,667,o),
(474,593,c),
(188,593,l)
);
}
);
vertWidth = 1130;
width = 620;
},
{
layerId = master02;
shapes = (
{
closed = 1;
nodes = (
(469,-11,o),
(566,54,o),
(566,165,cs),
(566,248,o),
(522,290,o),
(485,305,c),
(546,338,o),
(600,409,o),
(605,494,c),
(689,494,l),
(689,597,l),
(603,597,l),
(596,738,o),
(486,827,o),
(345,827,cs),
(207,827,o),
(95,746,o),
(64,597,c),
(-30,597,l),
(-30,494,l),
(50,494,l),
(48,464,o),
(46,430,o),
(46,399,cs),
(46,86,o),
(184,-11,o),
(340,-11,cs)
);
},
{
closed = 1;
nodes = (
(431,-321,o),
(509,-293,o),
(557,-261,c),
(522,-183,l),
(473,-206,o),
(412,-223,o),
(344,-223,cs),
(263,-223,o),
(209,-208,o),
(153,-183,c),
(118,-261,l),
(157,-291,o),
(242,-321,o),
(342,-321,cs)
);
},
{
closed = 1;
nodes = (
(431,-171,o),
(501,-143,o),
(547,-111,c),
(512,-33,l),
(466,-56,o),
(408,-73,o),
(344,-73,cs),
(267,-73,o),
(216,-58,o),
(163,-33,c),
(128,-111,l),
(173,-143,o),
(246,-171,o),
(342,-171,cs)
);
},
{
closed = 1;
nodes = (
(254,92,o),
(200,155,o),
(187,263,c),
(340,263,ls),
(397,263,o),
(432,225,o),
(432,175,cs),
(432,123,o),
(393,92,o),
(338,92,cs)
);
},
{
closed = 1;
nodes = (
(176,409,l),
(176,433,o),
(178,467,o),
(181,494,c),
(469,494,l),
(459,410,o),
(410,361,o),
(321,361,cs),
(177,361,l)
);
},
{
closed = 1;
nodes = (
(211,656,o),
(258,721,o),
(345,721,cs),
(420,721,o),
(471,666,o),
(473,597,c),
(198,597,l)
);
}
);
vertWidth = 1130;
width = 629;
},
{
layerId = master03;
shapes = (
{
closed = 1;
nodes = (
(422,0,o),
(497,58,o),
(497,156,cs),
(497,231,o),
(456,284,o),
(398,306,c),
(470,331,o),
(540,408,o),
(543,539,c),
(633,539,l),
(633,577,l),
(543,577,l),
(541,708,o),
(448,785,o),
(336,785,cs),
(229,785,o),
(137,727,o),
(98,577,c),
(-30,577,l),
(-30,539,l),
(88,539,l),
(80,489,o),
(76,427,o),
(76,364,cs),
(76,76,o),
(196,0,o),
(319,0,cs)
);
},
{
closed = 1;
nodes = (
(403,-243,o),
(469,-222,o),
(503,-195,c),
(486,-167,l),
(434,-195,o),
(390,-204,o),
(336,-204,cs),
(268,-204,o),
(220,-192,o),
(175,-167,c),
(158,-196,l),
(199,-226,o),
(257,-243,o),
(334,-243,cs)
);
},
{
closed = 1;
nodes = (
(396,-127,o),
(463,-110,o),
(503,-79,c),
(486,-51,l),
(442,-75,o),
(398,-88,o),
(336,-88,cs),
(274,-88,o),
(224,-78,o),
(175,-51,c),
(158,-80,l),
(199,-108,o),
(255,-127,o),
(334,-127,cs)
);
},
{
closed = 1;
nodes = (
(209,41,o),
(136,129,o),
(127,293,c),
(313,293,ls),
(397,293,o),
(450,236,o),
(450,158,cs),
(450,83,o),
(395,41,o),
(322,41,cs)
);
},
{
closed = 1;
nodes = (
(125,350,ls),
(125,420,o),
(130,488,o),
(139,539,c),
(495,539,l),
(490,420,o),
(425,333,o),
(318,333,cs),
(125,333,l)
);
},
{
closed = 1;
nodes = (
(173,681,o),
(240,743,o),
(334,743,cs),
(427,743,o),
(493,680,o),
(495,577,c),
(148,577,l)
);
}
);
vertWidth = 814;
width = 583;
},
{
layerId = master04;
shapes = (
{
closed = 1;
nodes = (
(429,0,o),
(504,59,o),
(504,160,cs),
(504,229,o),
(465,284,o),
(411,307,c),
(478,334,o),
(543,409,o),
(546,527,c),
(641,527,l),
(641,577,l),
(547,577,l),
(540,718,o),
(438,790,o),
(330,790,cs),
(211,790,o),
(122,720,o),
(89,577,c),
(-30,577,l),
(-30,527,l),
(78,527,l),
(72,485,o),
(69,429,o),
(69,379,cs),
(69,85,o),
(187,0,o),
(320,0,cs)
);
},
{
closed = 1;
nodes = (
(408,-250,o),
(477,-225,o),
(510,-201,c),
(490,-164,l),
(445,-188,o),
(391,-202,o),
(334,-202,cs),
(267,-202,o),
(212,-189,o),
(167,-164,c),
(148,-201,l),
(184,-228,o),
(248,-250,o),
(332,-250,cs)
);
},
{
closed = 1;
nodes = (
(405,-130,o),
(469,-108,o),
(505,-81,c),
(486,-44,l),
(444,-66,o),
(395,-82,o),
(334,-82,cs),
(270,-82,o),
(219,-70,o),
(172,-44,c),
(152,-81,l),
(189,-108,o),
(250,-130,o),
(332,-130,cs)
);
},
{
closed = 1;
nodes = (
(208,52,o),
(144,141,o),
(133,286,c),
(318,286,ls),
(394,286,o),
(444,227,o),
(444,161,cs),
(444,92,o),
(394,52,o),
(322,52,cs)
);
},
{
closed = 1;
nodes = (
(129,363,ls),
(129,419,o),
(133,476,o),
(140,527,c),
(486,527,l),
(481,418,o),
(413,337,o),
(315,337,cs),
(129,337,l)
);
},
{
closed = 1;
nodes = (
(172,676,o),
(236,738,o),
(329,738,cs),
(420,738,o),
(482,674,o),
(485,577,c),
(150,577,l)
);
}
);
vertWidth = 1130;
width = 586;
},
{
layerId = master05;
shapes = (
{
closed = 1;
nodes = (
(445,-3,o),
(525,59,o),
(525,164,cs),
(525,232,o),
(487,286,o),
(440,308,c),
(501,337,o),
(561,409,o),
(563,510,c),
(651,510,l),
(651,582,l),
(563,582,l),
(553,731,o),
(442,804,o),
(328,804,cs),
(195,804,o),
(102,722,o),
(75,582,c),
(-30,582,l),
(-30,510,l),
(63,510,l),
(59,476,o),
(57,432,o),
(57,397,cs),
(57,93,o),
(179,-3,o),
(326,-3,cs)
);
},
{
closed = 1;
nodes = (
(418,-274,o),
(492,-245,o),
(527,-221,c),
(502,-167,l),
(460,-187,o),
(397,-205,o),
(335,-205,cs),
(265,-205,o),
(205,-192,o),
(157,-167,c),
(132,-221,l),
(165,-246,o),
(239,-274,o),
(332,-274,cs)
);
},
{
closed = 1;
nodes = (
(418,-143,o),
(482,-115,o),
(517,-90,c),
(492,-36,l),
(451,-57,o),
(396,-75,o),
(335,-75,cs),
(266,-75,o),
(215,-61,o),
(167,-36,c),
(142,-90,l),
(177,-116,o),
(245,-143,o),
(332,-143,cs)
);
},
{
closed = 1;
nodes = (
(218,70,o),
(165,154,o),
(152,274,c),
(327,274,ls),
(395,274,o),
(436,221,o),
(436,167,cs),
(436,107,o),
(393,70,o),
(327,70,cs)
);
},
{
closed = 1;
nodes = (
(144,386,l),
(144,424,o),
(146,467,o),
(152,510,c),
(473,510,l),
(469,416,o),
(405,346,o),
(314,346,cs),
(145,346,l)
);
},
{
closed = 1;
nodes = (
(182,667,o),
(238,729,o),
(328,729,cs),
(413,729,o),
(470,667,o),
(475,582,c),
(164,582,l)
);
}
);
vertWidth = 1130;
width = 599;
},
{
layerId = master06;
shapes = (
{
closed = 1;
nodes = (
(437,0,o),
(511,61,o),
(511,164,cs),
(511,227,o),
(474,285,o),
(425,308,c),
(487,337,o),
(548,409,o),
(549,515,c),
(649,515,l),
(649,577,l),
(550,577,l),
(539,729,o),
(428,796,o),
(323,796,cs),
(191,796,o),
(105,713,o),
(80,577,c),
(-30,577,l),
(-30,515,l),
(67,515,l),
(63,481,o),
(61,433,o),
(61,396,cs),
(61,95,o),
(178,0,o),
(321,0,cs)
);
},
{
closed = 1;
nodes = (
(414,-258,o),
(486,-229,o),
(517,-207,c),
(495,-161,l),
(456,-181,o),
(392,-199,o),
(332,-199,cs),
(265,-199,o),
(204,-186,o),
(158,-161,c),
(136,-207,l),
(168,-231,o),
(238,-258,o),
(330,-258,cs)
);
},
{
closed = 1;
nodes = (
(414,-134,o),
(476,-105,o),
(507,-83,c),
(485,-37,l),
(446,-57,o),
(392,-75,o),
(332,-75,cs),
(265,-75,o),
(214,-62,o),
(168,-37,c),
(146,-83,l),
(178,-107,o),
(244,-134,o),
(330,-134,cs)
);
},
{
closed = 1;
nodes = (
(206,63,o),
(153,154,o),
(140,278,c),
(323,278,l),
(394,274,o),
(437,220,o),
(437,165,cs),
(437,102,o),
(393,63,o),
(323,63,cs)
);
},
{
closed = 1;
nodes = (
(134,378,ls),
(134,421,o),
(136,466,o),
(143,515,c),
(476,515,l),
(473,417,o),
(403,341,o),
(312,341,cs),
(134,341,l)
);
},
{
closed = 1;
nodes = (
(174,670,o),
(232,732,o),
(323,732,cs),
(411,732,o),
(470,667,o),
(476,577,c),
(153,577,l)
);
}
);
width = 589;
},
{
layerId = master07;
shapes = (
{
closed = 1;
nodes = (
(454,-6,o),
(540,57,o),
(540,165,cs),
(540,238,o),
(499,288,o),
(456,307,c),
(517,337,o),
(575,408,o),
(579,504,c),
(665,504,l),
(665,588,l),
(578,588,l),
(568,734,o),
(459,812,o),
(335,812,cs),
(199,812,o),
(100,731,o),
(71,588,c),
(-30,588,l),
(-30,504,l),
(58,504,l),
(55,472,o),
(53,431,o),
(53,398,cs),
(53,90,o),
(181,-6,o),
(331,-6,cs)
);
},
{
closed = 1;
nodes = (
(423,-291,o),
(498,-263,o),
(538,-236,c),
(509,-173,l),
(465,-194,o),
(402,-212,o),
(338,-212,cs),
(264,-212,o),
(206,-198,o),
(155,-173,c),
(126,-236,l),
(162,-263,o),
(240,-291,o),
(335,-291,cs)
);
},
{
closed = 1;
nodes = (
(423,-154,o),
(489,-125,o),
(528,-98,c),
(499,-35,l),
(456,-56,o),
(400,-74,o),
(338,-74,cs),
(266,-74,o),
(215,-60,o),
(165,-35,c),
(136,-98,l),
(175,-126,o),
(245,-154,o),
(335,-154,cs)
);
},
{
closed = 1;
nodes = (
(231,78,o),
(178,154,o),
(165,270,c),
(332,270,ls),
(396,270,o),
(434,223,o),
(434,170,cs),
(434,113,o),
(393,78,o),
(331,78,cs)
);
},
{
closed = 1;
nodes = (
(156,394,l),
(156,427,o),
(158,467,o),
(163,504,c),
(472,504,l),
(465,413,o),
(407,352,o),
(317,352,c),
(157,352,l)
);
},
{
closed = 1;
nodes = (
(194,663,o),
(246,726,o),
(335,726,cs),
(415,726,o),
(471,667,o),
(475,588,c),
(177,588,l)
);
}
);
vertWidth = 1130;
width = 610;
}
);
unicode = 2570;
},
{
glyphname = VowelEe;
layers = (
{
layerId = master01;
shapes = (
{
closed = 1;
nodes = (
(151,757,o),
(174,759,o),
(197,759,cs),
(258,759,o),
(308,731,o),
(356,634,cs),
(376,593,l),
(-30,593,l),
(-30,499,l),
(58,499,l),
(66,420,o),
(103,353,o),
(162,318,c),
(116,296,o),
(61,253,o),
(28,176,c),
(75,68,o),
(186,-11,o),
(347,-11,cs),
(434,-11,o),
(510,17,o),
(545,48,c),
(498,126,l),
(474,110,o),
(418,85,o),
(350,85,cs),
(259,85,o),
(186,123,o),
(151,180,c),
(188,240,o),
(246,260,o),
(317,260,cs),
(511,260,l),
(511,499,l),
(599,499,l),
(599,593,l),
(494,593,l),
(455,673,ls),
(384,820,o),
(302,862,o),
(201,862,cs),
(165,862,o),
(123,853,o),
(100,845,c),
(126,750,l)
);
},
{
closed = 1;
nodes = (
(242,357,o),
(184,422,o),
(177,499,c),
(392,499,l),
(392,355,l),
(316,355,l)
);
}
);
vertWidth = 1130;
width = 579;
},
{
layerId = master02;
shapes = (
{
closed = 1;
nodes = (
(149,752,o),
(172,755,o),
(195,755,cs),
(253,755,o),
(304,731,o),
(354,629,cs),
(369,597,l),
(-30,597,l),
(-30,494,l),
(57,494,l),
(64,417,o),
(99,353,o),
(155,318,c),
(108,295,o),
(55,251,o),
(25,174,c),
(70,71,o),
(180,-12,o),
(352,-12,cs),
(441,-12,o),
(521,16,o),
(557,47,c),
(507,133,l),
(483,118,o),
(424,92,o),
(356,92,cs),
(268,92,o),
(195,125,o),
(160,180,c),
(195,238,o),
(249,255,o),
(319,255,cs),
(523,255,l),
(523,494,l),
(606,494,l),
(606,597,l),
(500,597,l),
(466,669,ls),
(388,834,o),
(297,868,o),
(201,868,cs),
(163,868,o),
(118,858,o),
(94,849,c),
(124,745,l)
);
},
{
closed = 1;
nodes = (
(254,359,o),
(195,418,o),
(189,494,c),
(391,494,l),
(391,359,l),
(322,359,ls)
);
}
);
vertWidth = 1130;
width = 586;
},
{
layerId = master03;
shapes = (
{
closed = 1;
nodes = (
(148,785,o),
(169,788,o),
(187,788,cs),
(267,788,o),
(314,747,o),
(364,649,cs),
(401,577,l),
(-30,577,l),
(-30,539,l),
(75,539,l),
(85,432,o),
(135,354,o),
(209,322,c),
(157,306,o),
(88,266,o),
(46,182,c),
(98,63,o),
(192,0,o),
(324,0,cs),
(403,0,o),
(462,27,o),
(493,59,c),
(468,90,l),
(443,69,o),
(397,41,o),
(325,41,cs),
(209,41,o),
(135,107,o),
(98,183,c),
(140,260,o),
(230,302,o),
(313,302,cs),
(462,302,l),
(462,539,l),
(574,539,l),
(574,577,l),
(448,577,l),
(392,683,ls),
(342,778,o),
(291,829,o),
(185,829,cs),
(162,829,o),
(135,825,o),
(118,820,c),
(129,781,l)
);
},
{
closed = 1;
nodes = (
(184,354,o),
(127,450,o),
(124,539,c),
(415,539,l),
(415,342,l),
(285,342,l)
);
}
);
vertWidth = 814;
width = 556;
},
{
layerId = master04;
shapes = (
{
closed = 1;
nodes = (
(153,779,o),
(176,782,o),
(195,782,cs),
(271,782,o),
(319,740,o),
(365,650,cs),
(402,577,l),
(-30,577,l),
(-30,527,l),
(69,527,l),
(79,430,o),
(128,352,o),
(198,320,c),
(150,303,o),
(86,263,o),
(43,182,c),
(95,60,o),
(200,-3,o),
(326,-3,cs),
(405,-3,o),
(465,24,o),
(498,56,c),
(468,96,l),
(442,76,o),
(397,49,o),
(327,49,cs),
(217,49,o),
(143,112,o),
(108,182,c),
(152,254,o),
(232,291,o),
(311,291,cs),
(465,291,l),
(465,527,l),
(575,527,l),
(575,577,l),
(461,577,l),
(404,684,ls),
(356,775,o),
(305,834,o),
(192,834,cs),
(167,834,o),
(139,830,o),
(120,825,c),
(132,775,l)
);
},
{
closed = 1;
nodes = (
(193,351,o),
(135,442,o),
(129,527,c),
(406,527,l),
(406,342,l),
(289,342,l)
);
}
);
vertWidth = 1130;
width = 556;
},
{
layerId = master05;
shapes = (
{
closed = 1;
nodes = (
(155,768,o),
(179,770,o),
(201,770,cs),
(269,770,o),
(319,732,o),
(362,645,cs),
(394,582,l),
(-30,582,l),
(-30,510,l),
(61,510,l),
(71,426,o),
(115,350,o),
(178,317,c),
(133,297,o),
(77,257,o),
(36,180,c),
(86,60,o),
(202,-8,o),
(334,-8,cs),
(416,-8,o),
(482,20,o),
(516,51,c),
(478,110,l),
(451,92,o),
(404,66,o),
(336,66,cs),
(236,66,o),
(163,119,o),
(128,181,c),
(172,245,o),
(238,273,o),
(311,273,cs),
(482,273,l),
(482,510,l),
(583,510,l),
(583,582,l),
(480,582,l),
(429,681,ls),
(375,787,o),
(314,846,o),
(199,846,cs),
(169,846,o),
(136,841,o),
(114,835,c),
(132,763,l)
);
},
{
closed = 1;
nodes = (
(215,350,o),
(157,430,o),
(149,510,c),
(395,510,l),
(395,346,l),
(300,346,l)
);
}
);
vertWidth = 1130;
width = 563;
},
{
layerId = master06;
shapes = (
{
closed = 1;
nodes = (
(157,773,o),
(182,775,o),
(203,775,cs),
(275,775,o),
(324,732,o),
(365,651,cs),
(403,577,l),
(-30,577,l),
(-30,515,l),
(63,515,l),
(74,428,o),
(121,349,o),
(186,317,c),
(142,298,o),
(84,260,o),
(40,182,c),
(92,56,o),
(209,-6,o),
(328,-6,cs),
(408,-6,o),
(469,21,o),
(503,53,c),
(468,103,l),
(441,83,o),
(397,58,o),
(330,58,cs),
(226,58,o),
(152,117,o),
(118,181,c),
(164,248,o),
(235,279,o),
(308,279,cs),
(469,279,l),
(469,515,l),
(576,515,l),
(576,577,l),
(474,577,l),
(417,685,ls),
(371,772,o),
(320,839,o),
(199,839,cs),
(172,839,o),
(143,835,o),
(121,830,c),
(135,769,l)
);
},
{
closed = 1;
nodes = (
(203,348,o),
(144,433,o),
(136,515,c),
(396,515,l),
(396,342,l),
(293,342,l)
);
}
);
width = 556;
},
{
layerId = master07;
shapes = (
{
closed = 1;
nodes = (
(153,762,o),
(177,764,o),
(199,764,cs),
(264,764,o),
(314,731,o),
(359,639,cs),
(385,588,l),
(-30,588,l),
(-30,504,l),
(60,504,l),
(68,423,o),
(109,352,o),
(170,317,c),
(124,297,o),
(69,256,o),
(32,178,c),
(80,64,o),
(194,-9,o),
(341,-9,cs),
(425,-9,o),
(497,18,o),
(532,50,c),
(489,119,l),
(463,102,o),
(411,76,o),
(344,76,cs),
(248,76,o),
(175,121,o),
(140,180,c),
(180,243,o),
(242,266,o),
(314,266,cs),
(498,266,l),
(498,504,l),
(592,504,l),
(592,588,l),
(487,588,l),
(443,677,ls),
(380,805,o),
(308,854,o),
(200,854,cs),
(167,854,o),
(130,847,o),
(107,840,c),
(129,756,l)
);
},
{
closed = 1;
nodes = (
(229,354,o),
(172,425,o),
(165,504,c),
(393,504,l),
(393,351,l),
(308,351,l)
);
}
);
vertWidth = 1130;
width = 572;
}
);
unicode = 2575;
},
{
glyphname = VowelAi;
lastChange = "2022-06-08 23:02:31 +0000";
layers = (
{
layerId = master01;
shapes = (
{
closed = 1;
nodes = (
(715,0,l),
(715,499,l),
(805,499,l),
(805,593,l),
(702,593,l),
(657,699,ls),
(608,813,o),
(541,895,o),
(395,895,cs),
(354,895,o),
(313,887,o),
(294,883,c),
(314,794,l),
(344,800,o),
(373,804,o),
(398,804,cs),
(468,804,o),
(526,782,o),
(581,699,cs),
(608,657,l),
(605,655,l),
(534,721,o),
(492,742,o),
(417,742,cs),
(388,742,o),
(353,735,o),
(333,730,c),
(353,644,l),
(371,647,o),
(402,651,o),
(423,651,cs),
(492,651,o),
(527,636,o),
(595,575,c),
(595,438,l),
(559,414,o),
(512,380,o),
(470,345,c),
(466,402,o),
(459,466,o),
(451,519,c),
(360,555,l),
(315,524,o),
(261,479,o),
(214,437,c),
(204,485,o),
(188,544,o),
(172,593,c),
(-30,593,l),
(-30,499,l),
(80,499,l),
(91,460,o),
(101,398,o),
(104,363,c),
(25,191,l),
(36,161,o),
(61,138,o),
(100,138,cs),
(157,138,o),
(205,179,o),
(218,306,c),
(257,346,o),
(306,389,o),
(347,421,c),
(350,376,o),
(352,337,o),
(353,283,c),
(273,108,l),
(283,78,o),
(311,54,o),
(348,54,cs),
(404,54,o),
(450,88,o),
(464,213,c),
(509,251,o),
(556,288,o),
(595,315,c),
(595,0,l)
);
}
);
vertWidth = 1130;
width = 785;
},
{
layerId = master02;
shapes = (
{
closed = 1;
nodes = (
(742,0,l),
(742,494,l),
(827,494,l),
(827,597,l),
(727,597,l),
(684,703,ls),
(639,811,o),
(574,907,o),
(414,907,cs),
(370,907,o),
(328,899,o),
(309,895,c),
(331,798,l),
(363,804,o),
(391,808,o),
(417,808,cs),
(490,808,o),
(546,784,o),
(600,703,cs),
(628,660,l),
(625,657,l),
(549,728,o),
(507,750,o),
(431,750,cs),
(403,750,o),
(368,743,o),
(348,738,c),
(369,644,l),
(386,647,o),
(416,651,o),
(436,651,cs),
(499,651,o),
(533,639,o),
(609,575,c),
(609,448,l),
(575,426,o),
(530,393,o),
(490,360,c),
(486,413,o),
(480,469,o),
(473,521,c),
(372,562,l),
(326,529,o),
(273,487,o),
(226,443,c),
(216,491,o),
(200,548,o),
(183,597,c),
(-30,597,l),
(-30,494,l),
(82,494,l),
(93,457,o),
(103,401,o),
(106,367,c),
(21,189,l),
(34,157,o),
(60,132,o),
(103,132,cs),
(164,132,o),
(215,169,o),
(229,300,c),
(267,339,o),
(317,381,o),
(357,414,c),
(359,371,o),
(360,337,o),
(360,285,c),
(276,107,l),
(287,76,o),
(318,49,o),
(358,49,cs),
(421,49,o),
(469,81,o),
(483,214,c),
(526,251,o),
(573,287,o),
(609,313,c),
(609,0,l)
);
}
);
vertWidth = 1130;
width = 807;
},
{
layerId = master03;
shapes = (
{
closed = 1;
nodes = (
(603,0,l),
(603,539,l),
(721,539,l),
(721,577,l),
(602,577,l),
(541,686,ls),
(470,814,o),
(405,841,o),
(320,841,cs),
(288,841,o),
(247,833,o),
(229,826,c),
(243,786,l),
(268,793,o),
(299,799,o),
(324,799,cs),
(396,799,o),
(443,771,o),
(503,688,cs),
(566,601,l),
(565,600,l),
(504,667,o),
(451,713,o),
(361,713,cs),
(331,713,o),
(301,707,o),
(280,701,c),
(294,662,l),
(316,667,o),
(340,672,o),
(365,672,cs),
(444,672,o),
(507,629,o),
(556,577,c),
(556,384,l),
(505,346,o),
(443,299,o),
(398,262,c),
(398,318,o),
(386,443,o),
(374,516,c),
(335,529,l),
(288,493,o),
(208,416,o),
(157,361,c),
(154,418,o),
(140,523,o),
(123,577,c),
(-30,577,l),
(-30,539,l),
(87,539,l),
(98,499,o),
(114,382,o),
(114,339,c),
(50,189,l),
(55,172,o),
(69,162,o),
(86,162,cs),
(124,162,o),
(147,216,o),
(157,303,c),
(206,354,o),
(285,428,o),
(336,473,c),
(341,443,o),
(352,354,o),
(352,249,c),
(287,99,l),
(293,83,o),
(305,72,o),
(323,72,cs),
(358,72,o),
(382,120,o),
(393,202,c),
(439,242,o),
(502,289,o),
(556,331,c),
(556,0,l)
);
}
);
vertWidth = 814;
width = 701;
},
{
layerId = master04;
shapes = (
{
closed = 1;
nodes = (
(611,0,l),
(611,527,l),
(723,527,l),
(723,577,l),
(606,577,l),
(551,686,ls),
(483,818,o),
(414,846,o),
(322,846,cs),
(291,846,o),
(252,838,o),
(233,832,c),
(247,783,l),
(272,789,o),
(302,794,o),
(326,794,cs),
(392,794,o),
(448,772,o),
(507,686,cs),
(550,623,l),
(549,622,l),
(492,680,o),
(444,713,o),
(363,713,cs),
(333,713,o),
(300,707,o),
(279,701,c),
(293,652,l),
(315,657,o),
(345,662,o),
(370,662,cs),
(449,662,o),
(501,630,o),
(551,577,c),
(551,393,l),
(504,359,o),
(445,315,o),
(399,278,c),
(398,334,o),
(386,449,o),
(374,515,c),
(327,529,l),
(282,497,o),
(211,433,o),
(162,385,c),
(157,443,o),
(144,527,o),
(128,577,c),
(-30,577,l),
(-30,527,l),
(81,527,l),
(92,486,o),
(105,385,o),
(106,343,c),
(45,194,l),
(50,173,o),
(67,162,o),
(88,162,cs),
(128,162,o),
(157,218,o),
(167,316,c),
(213,361,o),
(276,422,o),
(324,461,c),
(331,419,o),
(339,345,o),
(340,261,c),
(275,105,l),
(281,84,o),
(297,72,o),
(318,72,cs),
(354,72,o),
(383,117,o),
(394,206,c),
(444,247,o),
(500,289,o),
(551,327,c),
(551,0,l)
);
}
);
vertWidth = 1130;
width = 703;
},
{
layerId = master05;
shapes = (
{
closed = 1;
nodes = (
(650,0,l),
(650,510,l),
(751,510,l),
(751,582,l),
(643,582,l),
(594,689,ls),
(534,819,o),
(463,865,o),
(349,865,cs),
(316,865,o),
(277,858,o),
(257,853,c),
(273,784,l),
(300,789,o),
(330,794,o),
(352,794,cs),
(415,794,o),
(479,776,o),
(536,689,cs),
(560,651,l),
(558,649,l),
(498,702,o),
(457,722,o),
(383,722,cs),
(354,722,o),
(319,716,o),
(298,710,c),
(314,642,l),
(334,647,o),
(369,652,o),
(393,652,cs),
(469,652,o),
(508,631,o),
(562,577,c),
(562,414,l),
(521,386,o),
(469,349,o),
(422,312,c),
(419,372,o),
(409,460,o),
(399,515,c),
(332,538,l),
(289,510,o),
(230,461,o),
(183,419,c),
(175,472,o),
(161,535,o),
(146,582,c),
(-30,582,l),
(-30,510,l),
(77,510,l),
(87,468,o),
(98,392,o),
(99,353,c),
(34,197,l),
(42,170,o),
(64,154,o),
(93,154,cs),
(142,154,o),
(180,205,o),
(190,323,c),
(236,365,o),
(281,408,o),
(323,439,c),
(330,387,o),
(334,336,o),
(334,277,c),
(265,110,l),
(273,83,o),
(295,66,o),
(324,66,cs),
(367,66,o),
(405,105,o),
(418,211,c),
(468,252,o),
(517,289,o),
(562,320,c),
(562,0,l)
);
}
);
vertWidth = 1130;
width = 731;
},
{
layerId = master06;
shapes = (
{
closed = 1;
nodes = (
(620,0,l),
(620,515,l),
(726,515,l),
(726,577,l),
(612,577,l),
(561,685,ls),
(496,822,o),
(423,851,o),
(324,851,cs),
(295,851,o),
(257,844,o),
(237,839,c),
(251,779,l),
(276,784,o),
(306,789,o),
(327,789,cs),
(387,789,o),
(453,774,o),
(511,684,cs),
(534,647,l),
(532,646,l),
(478,694,o),
(437,713,o),
(364,713,cs),
(334,713,o),
(299,707,o),
(278,701,c),
(292,642,l),
(314,647,o),
(350,652,o),
(375,652,cs),
(455,652,o),
(496,630,o),
(546,577,c),
(546,403,l),
(503,373,o),
(449,335,o),
(400,297,c),
(397,354,o),
(386,457,o),
(375,513,c),
(319,530,l),
(274,501,o),
(213,450,o),
(167,410,c),
(161,466,o),
(148,531,o),
(134,577,c),
(-30,577,l),
(-30,515,l),
(75,515,l),
(85,472,o),
(96,389,o),
(97,348,c),
(39,200,l),
(45,175,o),
(65,161,o),
(90,161,cs),
(134,161,o),
(168,219,o),
(177,331,c),
(220,368,o),
(266,415,o),
(312,447,c),
(320,392,o),
(325,336,o),
(326,274,c),
(262,111,l),
(268,86,o),
(288,72,o),
(313,72,cs),
(349,72,o),
(384,113,o),
(396,211,c),
(451,254,o),
(499,290,o),
(546,322,c),
(546,0,l)
);
}
);
width = 706;
},
{
layerId = master07;
shapes = (
{
closed = 1;
nodes = (
(685,0,l),
(685,504,l),
(780,504,l),
(780,588,l),
(674,588,l),
(627,695,ls),
(573,816,o),
(504,881,o),
(373,881,cs),
(336,881,o),
(296,873,o),
(276,869,c),
(294,789,l),
(323,795,o),
(352,799,o),
(376,799,cs),
(443,799,o),
(503,779,o),
(559,694,cs),
(585,654,l),
(582,652,l),
(517,712,o),
(475,733,o),
(401,733,cs),
(372,733,o),
(337,726,o),
(316,721,c),
(334,643,l),
(353,647,o),
(386,651,o),
(408,651,cs),
(481,651,o),
(517,633,o),
(579,575,c),
(579,427,l),
(541,402,o),
(491,365,o),
(447,330,c),
(444,389,o),
(435,463,o),
(427,517,c),
(347,547,l),
(303,517,o),
(247,471,o),
(200,429,c),
(191,479,o),
(176,540,o),
(160,588,c),
(-30,588,l),
(-30,504,l),
(79,504,l),
(89,464,o),
(100,395,o),
(102,358,c),
(29,194,l),
(39,165,o),
(62,146,o),
(97,146,cs),
(150,146,o),
(193,191,o),
(204,313,c),
(247,355,o),
(295,398,o),
(336,430,c),
(341,381,o),
(344,337,o),
(344,280,c),
(269,109,l),
(278,81,o),
(304,60,o),
(337,60,cs),
(387,60,o),
(429,97,o),
(443,212,c),
(489,251,o),
(537,288,o),
(579,317,c),
(579,0,l)
);
}
);
vertWidth = 1130;
width = 760;
}
);
unicode = 2576;
},
{
glyphname = VowelOo;
lastChange = "2022-06-08 23:13:42 +0000";
layers = (
{
layerId = master01;
shapes = (
{
closed = 1;
nodes = (
(462,-9,o),
(554,56,o),
(554,165,cs),
(554,243,o),
(512,289,o),
(472,306,c),
(533,338,o),
(589,409,o),
(593,499,c),
(670,499,l),
(670,593,l),
(193,593,l),
(220,681,o),
(301,723,o),
(387,723,cs),
(445,723,o),
(487,708,o),
(519,692,c),
(559,777,l),
(527,796,o),
(462,820,o),
(387,820,cs),
(227,820,o),
(107,739,o),
(71,593,c),
(-30,593,l),
(-30,499,l),
(54,499,l),
(51,468,o),
(49,431,o),
(49,398,cs),
(49,88,o),
(183,-9,o),
(336,-9,cs)
);
},
{
closed = 1;
nodes = (
(244,86,o),
(190,155,o),
(177,266,c),
(336,266,ls),
(396,266,o),
(433,224,o),
(433,173,cs),
(433,118,o),
(393,86,o),
(335,86,cs)
);
},
{
closed = 1;
nodes = (
(167,430,o),
(169,468,o),
(172,499,c),
(470,499,l),
(462,412,o),
(408,357,o),
(319,357,cs),
(168,357,l)
);
}
);
vertWidth = 1130;
width = 612;
},
{
layerId = master02;
shapes = (
{
closed = 1;
nodes = (
(469,-11,o),
(566,54,o),
(566,165,cs),
(566,248,o),
(522,290,o),
(485,305,c),
(546,338,o),
(600,409,o),
(605,494,c),
(679,494,l),
(679,597,l),
(203,597,l),
(230,684,o),
(312,721,o),
(394,721,cs),
(453,721,o),
(492,706,o),
(524,690,c),
(567,783,l),
(536,803,o),
(470,827,o),
(394,827,cs),
(227,827,o),
(105,742,o),
(69,597,c),
(-30,597,l),
(-30,494,l),
(50,494,l),
(48,464,o),
(46,430,o),
(46,399,cs),
(46,86,o),
(184,-11,o),
(340,-11,cs)
);
},
{
closed = 1;
nodes = (
(254,92,o),
(200,155,o),
(187,263,c),
(340,263,ls),
(397,263,o),
(432,225,o),
(432,175,cs),
(432,123,o),
(393,92,o),
(338,92,cs)
);
},
{
closed = 1;
nodes = (
(176,433,o),
(178,467,o),
(181,494,c),
(469,494,l),
(459,410,o),
(410,361,o),
(321,361,cs),
(177,361,l)
);
}
);
vertWidth = 1130;
width = 619;
},
{
layerId = master03;
shapes = (
{
closed = 1;
nodes = (
(422,0,o),
(497,58,o),
(497,156,cs),
(497,231,o),
(456,284,o),
(398,306,c),
(469,330,o),
(540,408,o),
(543,539,c),
(633,539,l),
(633,577,l),
(147,577,l),
(178,683,o),
(257,745,o),
(365,745,cs),
(417,745,o),
(464,730,o),
(499,713,c),
(519,748,l),
(491,763,o),
(442,786,o),
(364,786,cs),
(240,786,o),
(135,719,o),
(96,577,c),
(-30,577,l),
(-30,539,l),
(88,539,l),
(80,492,o),
(76,428,o),
(76,364,cs),
(76,76,o),
(196,0,o),
(319,0,cs)
);
},
{
closed = 1;
nodes = (
(209,41,o),
(136,129,o),
(127,293,c),
(313,293,ls),
(397,293,o),
(450,236,o),
(450,158,cs),
(450,83,o),
(395,41,o),
(322,41,cs)
);
},
{
closed = 1;
nodes = (
(125,419,o),
(130,486,o),
(139,539,c),
(495,539,l),
(491,423,o),
(425,333,o),
(320,333,cs),
(126,333,l)
);
}
);
vertWidth = 814;
width = 583;
},
{
layerId = master04;
shapes = (
{
closed = 1;
nodes = (
(429,0,o),
(504,59,o),
(504,160,cs),
(504,229,o),
(465,284,o),
(412,307,c),
(478,334,o),
(543,409,o),
(546,527,c),
(640,527,l),
(640,577,l),
(151,577,l),
(180,676,o),
(256,739,o),
(363,739,cs),
(417,739,o),
(466,722,o),
(501,706,c),
(525,751,l),
(493,768,o),
(438,791,o),
(363,791,cs),
(236,791,o),
(126,724,o),
(87,577,c),
(-30,577,l),
(-30,527,l),
(78,527,l),
(73,487,o),
(69,430,o),
(69,379,cs),
(69,85,o),
(187,0,o),
(320,0,cs)
);
},
{
closed = 1;
nodes = (
(208,52,o),
(144,141,o),
(133,286,c),
(321,286,l),
(396,281,o),
(444,227,o),
(444,161,cs),
(444,92,o),
(394,52,o),
(322,52,cs)
);
},
{
closed = 1;
nodes = (
(129,419,o),
(133,476,o),
(141,527,c),
(486,527,l),
(482,420,o),
(414,337,o),
(316,337,cs),
(130,337,l)
);
}
);
vertWidth = 1130;
width = 585;
},
{
layerId = master05;
shapes = (
{
closed = 1;
nodes = (
(445,-3,o),
(525,59,o),
(525,164,cs),
(525,232,o),
(487,286,o),
(440,308,c),
(501,337,o),
(561,409,o),
(563,510,c),
(647,510,l),
(647,582,l),
(167,582,l),
(194,673,o),
(270,729,o),
(369,729,cs),
(425,729,o),
(474,712,o),
(508,696,c),
(540,761,l),
(506,780,o),
(442,804,o),
(370,804,cs),
(229,804,o),
(113,732,o),
(76,582,c),
(-30,582,l),
(-30,510,l),
(63,510,l),
(59,476,o),
(57,432,o),
(57,397,cs),
(57,93,o),
(179,-3,o),
(326,-3,cs)
);
},
{
closed = 1;
nodes = (
(218,70,o),
(165,154,o),
(152,274,c),
(327,274,ls),
(395,274,o),
(436,221,o),
(436,167,cs),
(436,107,o),
(393,70,o),
(327,70,cs)
);
},
{
closed = 1;
nodes = (
(144,424,o),
(146,467,o),
(152,510,c),
(473,510,l),
(469,416,o),
(405,346,o),
(314,346,cs),
(145,346,l)
);
}
);
vertWidth = 1130;
width = 595;
},
{
layerId = master06;
shapes = (
{
closed = 1;
nodes = (
(437,0,o),
(511,61,o),
(511,164,cs),
(511,227,o),
(474,285,o),
(425,308,c),
(487,337,o),
(548,409,o),
(549,515,c),
(647,515,l),
(647,577,l),
(155,577,l),
(182,669,o),
(256,732,o),
(361,732,cs),
(416,732,o),
(468,714,o),
(503,698,c),
(531,754,l),
(496,773,o),
(433,796,o),
(362,796,cs),
(230,796,o),
(117,729,o),
(78,577,c),
(-30,577,l),
(-30,515,l),
(67,515,l),
(63,481,o),
(61,433,o),
(61,396,cs),
(61,95,o),
(178,0,o),
(321,0,cs)
);
},
{
closed = 1;
nodes = (
(206,63,o),
(153,154,o),
(140,278,c),
(323,278,l),
(394,274,o),
(437,220,o),
(437,165,cs),
(437,102,o),
(393,63,o),
(323,63,cs)
);
},
{
closed = 1;
nodes = (
(134,421,o),
(136,466,o),
(143,515,c),
(476,515,l),
(473,417,o),
(403,341,o),
(312,341,cs),
(134,341,l)
);
}
);
width = 587;
},
{
layerId = master07;
shapes = (
{
closed = 1;
nodes = (
(454,-6,o),
(540,57,o),
(540,165,cs),
(540,238,o),
(499,288,o),
(456,307,c),
(517,337,o),
(575,408,o),
(579,504,c),
(659,504,l),
(659,588,l),
(181,588,l),
(208,677,o),
(286,726,o),
(378,726,cs),
(436,726,o),
(481,710,o),
(514,694,c),
(550,769,l),
(517,789,o),
(453,812,o),
(379,812,cs),
(228,812,o),
(110,736,o),
(74,588,c),
(-30,588,l),
(-30,504,l),
(58,504,l),
(55,472,o),
(53,431,o),
(53,398,cs),
(53,90,o),
(181,-6,o),
(331,-6,cs)
);
},
{
closed = 1;
nodes = (
(231,78,o),
(178,154,o),
(165,270,c),
(332,270,ls),
(396,270,o),
(434,223,o),
(434,170,cs),
(434,113,o),
(393,78,o),
(331,78,cs)
);
},
{
closed = 1;
nodes = (
(156,427,o),
(158,467,o),
(163,504,c),
(472,504,l),
(465,413,o),
(407,352,o),
(317,352,c),
(157,352,l)
);
}
);
vertWidth = 1130;
width = 604;
}
);
unicode = 2579;
},
{
glyphname = VowelAu;
lastChange = "2022-06-08 23:02:43 +0000";
layers = (
{
layerId = master01;
shapes = (
{
closed = 1;
nodes = (
(715,0,l),
(715,499,l),
(805,499,l),
(805,593,l),
(595,593,l),
(595,438,l),
(559,414,o),
(512,380,o),
(470,345,c),
(466,402,o),
(459,466,o),
(451,519,c),
(360,555,l),
(315,524,o),
(261,479,o),
(214,437,c),
(204,485,o),
(188,544,o),
(172,593,c),
(-30,593,l),
(-30,499,l),
(80,499,l),
(91,460,o),
(101,398,o),
(104,363,c),
(25,191,l),
(36,161,o),
(61,138,o),
(100,138,cs),
(157,138,o),
(205,179,o),
(218,306,c),
(257,346,o),
(306,389,o),
(347,421,c),
(350,376,o),
(352,337,o),
(353,283,c),
(273,108,l),
(283,78,o),
(311,54,o),
(348,54,cs),
(404,54,o),
(450,88,o),
(464,213,c),
(509,251,o),
(556,288,o),
(595,315,c),
(595,0,l)
);
},
{
closed = 1;
nodes = (
(623,657,l),
(615,672,o),
(609,685,o),
(609,701,cs),
(609,730,o),
(628,749,o),
(654,749,cs),
(677,749,o),
(697,731,o),
(698,702,c),
(698,685,o),
(692,669,o),
(686,657,c),
(759,632,l),
(777,645,o),
(799,675,o),
(799,711,cs),
(799,767,o),
(750,830,o),
(643,830,cs),
(571,830,o),
(541,826,o),
(505,826,cs),
(444,826,o),
(421,844,o),
(410,900,c),
(329,900,l),
(330,770,o),
(411,739,o),
(478,739,cs),
(501,739,o),
(519,744,o),
(530,747,c),
(531,745,l),
(520,736,o),
(512,720,o),
(512,700,cs),
(512,669,o),
(533,645,o),
(549,632,c)
);
}
);
vertWidth = 1130;
width = 785;
},
{
layerId = master02;
shapes = (
{
closed = 1;
nodes = (
(742,0,l),
(742,494,l),
(827,494,l),
(827,597,l),
(609,597,l),
(609,448,l),
(575,426,o),
(530,393,o),
(490,360,c),
(486,413,o),
(480,469,o),
(473,521,c),
(372,562,l),
(326,529,o),
(273,487,o),
(226,443,c),
(216,491,o),
(200,548,o),
(183,597,c),
(-30,597,l),
(-30,494,l),
(82,494,l),
(93,457,o),
(103,401,o),
(106,367,c),
(21,189,l),
(34,157,o),
(60,132,o),
(103,132,cs),
(164,132,o),
(215,169,o),
(229,300,c),
(267,339,o),
(317,381,o),
(357,414,c),
(359,371,o),
(360,337,o),
(360,285,c),
(276,107,l),
(287,76,o),
(318,49,o),
(358,49,cs),
(421,49,o),
(469,81,o),
(483,214,c),
(526,251,o),
(573,287,o),
(609,313,c),
(609,0,l)
);
},
{
closed = 1;
nodes = (
(640,662,l),
(632,678,o),
(626,692,o),
(626,709,cs),
(626,737,o),
(644,756,o),
(670,756,cs),
(693,756,o),
(712,737,o),
(712,708,cs),
(712,692,o),
(706,675,o),
(699,662,c),
(779,635,l),
(799,649,o),
(823,680,o),
(823,719,cs),
(823,775,o),
(773,844,o),
(658,844,cs),
(577,844,o),
(541,839,o),
(507,839,cs),
(444,839,o),
(422,857,o),
(412,912,c),
(322,912,l),
(322,775,o),
(410,743,o),
(479,743,cs),
(504,743,o),
(524,748,o),
(535,751,c),
(536,749,l),
(526,741,o),
(519,723,o),
(519,707,cs),
(519,674,o),
(542,648,o),
(560,635,c)
);
}
);
vertWidth = 1130;
width = 807;
},
{
layerId = master03;
shapes = (
{
closed = 1;
nodes = (
(603,0,l),
(603,539,l),
(721,539,l),
(721,577,l),
(556,577,l),
(556,384,l),
(505,346,o),
(443,299,o),
(398,262,c),
(398,318,o),
(386,443,o),
(374,516,c),
(335,529,l),
(288,493,o),
(208,416,o),
(157,361,c),
(154,418,o),
(140,523,o),
(123,577,c),
(-30,577,l),
(-30,539,l),
(87,539,l),
(98,499,o),
(114,382,o),
(114,339,c),
(50,189,l),
(55,172,o),
(69,162,o),
(86,162,cs),
(124,162,o),
(147,216,o),
(157,303,c),
(206,354,o),
(285,428,o),
(336,473,c),
(341,443,o),
(352,354,o),
(352,249,c),
(287,99,l),
(293,83,o),
(305,72,o),
(323,72,cs),
(358,72,o),
(382,120,o),
(393,202,c),
(439,242,o),
(502,289,o),
(556,331,c),
(556,0,l)
);
},
{
closed = 1;
nodes = (
(565,637,l),
(559,650,o),
(555,660,o),
(555,674,cs),
(555,706,o),
(574,735,o),
(614,735,cs),
(657,735,o),
(673,706,o),
(673,678,cs),
(673,658,o),
(668,647,o),
(663,637,c),
(692,622,l),
(702,633,o),
(712,653,o),
(712,681,cs),
(712,733,o),
(678,771,o),
(601,771,cs),
(562,771,o),
(549,767,o),
(505,767,cs),
(449,767,o),
(419,785,o),
(411,847,c),
(376,847,l),
(378,756,o),
(436,732,o),
(495,732,cs),
(518,732,o),
(534,736,o),
(545,739,c),
(546,737,l),
(532,728,o),
(516,707,o),
(516,676,cs),
(516,651,o),
(526,632,o),
(536,622,c)
);
}
);
vertWidth = 814;
width = 701;
},
{
layerId = master04;
shapes = (
{
closed = 1;
nodes = (
(611,0,l),
(611,527,l),
(723,527,l),
(723,577,l),
(551,577,l),
(551,393,l),
(504,359,o),
(445,315,o),
(399,278,c),
(398,334,o),
(386,449,o),
(374,515,c),
(327,529,l),
(282,497,o),
(211,433,o),
(162,385,c),
(157,443,o),
(144,527,o),
(128,577,c),
(-30,577,l),
(-30,527,l),
(81,527,l),
(92,486,o),
(105,385,o),
(106,343,c),
(45,194,l),
(50,173,o),
(67,162,o),
(88,162,cs),
(128,162,o),
(157,218,o),
(167,316,c),
(213,361,o),
(276,422,o),
(324,461,c),
(331,419,o),
(339,345,o),
(340,261,c),
(275,105,l),
(281,84,o),
(297,72,o),
(318,72,cs),
(354,72,o),
(383,117,o),
(394,206,c),
(444,247,o),
(500,289,o),
(551,327,c),
(551,0,l)
);
},
{
closed = 1;
nodes = (
(562,637,l),
(556,650,o),
(552,660,o),
(552,674,cs),
(552,706,o),
(572,730,o),
(606,730,cs),
(639,730,o),
(659,708,o),
(661,679,c),
(661,659,o),
(656,648,o),
(651,637,c),
(689,622,l),
(699,633,o),
(711,654,o),
(711,681,cs),
(711,736,o),
(674,776,o),
(595,776,cs),
(555,776,o),
(545,772,o),
(501,772,cs),
(447,772,o),
(418,790,o),
(407,852,c),
(364,852,l),
(367,755,o),
(424,729,o),
(484,729,cs),
(504,729,o),
(517,732,o),
(528,736,c),
(529,734,l),
(515,724,o),
(502,706,o),
(502,676,cs),
(502,651,o),
(513,633,o),
(524,622,c)
);
}
);
vertWidth = 1130;
width = 703;
},
{
layerId = master05;
shapes = (
{
closed = 1;
nodes = (
(650,0,l),
(650,510,l),
(751,510,l),
(751,582,l),
(562,582,l),
(562,414,l),
(521,386,o),
(469,349,o),
(422,312,c),
(419,372,o),
(409,460,o),
(399,515,c),
(332,538,l),
(289,510,o),
(230,461,o),
(183,419,c),
(175,472,o),
(161,535,o),
(146,582,c),
(-30,582,l),
(-30,510,l),
(77,510,l),
(87,468,o),
(98,392,o),
(99,353,c),
(34,197,l),
(42,170,o),
(64,154,o),
(93,154,cs),
(142,154,o),
(180,205,o),
(190,323,c),
(236,365,o),
(281,408,o),
(323,439,c),
(330,387,o),
(334,336,o),
(334,277,c),
(265,110,l),
(273,83,o),
(295,66,o),
(324,66,cs),
(367,66,o),
(405,105,o),
(418,211,c),
(468,252,o),
(517,289,o),
(562,320,c),
(562,0,l)
);
},
{
closed = 1;
nodes = (
(579,643,l),
(573,656,o),
(568,667,o),
(568,682,cs),
(568,713,o),
(589,732,o),
(615,732,cs),
(638,732,o),
(661,717,o),
(663,686,c),
(663,667,o),
(658,654,o),
(653,643,c),
(709,625,l),
(722,636,o),
(738,661,o),
(738,690,cs),
(738,748,o),
(695,796,o),
(606,796,cs),
(554,796,o),
(541,793,o),
(500,793,cs),
(444,793,o),
(418,810,o),
(405,870,c),
(344,870,l),
(347,758,o),
(411,730,o),
(474,730,cs),
(494,730,o),
(506,733,o),
(516,736,c),
(517,734,l),
(505,724,o),
(495,709,o),
(495,683,cs),
(495,656,o),
(510,637,o),
(523,625,c)
);
}
);
vertWidth = 1130;
width = 731;
},
{
layerId = master06;
shapes = (
{
closed = 1;
nodes = (
(620,0,l),
(620,515,l),
(726,515,l),
(726,577,l),
(546,577,l),
(546,403,l),
(503,373,o),
(449,335,o),
(400,297,c),
(397,354,o),
(386,457,o),
(375,513,c),
(319,530,l),
(274,501,o),
(213,450,o),
(167,410,c),
(161,466,o),
(148,531,o),
(134,577,c),
(-30,577,l),
(-30,515,l),
(75,515,l),
(85,472,o),
(96,389,o),
(97,348,c),
(39,200,l),
(45,175,o),
(65,161,o),
(90,161,cs),
(134,161,o),
(168,219,o),
(177,331,c),
(220,368,o),
(266,415,o),
(312,447,c),
(320,392,o),
(325,336,o),
(326,274,c),
(262,111,l),
(268,86,o),
(288,72,o),
(313,72,cs),
(349,72,o),
(384,113,o),
(396,211,c),
(451,254,o),
(499,290,o),
(546,322,c),
(546,0,l)
);
},
{
closed = 1;
nodes = (
(560,637,l),
(554,650,o),
(550,660,o),
(550,674,cs),
(550,706,o),
(571,725,o),
(598,725,cs),
(621,725,o),
(645,711,o),
(648,680,c),
(648,660,o),
(643,648,o),
(638,637,c),
(687,622,l),
(697,632,o),
(711,656,o),
(711,681,cs),
(711,740,o),
(670,781,o),
(589,781,cs),
(547,781,o),
(542,778,o),
(498,778,cs),
(445,778,o),
(418,795,o),
(404,857,c),
(352,857,l),
(356,753,o),
(412,726,o),
(473,726,cs),
(489,726,o),
(501,729,o),
(511,733,c),
(512,731,l),
(498,722,o),
(488,705,o),
(488,676,cs),
(488,651,o),
(500,634,o),
(511,622,c)
);
}
);
width = 706;
},
{
layerId = master07;
shapes = (
{
closed = 1;
nodes = (
(685,0,l),
(685,504,l),
(780,504,l),
(780,588,l),
(579,588,l),
(579,427,l),
(541,402,o),
(491,365,o),
(447,330,c),
(444,389,o),
(435,463,o),
(427,517,c),
(347,547,l),
(303,517,o),
(247,471,o),
(200,429,c),
(191,479,o),
(176,540,o),
(160,588,c),
(-30,588,l),
(-30,504,l),
(79,504,l),
(89,464,o),
(100,395,o),
(102,358,c),
(29,194,l),
(39,165,o),
(62,146,o),
(97,146,cs),
(150,146,o),
(193,191,o),
(204,313,c),
(247,355,o),
(295,398,o),
(336,430,c),
(341,381,o),
(344,337,o),
(344,280,c),
(269,109,l),
(278,81,o),
(304,60,o),
(337,60,cs),
(387,60,o),
(429,97,o),
(443,212,c),
(489,251,o),
(537,288,o),
(579,317,c),
(579,0,l)
);
},
{
closed = 1;
nodes = (
(602,650,l),
(595,665,o),
(590,677,o),
(590,692,cs),
(590,722,o),
(609,741,o),
(636,741,cs),
(659,741,o),
(680,724,o),
(682,695,c),
(682,677,o),
(676,662,o),
(670,650,c),
(735,629,l),
(751,641,o),
(770,668,o),
(770,701,cs),
(770,758,o),
(724,814,o),
(625,814,cs),
(563,814,o),
(541,810,o),
(502,810,cs),
(444,810,o),
(420,828,o),
(408,886,c),
(336,886,l),
(338,764,o),
(411,735,o),
(476,735,cs),
(498,735,o),
(513,739,o),
(523,742,c),
(524,740,l),
(513,731,o),
(504,714,o),
(504,692,cs),
(504,663,o),
(522,641,o),
(537,629,c)
);
}
);
vertWidth = 1130;
width = 760;
}
);
unicode = 2580;
},
{
glyphname = Ka;
layers = (
{
layerId = master01;
shapes = (
{
closed = 1;
nodes = (
(435,499,l),
(433,433,o),
(424,380,o),
(409,339,c),
(368,385,o),
(305,422,o),
(228,422,cs),
(109,422,o),
(28,356,o),
(28,254,cs),
(28,148,o),
(111,85,o),
(227,85,cs),
(303,85,o),
(367,115,o),
(407,155,c),
(422,111,o),
(431,52,o),
(439,0,c),
(559,0,l),
(552,91,o),
(519,181,o),
(485,238,c),
(529,310,o),
(551,399,o),
(554,499,c),
(631,499,l),
(631,593,l),
(-30,593,l),
(-30,499,l)
);
},
{
closed = 1;
nodes = (
(186,180,o),
(148,207,o),
(148,254,cs),
(148,293,o),
(174,327,o),
(235,327,cs),
(284,327,o),
(334,299,o),
(370,252,c),
(343,213,o),
(294,180,o),
(237,180,cs)
);
}
);
vertWidth = 1130;
width = 601;
},
{
layerId = master02;
shapes = (
{
closed = 1;
nodes = (
(434,494,l),
(432,431,o),
(424,384,o),
(410,345,c),
(370,387,o),
(308,423,o),
(233,423,cs),
(107,423,o),
(26,355,o),
(26,252,cs),
(26,148,o),
(107,80,o),
(231,80,cs),
(304,80,o),
(368,106,o),
(409,146,c),
(425,103,o),
(431,48,o),
(439,0,c),
(572,0,l),
(566,89,o),
(533,176,o),
(496,233,c),
(542,306,o),
(564,392,o),
(567,494,c),
(640,494,l),
(640,597,l),
(-30,597,l),
(-30,494,l)
);
},
{
closed = 1;
nodes = (
(195,184,o),
(159,209,o),
(159,252,cs),
(159,289,o),
(183,319,o),
(239,319,cs),
(286,319,o),
(333,293,o),
(369,251,c),
(341,213,o),
(294,184,o),
(241,184,cs)
);
}
);
vertWidth = 1130;
width = 610;
},
{
layerId = master03;
shapes = (
{
closed = 1;
nodes = (
(449,539,l),
(447,437,o),
(419,356,o),
(396,305,c),
(355,367,o),
(294,416,o),
(203,416,cs),
(106,416,o),
(40,356,o),
(40,271,cs),
(40,178,o),
(117,127,o),
(208,127,cs),
(293,127,o),
(352,168,o),
(391,219,c),
(417,160,o),
(441,76,o),
(453,0,c),
(500,0,l),
(490,80,o),
(459,181,o),
(419,258,c),
(465,334,o),
(494,441,o),
(496,539,c),
(597,539,l),
(597,577,l),
(-30,577,l),
(-30,539,l)
);
},
{
closed = 1;
nodes = (
(141,167,o),
(89,203,o),
(89,271,cs),
(89,332,o),
(134,376,o),
(209,376,cs),
(266,376,o),
(334,340,o),
(373,264,c),
(340,207,o),
(280,167,o),
(213,167,cs)
);
}
);
vertWidth = 814;
width = 567;
},
{
layerId = master04;
shapes = (
{
closed = 1;
nodes = (
(443,527,l),
(441,441,o),
(420,361,o),
(399,311,c),
(357,373,o),
(293,417,o),
(207,417,cs),
(110,417,o),
(38,357,o),
(38,266,cs),
(38,164,o),
(121,116,o),
(210,116,cs),
(296,116,o),
(355,158,o),
(394,204,c),
(414,149,o),
(435,73,o),
(445,0,c),
(505,0,l),
(496,88,o),
(464,190,o),
(431,257,c),
(473,329,o),
(501,433,o),
(503,527,c),
(597,527,l),
(597,577,l),
(-30,577,l),
(-30,527,l)
);
},
{
closed = 1;
nodes = (
(146,167,o),
(99,202,o),
(99,266,cs),
(99,320,o),
(138,365,o),
(214,365,cs),
(272,365,o),
(334,331,o),
(374,259,c),
(343,210,o),
(286,167,o),
(217,167,cs)
);
}
);
vertWidth = 1130;
width = 567;
},
{
layerId = master05;
shapes = (
{
closed = 1;
nodes = (
(436,510,l),
(434,441,o),
(421,371,o),
(404,324,c),
(362,380,o),
(297,419,o),
(217,419,cs),
(113,419,o),
(33,358,o),
(33,259,cs),
(33,149,o),
(120,98,o),
(217,98,cs),
(301,98,o),
(363,136,o),
(401,177,c),
(415,129,o),
(430,64,o),
(437,0,c),
(526,0,l),
(519,94,o),
(485,191,o),
(457,248,c),
(497,318,o),
(522,415,o),
(524,510,c),
(608,510,l),
(608,582,l),
(-30,582,l),
(-30,510,l)
);
},
{
closed = 1;
nodes = (
(163,172,o),
(121,203,o),
(121,259,cs),
(121,303,o),
(153,345,o),
(224,345,cs),
(280,345,o),
(334,315,o),
(373,254,c),
(345,213,o),
(293,172,o),
(226,172,cs)
);
}
);
vertWidth = 1130;
width = 578;
},
{
layerId = master06;
shapes = (
{
closed = 1;
nodes = (
(437,515,l),
(435,444,o),
(421,367,o),
(404,318,c),
(360,378,o),
(293,418,o),
(212,418,cs),
(115,418,o),
(35,359,o),
(35,261,cs),
(35,149,o),
(125,104,o),
(213,104,cs),
(299,104,o),
(361,146,o),
(398,187,c),
(412,137,o),
(429,68,o),
(437,0,c),
(511,0,l),
(504,96,o),
(469,196,o),
(444,254,c),
(482,323,o),
(508,422,o),
(510,515,c),
(597,515,l),
(597,577,l),
(-30,577,l),
(-30,515,l)
);
},
{
closed = 1;
nodes = (
(152,168,o),
(109,201,o),
(109,261,cs),
(109,308,o),
(143,354,o),
(219,354,cs),
(277,354,o),
(335,322,o),
(375,255,c),
(346,213,o),
(293,168,o),
(221,168,cs)
);
}
);
width = 567;
},
{
layerId = master07;
shapes = (
{
closed = 1;
nodes = (
(436,504,l),
(434,436,o),
(422,376,o),
(407,332,c),
(365,383,o),
(301,421,o),
(223,421,cs),
(111,421,o),
(30,357,o),
(30,256,cs),
(30,148,o),
(115,91,o),
(223,91,cs),
(302,91,o),
(365,125,o),
(404,166,c),
(419,119,o),
(431,58,o),
(438,0,c),
(543,0,l),
(537,92,o),
(503,184,o),
(472,242,c),
(514,313,o),
(538,405,o),
(541,504,c),
(620,504,l),
(620,588,l),
(-30,588,l),
(-30,504,l)
);
},
{
closed = 1;
nodes = (
(175,176,o),
(135,205,o),
(135,256,cs),
(135,298,o),
(164,335,o),
(230,335,cs),
(282,335,o),
(334,307,o),
(372,253,c),
(344,213,o),
(293,176,o),
(232,176,cs)
);
}
);
vertWidth = 1130;
width = 590;
}
);
unicode = 2581;
},
{
glyphname = Kha;
lastChange = "2022-06-08 23:14:46 +0000";
layers = (
{
layerId = master01;
shapes = (
{
closed = 1;
nodes = (
(536,0,l),
(536,499,l),
(625,499,l),
(625,593,l),
(416,593,l),
(416,414,l),
(213,414,l),
(211,492,o),
(176,561,o),
(156,593,c),
(-30,593,l),
(-30,499,l),
(80,499,l),
(88,477,o),
(93,450,o),
(93,413,cs),
(93,350,o),
(74,288,o),
(39,229,c),
(90,137,o),
(185,91,o),
(295,91,cs),
(348,91,o),
(386,101,o),
(416,116,c),
(416,0,l)
);
},
{
closed = 1;
nodes = (
(244,186,o),
(191,205,o),
(168,238,c),
(184,266,o),
(196,296,o),
(203,328,c),
(416,328,l),
(416,221,l),
(388,200,o),
(351,186,o),
(300,186,cs)
);
}
);
vertWidth = 1130;
width = 605;
},
{
layerId = master02;
shapes = (
{
closed = 1;
nodes = (
(550,0,l),
(550,494,l),
(635,494,l),
(635,597,l),
(417,597,l),
(417,422,l),
(223,422,l),
(218,503,o),
(181,571,o),
(164,597,c),
(-30,597,l),
(-30,494,l),
(78,494,l),
(86,473,o),
(91,447,o),
(91,410,cs),
(91,350,o),
(74,287,o),
(38,229,c),
(94,130,o),
(192,87,o),
(303,87,cs),
(352,87,o),
(389,96,o),
(417,109,c),
(417,0,l)
);
},
{
closed = 1;
nodes = (
(255,192,o),
(202,209,o),
(180,239,c),
(196,267,o),
(208,297,o),
(215,329,c),
(417,329,l),
(417,221,l),
(390,204,o),
(355,192,o),
(309,192,cs)
);
}
);
vertWidth = 1130;
width = 615;
},
{
layerId = master03;
shapes = (
{
closed = 1;
nodes = (
(474,0,l),
(474,539,l),
(592,539,l),
(592,577,l),
(427,577,l),
(427,381,l),
(163,381,l),
(167,479,o),
(156,527,o),
(129,577,c),
(-30,577,l),
(-30,539,l),
(98,539,l),
(112,508,o),
(119,474,o),
(119,433,cs),
(119,358,o),
(88,291,o),
(53,238,c),
(88,166,o),
(169,117,o),
(265,117,cs),
(342,117,o),
(394,141,o),
(427,173,c),
(427,0,l)
);
},
{
closed = 1;
nodes = (
(201,157,o),
(131,193,o),
(107,239,c),
(126,269,o),
(144,303,o),
(155,343,c),
(427,343,l),
(427,233,l),
(403,193,o),
(347,157,o),
(268,157,cs)
);
}
);
vertWidth = 814;
width = 572;
},
{
layerId = master04;
shapes = (
{
closed = 1;
nodes = (
(479,0,l),
(479,527,l),
(592,527,l),
(592,577,l),
(419,577,l),
(419,384,l),
(168,384,l),
(171,476,o),
(157,527,o),
(129,577,c),
(-30,577,l),
(-30,527,l),
(91,527,l),
(103,498,o),
(110,465,o),
(110,428,cs),
(110,354,o),
(81,291,o),
(47,235,c),
(83,164,o),
(164,110,o),
(266,110,cs),
(336,110,o),
(386,130,o),
(419,156,c),
(419,0,l)
);
},
{
closed = 1;
nodes = (
(204,162,o),
(142,193,o),
(116,236,c),
(133,266,o),
(149,298,o),
(159,335,c),
(419,335,l),
(419,226,l),
(390,189,o),
(339,162,o),
(268,162,cs)
);
}
);
vertWidth = 1130;
width = 572;
},
{
layerId = master05;
shapes = (
{
closed = 1;
nodes = (
(501,0,l),
(501,510,l),
(602,510,l),
(602,582,l),
(412,582,l),
(412,396,l),
(186,396,l),
(187,477,o),
(164,537,o),
(138,582,c),
(-30,582,l),
(-30,510,l),
(82,510,l),
(92,485,o),
(98,454,o),
(98,420,cs),
(98,350,o),
(73,290,o),
(40,230,c),
(82,154,o),
(166,99,o),
(276,99,cs),
(336,99,o),
(380,113,o),
(412,132,c),
(412,0,l)
);
},
{
closed = 1;
nodes = (
(219,173,o),
(165,196,o),
(139,234,c),
(155,264,o),
(168,294,o),
(176,327,c),
(412,327,l),
(412,220,l),
(382,192,o),
(339,173,o),
(279,173,cs)
);
}
);
vertWidth = 1130;
width = 582;
},
{
layerId = master06;
shapes = (
{
closed = 1;
nodes = (
(485,0,l),
(485,515,l),
(591,515,l),
(591,577,l),
(411,577,l),
(411,387,l),
(173,387,l),
(175,472,o),
(158,527,o),
(129,577,c),
(-30,577,l),
(-30,515,l),
(83,515,l),
(93,489,o),
(101,456,o),
(101,423,cs),
(101,350,o),
(73,291,o),
(41,231,c),
(78,162,o),
(158,103,o),
(267,103,cs),
(331,103,o),
(378,119,o),
(411,141,c),
(411,0,l)
);
},
{
closed = 1;
nodes = (
(207,167,o),
(153,192,o),
(125,233,c),
(141,263,o),
(154,293,o),
(163,326,c),
(411,326,l),
(411,221,l),
(380,188,o),
(334,167,o),
(269,167,cs)
);
}
);
width = 571;
},
{
layerId = master07;
shapes = (
{
closed = 1;
nodes = (
(519,0,l),
(519,504,l),
(614,504,l),
(614,588,l),
(414,588,l),
(414,406,l),
(201,406,l),
(201,483,o),
(171,549,o),
(148,588,c),
(-30,588,l),
(-30,504,l),
(81,504,l),
(90,480,o),
(96,451,o),
(96,416,cs),
(96,350,o),
(74,289,o),
(39,230,c),
(86,145,o),
(176,95,o),
(286,95,cs),
(342,95,o),
(383,107,o),
(414,124,c),
(414,0,l)
);
},
{
closed = 1;
nodes = (
(232,180,o),
(179,201,o),
(154,236,c),
(170,265,o),
(183,295,o),
(191,328,c),
(414,328,l),
(414,220,l),
(385,196,o),
(345,180,o),
(290,180,cs)
);
}
);
vertWidth = 1130;
width = 594;
}
);
unicode = 2582;
},
{
glyphname = Ga;
layers = (
{
layerId = master01;
shapes = (
{
closed = 1;
nodes = (
(340,499,l),
(340,381,l),
(211,381,ls),
(110,381,o),
(31,338,o),
(31,218,cs),
(31,82,o),
(139,-11,o),
(271,-11,cs),
(385,-11,o),
(460,47,o),
(460,145,cs),
(460,499,l),
(588,499,l),
(588,0,l),
(708,0,l),
(708,499,l),
(797,499,l),
(797,593,l),
(-20,593,l),
(-20,499,l)
);
},
{
closed = 1;
nodes = (
(214,84,o),
(151,136,o),
(151,217,cs),
(151,260,o),
(175,286,o),
(223,286,cs),
(340,286,l),
(340,151,ls),
(340,106,o),
(314,84,o),
(271,84,cs)
);
}
);
vertWidth = 1130;
width = 777;
},
{
layerId = master02;
shapes = (
{
closed = 1;
nodes = (
(341,494,l),
(341,385,l),
(217,385,ls),
(112,385,o),
(28,344,o),
(28,219,cs),
(28,79,o),
(140,-12,o),
(276,-12,cs),
(394,-12,o),
(474,48,o),
(474,150,cs),
(474,494,l),
(594,494,l),
(594,0,l),
(727,0,l),
(727,494,l),
(812,494,l),
(812,597,l),
(-20,597,l),
(-20,494,l)
);
},
{
closed = 1;
nodes = (
(223,92,o),
(161,139,o),
(161,217,cs),
(161,259,o),
(184,281,o),
(228,281,cs),
(341,281,l),
(341,154,ls),
(341,113,o),
(316,92,o),
(276,92,cs)
);
}
);
vertWidth = 1130;
width = 792;
},
{
layerId = master03;
shapes = (
{
closed = 1;
nodes = (
(338,539,l),
(338,364,l),
(182,364,ls),
(94,364,o),
(43,310,o),
(43,227,cs),
(43,94,o),
(146,0,o),
(257,0,cs),
(337,0,o),
(385,40,o),
(385,113,cs),
(385,539,l),
(563,539,l),
(563,0,l),
(610,0,l),
(610,539,l),
(728,539,l),
(728,577,l),
(-20,577,l),
(-20,539,l)
);
},
{
closed = 1;
nodes = (
(177,41,o),
(92,116,o),
(92,225,cs),
(92,290,o),
(128,324,o),
(193,324,cs),
(338,324,l),
(338,115,ls),
(338,62,o),
(306,41,o),
(257,41,cs)
);
}
);
vertWidth = 814;
width = 708;
},
{
layerId = master04;
shapes = (
{
closed = 1;
nodes = (
(337,527,l),
(337,366,l),
(186,366,ls),
(99,366,o),
(42,312,o),
(42,222,cs),
(42,94,o),
(140,-3,o),
(256,-3,cs),
(344,-3,o),
(397,41,o),
(397,121,cs),
(397,527,l),
(564,527,l),
(564,0,l),
(624,0,l),
(624,527,l),
(737,527,l),
(737,577,l),
(-20,577,l),
(-20,527,l)
);
},
{
closed = 1;
nodes = (
(180,49,o),
(103,120,o),
(103,221,cs),
(103,278,o),
(136,314,o),
(199,314,cs),
(337,314,l),
(337,127,ls),
(337,72,o),
(306,49,o),
(256,49,cs)
);
}
);
vertWidth = 1130;
width = 717;
},
{
layerId = master05;
shapes = (
{
closed = 1;
nodes = (
(336,510,l),
(336,372,l),
(197,372,ls),
(107,372,o),
(38,322,o),
(38,217,cs),
(38,90,o),
(135,-8,o),
(259,-8,cs),
(362,-8,o),
(425,43,o),
(425,134,cs),
(425,510,l),
(573,510,l),
(573,0,l),
(662,0,l),
(662,510,l),
(762,510,l),
(762,582,l),
(-20,582,l),
(-20,510,l)
);
},
{
closed = 1;
nodes = (
(194,66,o),
(126,128,o),
(126,216,cs),
(126,263,o),
(154,298,o),
(211,298,cs),
(336,298,l),
(336,143,ls),
(336,90,o),
(308,66,o),
(260,66,cs)
);
}
);
vertWidth = 1130;
width = 742;
},
{
layerId = master06;
shapes = (
{
closed = 1;
nodes = (
(335,515,l),
(335,368,l),
(191,368,ls),
(105,368,o),
(41,315,o),
(41,216,cs),
(41,94,o),
(134,-7,o),
(254,-7,cs),
(352,-7,o),
(409,42,o),
(409,129,cs),
(409,515,l),
(566,515,l),
(566,0,l),
(640,0,l),
(640,515,l),
(746,515,l),
(746,577,l),
(-20,577,l),
(-20,515,l)
);
},
{
closed = 1;
nodes = (
(184,57,o),
(115,124,o),
(115,216,cs),
(115,265,o),
(144,304,o),
(205,304,cs),
(335,304,l),
(335,139,ls),
(335,83,o),
(305,57,o),
(255,57,cs)
);
}
);
width = 726;
},
{
layerId = master07;
shapes = (
{
closed = 1;
nodes = (
(338,504,l),
(338,377,l),
(205,377,ls),
(109,377,o),
(34,330,o),
(34,218,cs),
(34,86,o),
(137,-10,o),
(266,-10,cs),
(374,-10,o),
(443,45,o),
(443,140,cs),
(443,504,l),
(581,504,l),
(581,0,l),
(686,0,l),
(686,504,l),
(781,504,l),
(781,588,l),
(-20,588,l),
(-20,504,l)
);
},
{
closed = 1;
nodes = (
(205,76,o),
(139,132,o),
(139,217,cs),
(139,262,o),
(165,292,o),
(217,292,cs),
(338,292,l),
(338,147,ls),
(338,99,o),
(311,76,o),
(266,76,cs)
);
}
);
vertWidth = 1130;
width = 761;
}
);
unicode = 2583;
},
{
glyphname = Gha;
layers = (
{
layerId = master01;
shapes = (
{
closed = 1;
nodes = (
(-30,593,l),
(-30,499,l),
(80,499,l),
(89,472,o),
(92,447,o),
(92,414,cs),
(92,347,o),
(75,292,o),
(38,229,c),
(70,147,o),
(138,92,o),
(239,92,cs),
(310,92,o),
(361,116,o),
(390,155,c),
(418,114,o),
(463,96,o),
(511,96,cs),
(539,96,o),
(560,103,o),
(576,113,c),
(576,0,l),
(696,0,l),
(696,499,l),
(786,499,l),
(786,593,l),
(576,593,l),
(576,216,l),
(567,205,o),
(546,191,o),
(515,191,cs),
(478,191,o),
(446,212,o),
(443,243,c),
(445,319,o),
(450,511,o),
(450,535,cs),
(450,579,o),
(422,598,o),
(388,598,cs),
(365,598,o),
(339,591,o),
(325,584,c),
(330,241,l),
(325,206,o),
(287,187,o),
(247,187,cs),
(208,187,o),
(179,209,o),
(167,238,c),
(195,283,o),
(212,344,o),
(212,405,cs),
(212,478,o),
(186,550,o),
(164,593,c)
);
}
);
vertWidth = 1130;
width = 766;
},
{
layerId = master02;
shapes = (
{
closed = 1;
nodes = (
(-30,597,l),
(-30,494,l),
(78,494,l),
(87,467,o),
(90,443,o),
(90,409,cs),
(90,345,o),
(73,287,o),
(37,229,c),
(71,147,o),
(138,88,o),
(245,88,cs),
(317,88,o),
(371,112,o),
(401,153,c),
(430,110,o),
(475,93,o),
(522,93,cs),
(550,93,o),
(570,100,o),
(584,109,c),
(584,0,l),
(717,0,l),
(717,494,l),
(802,494,l),
(802,597,l),
(584,597,l),
(584,221,l),
(577,211,o),
(558,197,o),
(526,197,cs),
(493,197,o),
(462,217,o),
(459,246,c),
(461,322,o),
(467,509,o),
(467,534,cs),
(467,581,o),
(435,603,o),
(399,603,cs),
(372,603,o),
(342,595,o),
(327,587,c),
(332,243,l),
(328,209,o),
(291,192,o),
(253,192,cs),
(216,192,o),
(190,214,o),
(179,239,c),
(207,281,o),
(223,344,o),
(223,400,cs),
(223,478,o),
(195,553,o),
(173,597,c)
);
}
);
vertWidth = 1130;
width = 782;
},
{
layerId = master03;
shapes = (
{
closed = 1;
nodes = (
(-30,577,l),
(-30,539,l),
(95,539,l),
(105,515,o),
(117,479,o),
(117,436,cs),
(117,367,o),
(100,304,o),
(59,233,c),
(85,167,o),
(146,124,o),
(226,124,cs),
(284,124,o),
(331,151,o),
(352,188,c),
(374,151,o),
(421,124,o),
(473,124,cs),
(510,124,o),
(541,135,o),
(563,155,c),
(563,0,l),
(610,0,l),
(610,539,l),
(728,539,l),
(728,577,l),
(563,577,l),
(563,208,l),
(548,181,o),
(515,165,o),
(476,165,cs),
(426,165,o),
(379,196,o),
(373,233,c),
(373,233,o),
(377,525,o),
(377,552,cs),
(377,572,o),
(364,580,o),
(350,580,cs),
(342,580,o),
(329,578,o),
(321,572,c),
(329,234,l),
(324,193,o),
(278,165,o),
(227,165,cs),
(170,165,o),
(127,199,o),
(112,233,c),
(143,293,o),
(165,348,o),
(165,433,cs),
(165,490,o),
(144,545,o),
(126,577,c)
);
}
);
vertWidth = 814;
width = 708;
},
{
layerId = master04;
shapes = (
{
closed = 1;
nodes = (
(-30,577,l),
(-30,527,l),
(91,527,l),
(100,503,o),
(109,470,o),
(109,433,cs),
(109,361,o),
(92,307,o),
(50,232,c),
(76,158,o),
(141,114,o),
(222,114,cs),
(282,114,o),
(329,139,o),
(353,176,c),
(377,140,o),
(422,116,o),
(473,116,cs),
(507,116,o),
(535,125,o),
(556,141,c),
(556,0,l),
(616,0,l),
(616,527,l),
(728,527,l),
(728,577,l),
(556,577,l),
(556,205,l),
(541,182,o),
(512,168,o),
(476,168,cs),
(426,168,o),
(387,195,o),
(380,229,c),
(380,266,o),
(384,520,o),
(384,545,c),
(383,572,o),
(369,581,o),
(350,581,cs),
(341,581,o),
(329,578,o),
(319,572,c),
(325,235,l),
(321,194,o),
(275,166,o),
(226,166,cs),
(175,166,o),
(133,196,o),
(118,233,c),
(148,292,o),
(170,346,o),
(170,428,cs),
(170,484,o),
(149,543,o),
(130,577,c)
);
}
);
vertWidth = 1130;
width = 708;
},
{
layerId = master05;
shapes = (
{
closed = 1;
nodes = (
(-30,582,l),
(-30,510,l),
(83,510,l),
(93,484,o),
(98,457,o),
(98,425,cs),
(98,352,o),
(80,304,o),
(40,230,c),
(68,148,o),
(136,100,o),
(225,100,cs),
(290,100,o),
(338,123,o),
(365,160,c),
(391,123,o),
(435,104,o),
(485,104,cs),
(516,104,o),
(540,111,o),
(558,124,c),
(558,0,l),
(646,0,l),
(646,510,l),
(747,510,l),
(747,582,l),
(558,582,l),
(558,208,l),
(545,191,o),
(521,178,o),
(488,178,cs),
(442,178,o),
(410,202,o),
(405,233,c),
(406,307,o),
(410,514,o),
(410,537,c),
(409,574,o),
(390,587,o),
(362,587,cs),
(348,587,o),
(331,582,o),
(319,576,c),
(324,235,l),
(319,197,o),
(276,174,o),
(231,174,cs),
(190,174,o),
(152,197,o),
(138,234,c),
(167,288,o),
(187,343,o),
(187,417,cs),
(187,477,o),
(165,543,o),
(144,582,c)
);
}
);
vertWidth = 1130;
width = 727;
},
{
layerId = master06;
shapes = (
{
closed = 1;
nodes = (
(-30,577,l),
(-30,515,l),
(86,515,l),
(95,491,o),
(101,461,o),
(101,430,cs),
(101,355,o),
(83,310,o),
(41,231,c),
(67,149,o),
(136,104,o),
(218,104,cs),
(281,104,o),
(327,126,o),
(354,163,c),
(379,128,o),
(422,108,o),
(473,108,cs),
(505,108,o),
(529,115,o),
(549,128,c),
(549,0,l),
(623,0,l),
(623,515,l),
(729,515,l),
(729,577,l),
(549,577,l),
(549,203,l),
(535,185,o),
(509,172,o),
(476,172,cs),
(424,172,o),
(392,198,o),
(387,230,c),
(388,306,o),
(391,516,o),
(391,538,c),
(390,572,o),
(375,582,o),
(350,582,cs),
(340,582,o),
(328,578,o),
(317,572,c),
(321,235,l),
(317,195,o),
(273,168,o),
(224,168,cs),
(181,168,o),
(139,192,o),
(125,233,c),
(154,290,o),
(175,343,o),
(175,423,cs),
(175,477,o),
(155,540,o),
(134,577,c)
);
}
);
width = 709;
},
{
layerId = master07;
shapes = (
{
closed = 1;
nodes = (
(-30,588,l),
(-30,504,l),
(82,504,l),
(91,478,o),
(95,452,o),
(95,419,cs),
(95,350,o),
(78,298,o),
(39,230,c),
(69,148,o),
(137,96,o),
(232,96,cs),
(300,96,o),
(350,119,o),
(378,158,c),
(406,118,o),
(450,100,o),
(499,100,cs),
(529,100,o),
(551,107,o),
(568,118,c),
(568,0,l),
(673,0,l),
(673,504,l),
(768,504,l),
(768,588,l),
(568,588,l),
(568,213,l),
(558,199,o),
(535,185,o),
(502,185,cs),
(462,185,o),
(431,206,o),
(426,236,c),
(427,308,o),
(431,512,o),
(431,536,cs),
(431,577,o),
(407,593,o),
(376,593,cs),
(357,593,o),
(335,587,o),
(322,580,c),
(327,238,l),
(322,202,o),
(282,181,o),
(239,181,cs),
(200,181,o),
(166,204,o),
(154,236,c),
(182,285,o),
(200,344,o),
(200,411,cs),
(200,478,o),
(176,547,o),
(155,588,c)
);
}
);
vertWidth = 1130;
width = 748;
}
);
unicode = 2584;
},
{
glyphname = Nga;
layers = (
{
layerId = master01;
shapes = (
{
closed = 1;
nodes = (
(65,499,l),
(65,324,l),
(320,324,ls),
(374,324,o),
(408,298,o),
(408,244,cs),
(408,209,o),
(391,176,o),
(366,153,c),
(327,206,o),
(267,261,o),
(181,261,cs),
(91,261,o),
(40,209,o),
(40,144,cs),
(40,67,o),
(106,8,o),
(224,8,cs),
(271,8,o),
(309,15,o),
(343,28,c),
(401,-63,l),
(489,-6,l),
(430,67,l),
(479,102,o),
(529,168,o),
(529,245,cs),
(529,357,o),
(460,419,o),
(324,419,cs),
(183,419,l),
(183,499,l),
(586,499,l),
(586,593,l),
(-30,593,l),
(-30,499,l)
);
},
{
closed = 1;
nodes = (
(178,100,o),
(151,118,o),
(151,144,cs),
(151,164,o),
(164,178,o),
(191,178,cs),
(226,178,o),
(258,152,o),
(287,112,c),
(267,103,o),
(245,100,o),
(224,100,cs)
);
}
);
vertWidth = 1130;
width = 566;
},
{
layerId = master02;
shapes = (
{
closed = 1;
nodes = (
(64,494,l),
(64,318,l),
(326,318,ls),
(375,318,o),
(408,295,o),
(408,242,cs),
(408,213,o),
(393,183,o),
(370,160,c),
(333,209,o),
(272,264,o),
(184,264,cs),
(91,264,o),
(39,209,o),
(39,144,cs),
(39,67,o),
(105,5,o),
(226,5,cs),
(273,5,o),
(313,12,o),
(346,24,c),
(407,-68,l),
(502,-5,l),
(442,67,l),
(490,100,o),
(542,168,o),
(542,244,cs),
(542,358,o),
(472,422,o),
(330,422,cs),
(195,422,l),
(195,494,l),
(595,494,l),
(595,597,l),
(-30,597,l),
(-30,494,l)
);
},
{
closed = 1;
nodes = (
(187,105,o),
(161,120,o),
(161,144,cs),
(161,162,o),
(173,174,o),
(196,174,cs),
(226,174,o),
(256,152,o),
(285,116,c),
(265,108,o),
(245,105,o),
(226,105,cs)
);
}
);
vertWidth = 1130;
width = 575;
},
{
layerId = master03;
shapes = (
{
closed = 1;
nodes = (
(82,539,l),
(82,370,l),
(309,370,ls),
(391,370,o),
(436,328,o),
(436,255,cs),
(436,192,o),
(402,140,o),
(362,111,c),
(309,192,o),
(251,247,o),
(168,247,cs),
(105,247,o),
(59,208,o),
(59,152,cs),
(59,79,o),
(125,29,o),
(230,29,cs),
(282,29,o),
(318,41,o),
(350,55,c),
(400,-40,l),
(441,-21,l),
(383,73,l),
(432,106,o),
(485,165,o),
(485,254,cs),
(485,343,o),
(429,410,o),
(310,410,cs),
(129,410,l),
(129,539,l),
(559,539,l),
(559,577,l),
(-30,577,l),
(-30,539,l)
);
},
{
closed = 1;
nodes = (
(151,69,o),
(107,105,o),
(107,150,cs),
(107,183,o),
(131,207,o),
(170,207,cs),
(236,207,o),
(288,153,o),
(328,89,c),
(304,78,o),
(275,69,o),
(234,69,cs)
);
}
);
vertWidth = 814;
width = 539;
},
{
layerId = master04;
shapes = (
{
closed = 1;
nodes = (
(75,527,l),
(75,358,l),
(304,358,ls),
(381,358,o),
(423,318,o),
(423,252,cs),
(423,192,o),
(392,145,o),
(356,118,c),
(306,195,o),
(250,249,o),
(168,249,cs),
(99,249,o),
(51,208,o),
(51,148,cs),
(51,73,o),
(118,24,o),
(224,24,cs),
(271,24,o),
(305,34,o),
(339,47,c),
(389,-43,l),
(441,-16,l),
(384,71,l),
(435,106,o),
(484,165,o),
(484,252,cs),
(484,348,o),
(423,410,o),
(306,410,cs),
(134,410,l),
(134,527,l),
(556,527,l),
(556,577,l),
(-30,577,l),
(-30,527,l)
);
},
{
closed = 1;
nodes = (
(149,75,o),
(111,108,o),
(111,147,cs),
(111,177,o),
(131,200,o),
(171,200,cs),
(231,200,o),
(276,150,o),
(313,92,c),
(289,82,o),
(262,75,o),
(227,75,cs)
);
}
);
vertWidth = 1130;
width = 536;
},
{
layerId = master05;
shapes = (
{
closed = 1;
nodes = (
(66,510,l),
(66,339,l),
(306,339,ls),
(371,339,o),
(409,305,o),
(409,247,cs),
(409,198,o),
(385,159,o),
(355,134,c),
(312,200,o),
(255,254,o),
(173,254,cs),
(92,254,o),
(41,207,o),
(41,144,cs),
(41,67,o),
(109,15,o),
(219,15,cs),
(264,15,o),
(298,23,o),
(334,36,c),
(386,-51,l),
(458,-9,l),
(400,69,l),
(451,106,o),
(498,167,o),
(498,248,cs),
(498,354,o),
(431,413,o),
(309,413,cs),
(153,413,l),
(153,510,l),
(563,510,l),
(563,582,l),
(-30,582,l),
(-30,510,l)
);
},
{
closed = 1;
nodes = (
(157,88,o),
(127,114,o),
(127,144,cs),
(127,168,o),
(142,187,o),
(179,187,cs),
(225,187,o),
(262,149,o),
(294,102,c),
(271,92,o),
(248,88,o),
(221,88,cs)
);
}
);
vertWidth = 1130;
width = 543;
},
{
layerId = master06;
shapes = (
{
closed = 1;
nodes = (
(67,515,l),
(67,346,l),
(299,346,ls),
(370,346,o),
(409,308,o),
(409,249,cs),
(409,192,o),
(381,150,o),
(349,125,c),
(304,198,o),
(249,251,o),
(169,251,cs),
(93,251,o),
(42,207,o),
(42,144,cs),
(42,67,o),
(111,18,o),
(217,18,cs),
(261,18,o),
(292,26,o),
(328,39,c),
(378,-46,l),
(442,-11,l),
(386,69,l),
(438,106,o),
(483,166,o),
(483,249,cs),
(483,353,o),
(417,410,o),
(302,410,cs),
(139,410,l),
(139,515,l),
(552,515,l),
(552,577,l),
(-30,577,l),
(-30,515,l)
);
},
{
closed = 1;
nodes = (
(147,82,o),
(116,112,o),
(116,144,cs),
(116,170,o),
(132,192,o),
(173,192,cs),
(226,192,o),
(264,148,o),
(297,97,c),
(272,88,o),
(249,82,o),
(219,82,cs)
);
}
);
width = 532;
},
{
layerId = master07;
shapes = (
{
closed = 1;
nodes = (
(65,504,l),
(65,331,l),
(313,331,ls),
(373,331,o),
(408,301,o),
(408,245,cs),
(408,203,o),
(388,168,o),
(361,144,c),
(321,204,o),
(262,258,o),
(177,258,cs),
(92,258,o),
(40,208,o),
(40,144,cs),
(40,67,o),
(108,11,o),
(222,11,cs),
(268,11,o),
(305,19,o),
(339,32,c),
(394,-57,l),
(474,-7,l),
(416,68,l),
(466,103,o),
(514,168,o),
(514,246,cs),
(514,356,o),
(446,416,o),
(317,416,cs),
(169,416,l),
(169,504,l),
(575,504,l),
(575,588,l),
(-30,588,l),
(-30,504,l)
);
},
{
closed = 1;
nodes = (
(168,94,o),
(140,116,o),
(140,144,cs),
(140,166,o),
(154,182,o),
(185,182,cs),
(226,182,o),
(260,151,o),
(291,107,c),
(269,98,o),
(246,94,o),
(223,94,cs)
);
}
);
vertWidth = 1130;
width = 555;
}
);
unicode = 2585;
},
{
glyphname = Ca;
layers = (
{
layerId = master01;
shapes = (
{
closed = 1;
nodes = (
(434,499,l),
(434,356,l),
(205,356,l),
(205,419,l),
(192,430,o),
(170,438,o),
(144,438,cs),
(74,438,o),
(20,390,o),
(20,331,cs),
(20,286,o),
(51,264,o),
(86,257,c),
(97,72,o),
(219,-11,o),
(360,-11,cs),
(487,-11,o),
(588,56,o),
(588,184,cs),
(588,228,o),
(571,267,o),
(553,300,c),
(553,499,l),
(645,499,l),
(645,593,l),
(-20,593,l),
(-20,499,l)
);
},
{
closed = 1;
nodes = (
(468,124,o),
(426,84,o),
(360,84,cs),
(275,84,o),
(209,150,o),
(205,262,c),
(447,262,l),
(459,241,o),
(468,216,o),
(468,185,cs)
);
}
);
vertWidth = 1130;
width = 625;
},
{
layerId = master02;
shapes = (
{
closed = 1;
nodes = (
(434,494,l),
(434,362,l),
(218,362,l),
(218,425,l),
(204,437,o),
(180,445,o),
(151,445,cs),
(76,445,o),
(18,395,o),
(18,333,cs),
(18,282,o),
(52,260,o),
(87,253,c),
(98,70,o),
(223,-12,o),
(367,-12,cs),
(500,-12,o),
(602,58,o),
(602,186,cs),
(602,231,o),
(583,272,o),
(566,307,c),
(566,494,l),
(654,494,l),
(654,597,l),
(-20,597,l),
(-20,494,l)
);
},
{
closed = 1;
nodes = (
(469,131,o),
(431,92,o),
(366,92,cs),
(286,92,o),
(221,155,o),
(218,259,c),
(450,259,l),
(461,239,o),
(469,216,o),
(469,186,cs)
);
}
);
vertWidth = 1130;
width = 634;
},
{
layerId = master03;
shapes = (
{
closed = 1;
nodes = (
(449,539,l),
(449,336,l),
(138,336,l),
(138,403,l),
(129,407,o),
(119,410,o),
(105,410,cs),
(67,410,o),
(30,378,o),
(30,342,cs),
(30,309,o),
(54,295,o),
(89,295,c),
(95,92,o),
(195,-5,o),
(338,-5,cs),
(443,-5,o),
(539,48,o),
(539,170,cs),
(539,228,o),
(521,279,o),
(496,316,c),
(496,539,l),
(619,539,l),
(619,577,l),
(-20,577,l),
(-20,539,l)
);
},
{
closed = 1;
nodes = (
(490,79,o),
(419,36,o),
(340,36,cs),
(230,36,o),
(144,116,o),
(138,296,c),
(455,296,l),
(476,264,o),
(490,222,o),
(490,174,cs)
);
}
);
vertWidth = 814;
width = 599;
},
{
layerId = master04;
shapes = (
{
closed = 1;
nodes = (
(441,527,l),
(441,336,l),
(148,336,l),
(148,402,l),
(139,407,o),
(127,411,o),
(112,411,cs),
(67,411,o),
(28,376,o),
(28,334,cs),
(28,304,o),
(51,286,o),
(86,284,c),
(94,87,o),
(201,-6,o),
(337,-6,cs),
(443,-6,o),
(539,49,o),
(539,174,cs),
(539,224,o),
(522,270,o),
(500,304,c),
(500,527,l),
(617,527,l),
(617,577,l),
(-20,577,l),
(-20,527,l)
);
},
{
closed = 1;
nodes = (
(478,88,o),
(415,46,o),
(339,46,cs),
(234,46,o),
(154,125,o),
(147,285,c),
(447,285,l),
(464,258,o),
(478,219,o),
(478,177,cs)
);
}
);
vertWidth = 1130;
width = 597;
},
{
layerId = master05;
shapes = (
{
closed = 1;
nodes = (
(432,510,l),
(432,343,l),
(174,343,l),
(174,406,l),
(163,414,o),
(146,420,o),
(128,420,cs),
(68,420,o),
(24,379,o),
(24,328,cs),
(24,294,o),
(48,272,o),
(84,267,c),
(94,78,o),
(211,-8,o),
(343,-8,cs),
(457,-8,o),
(554,52,o),
(554,180,cs),
(554,222,o),
(539,263,o),
(520,294,c),
(520,510,l),
(625,510,l),
(625,582,l),
(-20,582,l),
(-20,510,l)
);
},
{
closed = 1;
nodes = (
(465,105,o),
(415,66,o),
(344,66,cs),
(249,66,o),
(179,140,o),
(172,269,c),
(441,269,l),
(454,246,o),
(465,216,o),
(465,181,cs)
);
}
);
vertWidth = 1130;
width = 605;
},
{
layerId = master06;
shapes = (
{
closed = 1;
nodes = (
(432,515,l),
(432,337,l),
(159,337,l),
(159,400,l),
(149,406,o),
(135,412,o),
(120,412,cs),
(66,412,o),
(26,374,o),
(26,326,cs),
(26,298,o),
(47,276,o),
(83,272,c),
(93,81,o),
(207,-7,o),
(335,-7,cs),
(443,-7,o),
(538,50,o),
(538,178,cs),
(538,220,o),
(523,259,o),
(505,289,c),
(505,515,l),
(615,515,l),
(615,577,l),
(-20,577,l),
(-20,515,l)
);
},
{
closed = 1;
nodes = (
(464,97,o),
(410,57,o),
(337,57,cs),
(237,57,o),
(166,135,o),
(157,273,c),
(438,273,l),
(451,250,o),
(464,216,o),
(464,180,cs)
);
}
);
width = 595;
},
{
layerId = master07;
shapes = (
{
closed = 1;
nodes = (
(433,504,l),
(433,350,l),
(190,350,l),
(190,413,l),
(178,422,o),
(159,429,o),
(136,429,cs),
(71,429,o),
(22,385,o),
(22,330,cs),
(22,290,o),
(50,268,o),
(85,262,c),
(96,75,o),
(215,-10,o),
(352,-10,cs),
(473,-10,o),
(572,54,o),
(572,182,cs),
(572,226,o),
(555,266,o),
(537,299,c),
(537,504,l),
(636,504,l),
(636,588,l),
(-20,588,l),
(-20,504,l)
);
},
{
closed = 1;
nodes = (
(467,115,o),
(421,76,o),
(352,76,cs),
(262,76,o),
(195,146,o),
(189,266,c),
(444,266,l),
(456,245,o),
(467,217,o),
(467,183,cs)
);
}
);
vertWidth = 1130;
width = 616;
}
);
unicode = 2586;
},
{
glyphname = Cha;
lastChange = "2022-06-07 15:02:57 +0000";
layers = (
{
layerId = master01;
shapes = (
{
closed = 1;
nodes = (
(381,0,ls),
(514,0,o),
(564,56,o),
(564,138,cs),
(564,217,o),
(510,270,o),
(396,270,cs),
(204,270,l),
(173,272,o),
(162,292,o),
(162,309,cs),
(162,330,o),
(178,343,o),
(203,343,cs),
(522,343,l),
(522,499,l),
(617,499,l),
(617,593,l),
(-20,593,l),
(-20,499,l),
(404,499,l),
(404,434,l),
(183,434,ls),
(97,434,o),
(42,388,o),
(42,317,cs),
(42,273,o),
(69,242,o),
(96,228,c),
(64,210,o),
(44,175,o),
(44,135,cs),
(44,52,o),
(104,0,o),
(235,0,cs)
);
},
{
closed = 1;
nodes = (
(184,85,o),
(157,106,o),
(157,141,cs),
(157,170,o),
(179,189,o),
(206,189,cs),
(250,189,o),
(279,148,o),
(286,85,c),
(232,85,ls)
);
},
{
closed = 1;
nodes = (
(360,133,o),
(342,171,o),
(318,186,c),
(386,186,ls),
(428,186,o),
(451,165,o),
(451,136,cs),
(451,102,o),
(430,86,o),
(387,86,cs),
(364,86,l)
);
}
);
vertWidth = 1130;
width = 597;
},
{
layerId = master02;
shapes = (
{
closed = 1;
nodes = (
(386,0,ls),
(525,0,o),
(573,58,o),
(573,140,cs),
(573,219,o),
(521,274,o),
(402,274,cs),
(212,274,l),
(180,276,o),
(173,295,o),
(173,309,cs),
(173,328,o),
(187,339,o),
(208,339,cs),
(531,339,l),
(531,494,l),
(623,494,l),
(623,597,l),
(-20,597,l),
(-20,494,l),
(400,494,l),
(400,438,l),
(184,438,ls),
(96,438,o),
(40,391,o),
(40,319,cs),
(40,275,o),
(65,244,o),
(93,229,c),
(61,211,o),
(42,175,o),
(42,136,cs),
(42,54,o),
(102,0,o),
(237,0,cs)
);
},
{
closed = 1;
nodes = (
(191,92,o),
(167,111,o),
(167,142,cs),
(167,168,o),
(186,186,o),
(212,186,cs),
(250,186,o),
(279,152,o),
(288,92,c),
(233,92,ls)
);
},
{
closed = 1;
nodes = (
(365,136,o),
(346,172,o),
(325,183,c),
(388,183,ls),
(427,183,o),
(449,165,o),
(449,138,cs),
(449,106,o),
(430,93,o),
(393,93,cs),
(370,93,l)
);
}
);
vertWidth = 1130;
width = 603;
},
{
layerId = master03;
shapes = (
{
closed = 1;
nodes = (
(366,0,ls),
(461,0,o),
(515,46,o),
(515,118,cs),
(515,194,o),
(456,239,o),
(368,239,cs),
(184,239,l),
(133,242,o),
(110,271,o),
(110,308,cs),
(110,345,o),
(134,372,o),
(192,372,cs),
(483,372,l),
(483,539,l),
(593,539,l),
(593,577,l),
(-20,577,l),
(-20,539,l),
(436,539,l),
(436,412,l),
(191,412,ls),
(115,412,o),
(61,378,o),
(61,309,cs),
(61,262,o),
(90,231,o),
(126,219,c),
(89,207,o),
(58,171,o),
(58,123,cs),
(58,50,o),
(115,0,o),
(215,0,cs)
);
},
{
closed = 1;
nodes = (
(144,39,o),
(106,73,o),
(106,126,cs),
(106,179,o),
(146,201,o),
(179,201,cs),
(253,201,o),
(286,138,o),
(290,39,c),
(224,39,ls)
);
},
{
closed = 1;
nodes = (
(329,146,o),
(292,182,o),
(268,200,c),
(369,200,ls),
(433,200,o),
(467,162,o),
(467,121,cs),
(467,66,o),
(428,39,o),
(366,39,cs),
(335,39,l)
);
}
);
vertWidth = 814;
width = 573;
},
{
layerId = master04;
shapes = (
{
closed = 1;
nodes = (
(365,0,ls),
(468,0,o),
(522,48,o),
(522,123,cs),
(522,203,o),
(464,248,o),
(371,248,cs),
(178,248,ls),
(139,248,o),
(117,275,o),
(117,308,cs),
(117,341,o),
(139,365,o),
(188,365,cs),
(486,365,l),
(486,527,l),
(594,527,l),
(594,577,l),
(-20,577,l),
(-20,527,l),
(427,527,l),
(427,416,l),
(185,416,ls),
(108,416,o),
(56,378,o),
(56,309,cs),
(56,262,o),
(86,233,o),
(118,221,c),
(82,208,o),
(54,172,o),
(54,127,cs),
(54,48,o),
(113,0,o),
(222,0,cs)
);
},
{
closed = 1;
nodes = (
(151,50,o),
(114,81,o),
(114,131,cs),
(114,178,o),
(149,200,o),
(182,200,cs),
(252,200,o),
(282,135,o),
(285,50,c),
(226,50,ls)
);
},
{
closed = 1;
nodes = (
(335,135,o),
(309,175,o),
(280,199,c),
(373,199,ls),
(432,199,o),
(462,164,o),
(462,126,cs),
(462,76,o),
(429,50,o),
(366,50,cs),
(339,50,l)
);
}
);
vertWidth = 1130;
width = 574;
},
{
layerId = master05;
shapes = (
{
closed = 1;
nodes = (
(369,0,ls),
(488,0,o),
(541,52,o),
(541,132,cs),
(541,214,o),
(485,261,o),
(382,261,cs),
(188,261,ls),
(157,261,o),
(136,283,o),
(136,307,cs),
(136,335,o),
(155,352,o),
(190,352,cs),
(500,352,l),
(500,510,l),
(603,510,l),
(603,582,l),
(-20,582,l),
(-20,510,l),
(413,510,l),
(413,424,l),
(180,424,ls),
(99,424,o),
(47,382,o),
(47,312,cs),
(47,267,o),
(75,238,o),
(103,225,c),
(70,208,o),
(47,173,o),
(47,132,cs),
(47,48,o),
(108,0,o),
(232,0,cs)
);
},
{
closed = 1;
nodes = (
(166,69,o),
(134,95,o),
(134,137,cs),
(134,174,o),
(161,195,o),
(192,195,cs),
(250,195,o),
(278,137,o),
(282,69,c),
(229,69,ls)
);
},
{
closed = 1;
nodes = (
(348,127,o),
(332,169,o),
(302,193,c),
(380,193,ls),
(429,193,o),
(454,166,o),
(454,133,cs),
(454,92,o),
(431,70,o),
(373,70,cs),
(350,70,l)
);
}
);
vertWidth = 1130;
width = 583;
},
{
layerId = master06;
shapes = (
{
closed = 1;
nodes = (
(364,0,ls),
(476,0,o),
(530,50,o),
(530,129,cs),
(530,212,o),
(473,257,o),
(375,257,cs),
(173,257,l),
(146,259,o),
(124,280,o),
(124,307,cs),
(124,337,o),
(144,357,o),
(184,357,cs),
(490,357,l),
(490,515,l),
(596,515,l),
(596,577,l),
(-20,577,l),
(-20,515,l),
(417,515,l),
(417,420,l),
(179,420,ls),
(100,420,o),
(50,379,o),
(50,310,cs),
(50,264,o),
(80,236,o),
(107,224,c),
(73,208,o),
(49,173,o),
(49,131,cs),
(49,46,o),
(110,0,o),
(230,0,cs)
);
},
{
closed = 1;
nodes = (
(158,62,o),
(123,90,o),
(123,136,cs),
(123,176,o),
(153,198,o),
(186,198,cs),
(250,198,o),
(278,132,o),
(280,62,c),
(228,62,ls)
);
},
{
closed = 1;
nodes = (
(342,124,o),
(328,168,o),
(294,197,c),
(378,197,ls),
(430,197,o),
(456,167,o),
(456,131,cs),
(456,87,o),
(431,62,o),
(367,62,cs),
(344,62,l)
);
}
);
width = 576;
},
{
layerId = master07;
shapes = (
{
closed = 1;
nodes = (
(376,0,ls),
(502,0,o),
(553,54,o),
(553,135,cs),
(553,216,o),
(498,266,o),
(389,266,cs),
(194,266,l),
(164,268,o),
(150,288,o),
(150,308,cs),
(150,332,o),
(167,347,o),
(197,347,cs),
(512,347,l),
(512,504,l),
(610,504,l),
(610,588,l),
(-20,588,l),
(-20,504,l),
(408,504,l),
(408,430,l),
(182,430,ls),
(98,430,o),
(45,385,o),
(45,315,cs),
(45,270,o),
(72,240,o),
(100,227,c),
(67,209,o),
(45,175,o),
(45,134,cs),
(45,50,o),
(106,0,o),
(234,0,cs)
);
},
{
closed = 1;
nodes = (
(175,78,o),
(146,101,o),
(146,139,cs),
(146,172,o),
(170,192,o),
(200,192,cs),
(250,192,o),
(279,143,o),
(284,78,c),
(231,78,ls)
);
},
{
closed = 1;
nodes = (
(354,130,o),
(338,170,o),
(310,190,c),
(383,190,ls),
(428,190,o),
(452,166,o),
(452,135,cs),
(452,97,o),
(430,78,o),
(381,78,cs),
(358,78,l)
);
}
);
vertWidth = 1130;
width = 590;
}
);
unicode = 2587;
},
{
glyphname = Ja;
layers = (
{
layerId = master01;
shapes = (
{
closed = 1;
nodes = (
(427,499,l),
(427,334,l),
(219,334,l),
(219,397,l),
(207,407,o),
(185,415,o),
(154,415,cs),
(90,415,o),
(31,372,o),
(31,308,cs),
(31,260,o),
(68,239,o),
(99,234,c),
(99,0,l),
(219,0,l),
(219,238,l),
(427,238,l),
(427,0,l),
(547,0,l),
(547,499,l),
(637,499,l),
(637,593,l),
(-20,593,l),
(-20,499,l)
);
}
);
vertWidth = 1130;
width = 617;
},
{
layerId = master02;
shapes = (
{
closed = 1;
nodes = (
(428,494,l),
(428,336,l),
(231,336,l),
(231,399,l),
(218,410,o),
(194,419,o),
(161,419,cs),
(92,419,o),
(29,374,o),
(29,305,cs),
(29,254,o),
(68,232,o),
(98,227,c),
(98,0,l),
(231,0,l),
(231,232,l),
(428,232,l),
(428,0,l),
(561,0,l),
(561,494,l),
(646,494,l),
(646,597,l),
(-20,597,l),
(-20,494,l)
);
}
);
vertWidth = 1130;
width = 626;
},
{
layerId = master03;
shapes = (
{
closed = 1;
nodes = (
(440,539,l),
(440,328,l),
(158,328,l),
(158,394,l),
(149,398,o),
(139,401,o),
(125,401,cs),
(87,401,o),
(50,369,o),
(50,333,cs),
(50,299,o),
(76,286,o),
(111,286,c),
(111,0,l),
(158,0,l),
(158,288,l),
(440,288,l),
(440,0,l),
(487,0,l),
(487,539,l),
(605,539,l),
(605,577,l),
(-20,577,l),
(-20,539,l)
);
}
);
vertWidth = 814;
width = 585;
},
{
layerId = master04;
shapes = (
{
closed = 1;
nodes = (
(433,527,l),
(433,327,l),
(167,327,l),
(167,392,l),
(157,398,o),
(146,401,o),
(126,401,cs),
(85,401,o),
(45,367,o),
(45,325,cs),
(45,290,o),
(72,275,o),
(107,274,c),
(107,0,l),
(167,0,l),
(167,275,l),
(433,275,l),
(433,0,l),
(493,0,l),
(493,527,l),
(605,527,l),
(605,577,l),
(-20,577,l),
(-20,527,l)
);
}
);
vertWidth = 1130;
width = 585;
},
{
layerId = master05;
shapes = (
{
closed = 1;
nodes = (
(426,510,l),
(426,328,l),
(190,328,l),
(190,392,l),
(179,400,o),
(163,405,o),
(136,405,cs),
(85,405,o),
(37,366,o),
(37,314,cs),
(37,273,o),
(68,255,o),
(102,252,c),
(102,0,l),
(190,0,l),
(190,254,l),
(426,254,l),
(426,0,l),
(514,0,l),
(514,510,l),
(615,510,l),
(615,582,l),
(-20,582,l),
(-20,510,l)
);
}
);
vertWidth = 1130;
width = 595;
},
{
layerId = master06;
shapes = (
{
closed = 1;
nodes = (
(425,515,l),
(425,325,l),
(177,325,l),
(177,390,l),
(166,397,o),
(153,401,o),
(128,401,cs),
(83,401,o),
(40,364,o),
(40,317,cs),
(40,280,o),
(68,263,o),
(103,260,c),
(103,0,l),
(177,0,l),
(177,261,l),
(425,261,l),
(425,0,l),
(499,0,l),
(499,515,l),
(605,515,l),
(605,577,l),
(-20,577,l),
(-20,515,l)
);
}
);
width = 585;
},
{
layerId = master07;
shapes = (
{
closed = 1;
nodes = (
(427,504,l),
(427,331,l),
(206,331,l),
(206,395,l),
(194,404,o),
(175,411,o),
(145,411,cs),
(88,411,o),
(34,369,o),
(34,311,cs),
(34,266,o),
(68,247,o),
(100,243,c),
(100,0,l),
(206,0,l),
(206,246,l),
(427,246,l),
(427,0,l),
(532,0,l),
(532,504,l),
(627,504,l),
(627,588,l),
(-20,588,l),
(-20,504,l)
);
}
);
vertWidth = 1130;
width = 607;
}
);
unicode = 2588;
},
{
glyphname = Jha;
lastChange = "2022-06-08 23:35:35 +0000";
layers = (
{
layerId = master01;
shapes = (
{
closed = 1;
nodes = (
(347,-82,l),
(292,13,l),
(427,19,o),
(524,80,o),
(524,194,cs),
(524,262,o),
(484,323,o),
(417,348,c),
(462,377,o),
(504,429,o),
(517,499,c),
(595,499,l),
(595,593,l),
(-40,593,l),
(-40,499,l),
(51,499,l),
(64,441,o),
(95,398,o),
(125,374,c),
(98,370,o),
(71,364,o),
(49,358,c),
(73,269,l),
(120,281,o),
(192,298,o),
(261,298,cs),
(355,298,o),
(404,257,o),
(404,198,cs),
(404,145,o),
(354,105,o),
(264,104,c),
(263,104,o),
(244,105,o),
(232,106,c),
(166,195,l),
(155,197,o),
(150,197,o),
(138,197,cs),
(98,197,o),
(59,169,o),
(59,119,cs),
(59,64,o),
(112,17,o),
(189,11,c),
(248,-121,l)
);
},
{
closed = 1;
nodes = (
(229,389,o),
(184,431,o),
(169,499,c),
(394,499,l),
(379,428,o),
(333,387,o),
(279,387,c)
);
}
);
vertWidth = 1130;
width = 565;
},
{
layerId = master02;
shapes = (
{
closed = 1;
nodes = (
(359,-86,l),
(304,9,l),
(442,16,o),
(536,80,o),
(536,194,cs),
(536,262,o),
(497,322,o),
(431,348,c),
(475,378,o),
(515,428,o),
(528,494,c),
(603,494,l),
(603,597,l),
(-40,597,l),
(-40,494,l),
(52,494,l),
(65,440,o),
(95,399,o),
(122,376,c),
(96,372,o),
(70,366,o),
(47,360,c),
(73,263,l),
(122,276,o),
(197,293,o),
(267,293,cs),
(356,293,o),
(403,256,o),
(403,198,cs),
(403,149,o),
(359,110,o),
(271,109,c),
(271,109,o),
(250,109,o),
(236,110,c),
(169,197,l),
(158,199,o),
(154,199,o),
(140,199,cs),
(100,199,o),
(59,170,o),
(59,118,cs),
(59,61,o),
(116,14,o),
(192,7,c),
(251,-128,l)
);
},
{
closed = 1;
nodes = (
(244,391,o),
(196,427,o),
(181,494,c),
(392,494,l),
(376,427,o),
(334,391,o),
(290,391,cs)
);
}
);
vertWidth = 1130;
width = 573;
},
{
layerId = master03;
shapes = (
{
closed = 1;
nodes = (
(280,-55,l),
(219,43,l),
(332,33,o),
(470,75,o),
(470,204,cs),
(470,284,o),
(414,336,o),
(350,355,c),
(399,376,o),
(465,436,o),
(481,539,c),
(570,539,l),
(570,577,l),
(-40,577,l),
(-40,539,l),
(59,539,l),
(75,452,o),
(124,395,o),
(167,369,c),
(139,366,o),
(91,357,o),
(64,351,c),
(74,311,l),
(107,320,o),
(169,334,o),
(229,334,cs),
(353,334,o),
(421,280,o),
(421,206,cs),
(421,123,o),
(340,83,o),
(245,83,cs),
(239,83,o),
(216,83,o),
(199,87,c),
(138,185,l),
(127,187,o),
(123,187,o),
(119,187,cs),
(94,187,o),
(70,170,o),
(70,141,cs),
(70,93,o),
(121,58,o),
(171,48,c),
(239,-75,l)
);
},
{
closed = 1;
nodes = (
(193,377,o),
(132,439,o),
(108,539,c),
(432,539,l),
(409,439,o),
(350,377,o),
(262,374,c)
);
}
);
vertWidth = 814;
width = 540;
},
{
layerId = master04;
shapes = (
{
closed = 1;
nodes = (
(291,-59,l),
(233,34,l),
(369,34,o),
(475,88,o),
(475,200,cs),
(475,275,o),
(425,331,o),
(358,352,c),
(404,375,o),
(465,433,o),
(480,527,c),
(568,527,l),
(568,577,l),
(-40,577,l),
(-40,527,l),
(53,527,l),
(70,448,o),
(112,394,o),
(152,368,c),
(124,364,o),
(84,357,o),
(60,352,c),
(71,302,l),
(107,311,o),
(172,324,o),
(234,324,cs),
(353,324,o),
(414,271,o),
(414,203,cs),
(414,126,o),
(339,85,o),
(243,85,cs),
(236,85,o),
(220,86,o),
(208,88,c),
(146,187,l),
(136,189,o),
(130,189,o),
(124,189,cs),
(93,189,o),
(64,168,o),
(64,133,cs),
(64,85,o),
(109,46,o),
(172,36,c),
(238,-86,l)
);
},
{
closed = 1;
nodes = (
(191,374,o),
(137,438,o),
(116,527,c),
(418,527,l),
(398,436,o),
(342,374,o),
(266,374,cs)
);
}
);
vertWidth = 1130;
width = 538;
},
{
layerId = master05;
shapes = (
{
closed = 1;
nodes = (
(317,-73,l),
(261,21,l),
(389,23,o),
(494,83,o),
(494,195,cs),
(494,263,o),
(452,324,o),
(383,348,c),
(428,375,o),
(476,429,o),
(489,510,c),
(574,510,l),
(574,582,l),
(-40,582,l),
(-40,510,l),
(49,510,l),
(64,443,o),
(98,395,o),
(132,368,c),
(106,364,o),
(74,358,o),
(53,352,c),
(71,282,l),
(114,293,o),
(181,309,o),
(247,309,cs),
(354,309,o),
(405,260,o),
(405,199,cs),
(405,135,o),
(343,93,o),
(248,93,cs),
(242,93,o),
(231,94,o),
(222,95,c),
(158,191,l),
(148,193,o),
(141,193,o),
(132,193,cs),
(94,193,o),
(58,167,o),
(58,122,cs),
(58,73,o),
(100,29,o),
(180,20,c),
(240,-104,l)
);
},
{
closed = 1;
nodes = (
(199,382,o),
(154,437,o),
(138,510,c),
(399,510,l),
(384,434,o),
(335,379,o),
(264,379,c)
);
}
);
vertWidth = 1130;
width = 544;
},
{
layerId = master06;
shapes = (
{
closed = 1;
nodes = (
(303,-63,l),
(248,25,l),
(372,26,o),
(480,85,o),
(480,195,cs),
(480,263,o),
(438,324,o),
(368,348,c),
(411,373,o),
(462,429,o),
(476,515,c),
(565,515,l),
(565,577,l),
(-40,577,l),
(-40,515,l),
(48,515,l),
(64,444,o),
(100,393,o),
(136,366,c),
(109,362,o),
(77,358,o),
(55,353,c),
(67,292,l),
(106,301,o),
(176,314,o),
(240,314,cs),
(353,314,o),
(406,261,o),
(406,200,cs),
(406,130,o),
(338,88,o),
(240,88,cs),
(233,88,o),
(225,89,o),
(217,90,c),
(154,189,l),
(145,191,o),
(137,191,o),
(130,191,cs),
(92,191,o),
(58,166,o),
(58,124,cs),
(58,78,o),
(93,34,o),
(171,24,c),
(236,-98,l)
);
},
{
closed = 1;
nodes = (
(184,378,o),
(141,441,o),
(124,515,c),
(402,515,l),
(387,437,o),
(335,375,o),
(257,375,c)
);
}
);
width = 535;
},
{
layerId = master07;
shapes = (
{
closed = 1;
nodes = (
(333,-78,l),
(277,17,l),
(409,21,o),
(510,82,o),
(510,194,cs),
(510,262,o),
(469,323,o),
(400,348,c),
(446,376,o),
(491,429,o),
(504,504,c),
(585,504,l),
(585,588,l),
(-40,588,l),
(-40,504,l),
(50,504,l),
(64,441,o),
(97,396,o),
(128,371,c),
(102,367,o),
(73,361,o),
(51,355,c),
(72,275,l),
(117,287,o),
(187,303,o),
(254,303,cs),
(355,303,o),
(404,258,o),
(404,199,cs),
(404,140,o),
(349,100,o),
(256,99,cs),
(253,99,o),
(238,100,o),
(227,101,c),
(162,193,l),
(152,195,o),
(146,195,o),
(135,195,cs),
(96,195,o),
(59,168,o),
(59,121,cs),
(59,68,o),
(106,23,o),
(185,15,c),
(244,-113,l)
);
},
{
closed = 1;
nodes = (
(218,383,o),
(170,431,o),
(155,504,c),
(397,504,l),
(382,432,o),
(337,385,o),
(278,383,cs)
);
}
);
vertWidth = 1130;
width = 555;
}
);
unicode = 2589;
},
{
glyphname = Nya;
lastChange = "2022-06-07 15:02:57 +0000";
layers = (
{
layerId = master01;
shapes = (
{
closed = 1;
nodes = (
(427,-11,o),
(484,0,o),
(520,21,c),
(486,104,l),
(459,93,o),
(417,84,o),
(369,84,cs),
(308,84,o),
(273,105,o),
(273,141,cs),
(273,149,o),
(274,156,o),
(277,162,c),
(492,162,l),
(492,252,l),
(196,252,ls),
(165,252,o),
(149,265,o),
(149,290,cs),
(149,313,o),
(165,329,o),
(195,329,cs),
(510,329,l),
(510,499,l),
(595,499,l),
(595,593,l),
(-30,593,l),
(-30,499,l),
(57,499,l),
(61,456,o),
(79,423,o),
(107,403,c),
(61,386,o),
(30,348,o),
(30,293,cs),
(30,216,o),
(83,171,o),
(161,167,c),
(156,156,o),
(154,143,o),
(154,130,cs),
(154,46,o),
(224,-11,o),
(368,-11,cs)
);
},
{
closed = 1;
nodes = (
(201,421,o),
(182,457,o),
(178,499,c),
(392,499,l),
(392,419,l),
(233,419,l)
);
}
);
vertWidth = 1130;
width = 575;
},
{
layerId = master02;
shapes = (
{
closed = 1;
nodes = (
(432,-12,o),
(491,-2,o),
(527,19,c),
(491,111,l),
(463,100,o),
(421,92,o),
(376,92,cs),
(317,92,o),
(287,112,o),
(287,144,cs),
(287,150,o),
(287,155,o),
(289,159,c),
(499,159,l),
(499,256,l),
(201,256,ls),
(173,256,o),
(160,268,o),
(160,290,cs),
(160,309,o),
(173,324,o),
(201,324,cs),
(517,324,l),
(517,494,l),
(597,494,l),
(597,597,l),
(-30,597,l),
(-30,494,l),
(54,494,l),
(58,455,o),
(74,425,o),
(101,404,c),
(56,385,o),
(29,347,o),
(29,294,cs),
(29,216,o),
(81,169,o),
(161,165,c),
(157,155,o),
(155,143,o),
(155,131,cs),
(155,48,o),
(223,-12,o),
(376,-12,cs)
);
},
{
closed = 1;
nodes = (
(210,421,o),
(192,455,o),
(187,494,c),
(386,494,l),
(386,421,l),
(242,421,ls)
);
}
);
vertWidth = 1130;
width = 577;
},
{
layerId = master03;
shapes = (
{
closed = 1;
nodes = (
(411,0,o),
(464,21,o),
(488,38,c),
(469,71,l),
(444,57,o),
(403,40,o),
(344,40,cs),
(267,40,o),
(211,68,o),
(211,133,cs),
(211,157,o),
(221,176,o),
(231,187,c),
(474,187,l),
(474,227,l),
(184,227,ls),
(131,227,o),
(100,251,o),
(100,298,cs),
(100,338,o),
(130,366,o),
(181,366,cs),
(482,366,l),
(482,539,l),
(590,539,l),
(590,577,l),
(-30,577,l),
(-30,539,l),
(71,539,l),
(77,476,o),
(106,425,o),
(144,401,c),
(107,395,o),
(51,361,o),
(51,298,cs),
(51,225,o),
(101,188,o),
(179,187,c),
(170,174,o),
(162,155,o),
(162,129,cs),
(162,50,o),
(228,0,o),
(342,0,cs)
);
},
{
closed = 1;
nodes = (
(168,409,o),
(126,470,o),
(119,539,c),
(435,539,l),
(435,406,l),
(221,406,l)
);
}
);
vertWidth = 814;
width = 570;
},
{
layerId = master04;
shapes = (
{
closed = 1;
nodes = (
(405,-3,o),
(462,14,o),
(492,34,c),
(469,76,l),
(444,63,o),
(399,48,o),
(344,48,cs),
(270,48,o),
(217,74,o),
(217,133,cs),
(217,152,o),
(225,169,o),
(233,180,c),
(471,180,l),
(471,231,l),
(181,231,ls),
(134,231,o),
(104,252,o),
(104,295,cs),
(104,332,o),
(133,356,o),
(178,356,cs),
(484,356,l),
(484,527,l),
(588,527,l),
(588,577,l),
(-30,577,l),
(-30,527,l),
(71,527,l),
(76,466,o),
(101,422,o),
(135,399,c),
(96,392,o),
(43,358,o),
(43,295,cs),
(43,222,o),
(95,182,o),
(170,180,c),
(162,167,o),
(156,149,o),
(156,128,cs),
(156,45,o),
(228,-3,o),
(340,-3,cs)
);
},
{
closed = 1;
nodes = (
(171,411,o),
(138,465,o),
(132,527,c),
(424,527,l),
(424,408,l),
(218,408,l)
);
}
);
vertWidth = 1130;
width = 568;
},
{
layerId = master05;
shapes = (
{
closed = 1;
nodes = (
(414,-8,o),
(466,4,o),
(503,26,c),
(474,88,l),
(448,77,o),
(407,65,o),
(352,65,cs),
(285,65,o),
(240,88,o),
(240,135,cs),
(240,148,o),
(243,160,o),
(249,169,c),
(476,169,l),
(476,241,l),
(183,241,ls),
(147,241,o),
(122,257,o),
(122,291,cs),
(122,321,o),
(146,340,o),
(181,340,cs),
(494,340,l),
(494,510,l),
(589,510,l),
(589,582,l),
(-30,582,l),
(-30,510,l),
(68,510,l),
(71,458,o),
(90,421,o),
(118,399,c),
(73,387,o),
(33,350,o),
(33,292,cs),
(33,216,o),
(88,173,o),
(161,171,c),
(155,158,o),
(151,143,o),
(151,127,cs),
(151,42,o),
(226,-8,o),
(347,-8,cs)
);
},
{
closed = 1;
nodes = (
(184,415,o),
(161,460,o),
(157,510,c),
(406,510,l),
(406,413,l),
(220,413,l)
);
}
);
vertWidth = 1130;
width = 569;
},
{
layerId = master06;
shapes = (
{
closed = 1;
nodes = (
(399,-7,o),
(460,6,o),
(496,29,c),
(470,82,l),
(444,70,o),
(394,56,o),
(344,56,cs),
(274,56,o),
(224,80,o),
(224,132,cs),
(224,147,o),
(229,163,o),
(237,173,c),
(468,173,l),
(468,236,l),
(177,236,ls),
(138,236,o),
(109,254,o),
(109,291,cs),
(109,325,o),
(137,346,o),
(174,346,cs),
(486,346,l),
(486,515,l),
(586,515,l),
(586,577,l),
(-30,577,l),
(-30,515,l),
(73,515,l),
(75,458,o),
(96,420,o),
(124,398,c),
(83,388,o),
(35,354,o),
(35,291,cs),
(35,217,o),
(90,175,o),
(161,173,c),
(154,160,o),
(150,144,o),
(150,126,cs),
(150,40,o),
(227,-7,o),
(338,-7,cs)
);
},
{
closed = 1;
nodes = (
(175,413,o),
(150,462,o),
(147,515,c),
(413,515,l),
(413,410,l),
(214,410,l)
);
}
);
width = 566;
},
{
layerId = master07;
shapes = (
{
closed = 1;
nodes = (
(421,-10,o),
(475,2,o),
(512,23,c),
(481,97,l),
(454,85,o),
(412,75,o),
(361,75,cs),
(297,75,o),
(257,97,o),
(257,138,cs),
(257,149,o),
(259,158,o),
(264,166,c),
(484,166,l),
(484,247,l),
(190,247,ls),
(157,247,o),
(136,261,o),
(136,290,cs),
(136,317,o),
(156,334,o),
(188,334,cs),
(502,334,l),
(502,504,l),
(592,504,l),
(592,588,l),
(-30,588,l),
(-30,504,l),
(62,504,l),
(66,457,o),
(84,423,o),
(112,401,c),
(66,386,o),
(32,349,o),
(32,293,cs),
(32,216,o),
(86,172,o),
(161,169,c),
(156,157,o),
(153,143,o),
(153,129,cs),
(153,44,o),
(225,-10,o),
(358,-10,cs)
);
},
{
closed = 1;
nodes = (
(193,418,o),
(172,458,o),
(168,504,c),
(399,504,l),
(399,416,l),
(227,416,l)
);
}
);
vertWidth = 1130;
width = 572;
}
);
unicode = 2590;
},
{
glyphname = Tta;
lastChange = "2022-06-08 23:28:31 +0000";
layers = (
{
layerId = master01;
shapes = (
{
closed = 1;
nodes = (
(427,-5,o),
(490,23,o),
(524,49,c),
(476,129,l),
(452,114,o),
(404,92,o),
(343,92,cs),
(264,92,o),
(184,131,o),
(148,202,c),
(186,269,o),
(256,305,o),
(351,305,cs),
(471,305,l),
(471,499,l),
(565,499,l),
(565,593,l),
(-20,593,l),
(-20,499,l),
(353,499,l),
(353,402,l),
(205,402,o),
(82,350,o),
(20,202,c),
(73,67,o),
(198,-5,o),
(339,-5,cs)
);
}
);
vertWidth = 1130;
width = 545;
},
{
layerId = master02;
shapes = (
{
closed = 1;
nodes = (
(434,-6,o),
(498,22,o),
(532,47,c),
(481,135,l),
(458,121,o),
(408,100,o),
(348,100,cs),
(275,100,o),
(194,134,o),
(159,202,c),
(193,263,o),
(260,297,o),
(351,297,cs),
(478,297,l),
(478,494,l),
(569,494,l),
(569,597,l),
(-20,597,l),
(-20,494,l),
(347,494,l),
(347,403,l),
(202,403,o),
(78,350,o),
(17,202,c),
(71,67,o),
(200,-6,o),
(344,-6,cs)
);
}
);
vertWidth = 1130;
width = 549;
},
{
layerId = master03;
shapes = (
{
closed = 1;
nodes = (
(415,0,o),
(466,35,o),
(492,61,c),
(467,92,l),
(430,59,o),
(385,41,o),
(324,41,cs),
(225,41,o),
(138,102,o),
(89,200,c),
(148,306,o),
(228,353,o),
(366,353,cs),
(452,353,l),
(452,539,l),
(563,539,l),
(563,577,l),
(-20,577,l),
(-20,539,l),
(405,539,l),
(405,394,l),
(198,394,o),
(102,330,o),
(38,200,c),
(90,74,o),
(203,0,o),
(325,0,cs)
);
}
);
vertWidth = 814;
width = 543;
},
{
layerId = master04;
shapes = (
{
closed = 1;
nodes = (
(409,0,o),
(463,30,o),
(493,60,c),
(463,100,l),
(431,73,o),
(387,52,o),
(324,52,cs),
(224,52,o),
(142,112,o),
(98,202,c),
(154,299,o),
(235,343,o),
(359,343,cs),
(450,343,l),
(450,527,l),
(556,527,l),
(556,577,l),
(-20,577,l),
(-20,527,l),
(390,527,l),
(390,395,l),
(206,395,o),
(99,339,o),
(35,202,c),
(86,71,o),
(198,0,o),
(324,0,cs)
);
}
);
vertWidth = 1130;
width = 536;
},
{
layerId = master05;
shapes = (
{
closed = 1;
nodes = (
(410,-2,o),
(469,24,o),
(504,55,c),
(464,115,l),
(439,96,o),
(394,73,o),
(330,73,cs),
(236,73,o),
(159,125,o),
(121,203,c),
(169,285,o),
(246,324,o),
(351,324,cs),
(455,324,l),
(455,510,l),
(554,510,l),
(554,582,l),
(-20,582,l),
(-20,510,l),
(367,510,l),
(367,398,l),
(212,398,o),
(91,348,o),
(27,203,c),
(78,68,o),
(195,-2,o),
(328,-2,cs)
);
}
);
vertWidth = 1130;
width = 534;
},
{
layerId = master06;
shapes = (
{
closed = 1;
nodes = (
(402,0,o),
(460,25,o),
(495,58,c),
(459,108,l),
(433,88,o),
(390,64,o),
(324,64,cs),
(223,64,o),
(147,122,o),
(108,204,c),
(161,292,o),
(242,333,o),
(351,333,cs),
(447,333,l),
(447,515,l),
(549,515,l),
(549,577,l),
(-20,577,l),
(-20,515,l),
(374,515,l),
(374,397,l),
(215,397,o),
(95,348,o),
(31,204,c),
(81,68,o),
(193,0,o),
(323,0,cs)
);
}
);
width = 529;
},
{
layerId = master07;
shapes = (
{
closed = 1;
nodes = (
(419,-3,o),
(480,23,o),
(515,52,c),
(471,122,l),
(446,105,o),
(400,83,o),
(337,83,cs),
(251,83,o),
(172,128,o),
(135,203,c),
(178,277,o),
(252,314,o),
(351,314,cs),
(463,314,l),
(463,504,l),
(560,504,l),
(560,588,l),
(-20,588,l),
(-20,504,l),
(360,504,l),
(360,400,l),
(208,400,o),
(86,349,o),
(24,203,c),
(76,67,o),
(197,-3,o),
(334,-3,cs)
);
}
);
vertWidth = 1130;
width = 540;
}
);
unicode = 2591;
},
{
glyphname = Ttha;
layers = (
{
layerId = master01;
shapes = (
{
closed = 1;
nodes = (
(246,499,l),
(246,412,l),
(128,373,o),
(35,309,o),
(35,188,cs),
(35,59,o),
(148,-15,o),
(301,-15,cs),
(452,-15,o),
(573,52,o),
(573,187,cs),
(573,310,o),
(468,380,o),
(364,412,c),
(364,499,l),
(626,499,l),
(626,593,l),
(-20,593,l),
(-20,499,l)
);
},
{
closed = 1;
nodes = (
(222,81,o),
(155,118,o),
(155,189,cs),
(155,262,o),
(223,304,o),
(304,321,c),
(379,306,o),
(453,260,o),
(453,189,cs),
(453,119,o),
(394,81,o),
(304,81,cs)
);
}
);
vertWidth = 1130;
width = 606;
},
{
layerId = master02;
shapes = (
{
closed = 1;
nodes = (
(245,494,l),
(245,413,l),
(124,373,o),
(33,308,o),
(33,188,cs),
(33,55,o),
(150,-17,o),
(305,-17,cs),
(457,-17,o),
(584,49,o),
(584,186,cs),
(584,309,o),
(480,379,o),
(376,413,c),
(376,494,l),
(635,494,l),
(635,597,l),
(-20,597,l),
(-20,494,l)
);
},
{
closed = 1;
nodes = (
(230,88,o),
(166,122,o),
(166,189,cs),
(166,256,o),
(228,297,o),
(309,314,c),
(382,298,o),
(451,253,o),
(451,189,cs),
(451,123,o),
(395,88,o),
(309,88,cs)
);
}
);
vertWidth = 1130;
width = 615;
},
{
layerId = master03;
shapes = (
{
closed = 1;
nodes = (
(259,539,l),
(259,412,l),
(149,386,o),
(41,320,o),
(41,188,cs),
(41,63,o),
(153,-2,o),
(280,-2,cs),
(396,-2,o),
(523,55,o),
(523,187,cs),
(523,310,o),
(421,382,o),
(305,412,c),
(305,539,l),
(586,539,l),
(586,577,l),
(-20,577,l),
(-20,539,l)
);
},
{
closed = 1;
nodes = (
(176,39,o),
(90,91,o),
(90,188,cs),
(90,298,o),
(194,361,o),
(282,374,c),
(369,355,o),
(474,298,o),
(474,188,cs),
(474,91,o),
(381,39,o),
(284,39,cs)
);
}
);
vertWidth = 814;
width = 566;
},
{
layerId = master04;
shapes = (
{
closed = 1;
nodes = (
(254,527,l),
(254,409,l),
(145,381,o),
(41,315,o),
(41,189,cs),
(41,67,o),
(146,-4,o),
(283,-4,cs),
(414,-4,o),
(527,59,o),
(527,188,cs),
(527,310,o),
(422,382,o),
(314,409,c),
(314,527,l),
(590,527,l),
(590,577,l),
(-20,577,l),
(-20,527,l)
);
},
{
closed = 1;
nodes = (
(185,48,o),
(102,97,o),
(102,189,cs),
(102,292,o),
(199,347,o),
(284,360,c),
(369,344,o),
(466,291,o),
(466,189,cs),
(466,98,o),
(385,48,o),
(285,48,cs)
);
}
);
vertWidth = 1130;
width = 570;
},
{
layerId = master05;
shapes = (
{
closed = 1;
nodes = (
(248,510,l),
(248,408,l),
(135,374,o),
(40,309,o),
(40,189,cs),
(40,68,o),
(142,-10,o),
(291,-10,cs),
(440,-10,o),
(545,60,o),
(545,189,cs),
(545,311,o),
(437,381,o),
(336,408,c),
(336,510,l),
(604,510,l),
(604,582,l),
(-20,582,l),
(-20,510,l)
);
},
{
closed = 1;
nodes = (
(203,65,o),
(128,108,o),
(128,190,cs),
(128,278,o),
(211,322,o),
(292,336,c),
(371,324,o),
(456,276,o),
(456,190,cs),
(456,110,o),
(391,65,o),
(292,65,cs)
);
}
);
vertWidth = 1130;
width = 584;
},
{
layerId = master06;
shapes = (
{
closed = 1;
nodes = (
(249,515,l),
(249,406,l),
(140,375,o),
(42,310,o),
(42,190,cs),
(42,72,o),
(139,-7,o),
(286,-7,cs),
(434,-7,o),
(532,64,o),
(532,190,cs),
(532,311,o),
(423,383,o),
(323,406,c),
(323,515,l),
(594,515,l),
(594,577,l),
(-20,577,l),
(-20,515,l)
);
},
{
closed = 1;
nodes = (
(194,57,o),
(116,103,o),
(116,190,cs),
(116,285,o),
(205,331,o),
(286,344,c),
(368,333,o),
(458,284,o),
(458,190,cs),
(458,106,o),
(390,57,o),
(286,57,cs)
);
}
);
width = 574;
},
{
layerId = master07;
shapes = (
{
closed = 1;
nodes = (
(247,504,l),
(247,410,l),
(131,373,o),
(37,309,o),
(37,189,cs),
(37,63,o),
(145,-12,o),
(296,-12,cs),
(446,-12,o),
(560,56,o),
(560,188,cs),
(560,310,o),
(454,380,o),
(351,410,c),
(351,504,l),
(616,504,l),
(616,588,l),
(-20,588,l),
(-20,504,l)
);
},
{
closed = 1;
nodes = (
(213,73,o),
(142,113,o),
(142,189,cs),
(142,270,o),
(217,313,o),
(298,328,c),
(375,314,o),
(454,268,o),
(454,189,cs),
(454,115,o),
(393,73,o),
(298,73,cs)
);
}
);
vertWidth = 1130;
width = 596;
}
);
unicode = 2592;
},
{
glyphname = Dda;
layers = (
{
layerId = master01;
shapes = (
{
closed = 1;
nodes = (
(393,499,l),
(385,457,o),
(362,415,o),
(337,396,c),
(88,396,l),
(80,384,o),
(73,367,o),
(73,351,cs),
(73,310,o),
(105,286,o),
(199,286,cs),
(257,286,o),
(298,292,o),
(332,298,c),
(367,285,o),
(404,248,o),
(404,196,cs),
(404,167,o),
(394,144,o),
(378,125,c),
(335,184,o),
(264,241,o),
(160,241,cs),
(79,241,o),
(28,195,o),
(28,128,cs),
(28,42,o),
(128,-15,o),
(261,-15,cs),
(400,-15,o),
(524,56,o),
(524,189,cs),
(524,258,o),
(489,311,o),
(435,343,c),
(474,378,o),
(507,433,o),
(516,499,c),
(592,499,l),
(592,593,l),
(-20,593,l),
(-20,499,l)
);
},
{
closed = 1;
nodes = (
(190,77,o),
(147,98,o),
(147,124,cs),
(147,142,o),
(161,154,o),
(185,154,cs),
(229,154,o),
(266,130,o),
(301,82,c),
(285,78,o),
(267,77,o),
(249,77,cs)
);
}
);
vertWidth = 1130;
width = 562;
},
{
layerId = master02;
shapes = (
{
closed = 1;
nodes = (
(388,494,l),
(379,455,o),
(357,414,o),
(332,400,c),
(86,400,l),
(78,388,o),
(70,371,o),
(70,354,cs),
(70,313,o),
(99,286,o),
(198,286,cs),
(258,286,o),
(299,291,o),
(332,297,c),
(366,284,o),
(402,249,o),
(402,198,cs),
(402,173,o),
(394,152,o),
(381,135,c),
(338,192,o),
(265,246,o),
(163,246,cs),
(79,246,o),
(26,200,o),
(26,130,cs),
(26,41,o),
(129,-17,o),
(267,-17,cs),
(406,-17,o),
(535,54,o),
(535,191,cs),
(535,259,o),
(499,312,o),
(445,345,c),
(485,380,o),
(516,432,o),
(526,494,c),
(599,494,l),
(599,597,l),
(-20,597,l),
(-20,494,l)
);
},
{
closed = 1;
nodes = (
(198,83,o),
(158,101,o),
(158,124,cs),
(158,142,o),
(172,151,o),
(193,151,cs),
(230,151,o),
(264,133,o),
(299,88,c),
(284,84,o),
(268,83,o),
(252,83,cs)
);
}
);
vertWidth = 1130;
width = 569;
},
{
layerId = master03;
shapes = (
{
closed = 1;
nodes = (
(419,539,l),
(416,464,o),
(375,393,o),
(342,364,c),
(94,364,l),
(91,360,o),
(88,353,o),
(88,346,cs),
(88,321,o),
(113,308,o),
(179,308,cs),
(245,308,o),
(293,313,o),
(331,322,c),
(387,299,o),
(426,249,o),
(426,185,cs),
(426,136,o),
(402,98,o),
(365,75,c),
(325,136,o),
(259,221,o),
(145,221,cs),
(73,221,o),
(35,176,o),
(35,125,cs),
(35,49,o),
(113,-2,o),
(241,-2,cs),
(366,-2,o),
(475,62,o),
(475,181,cs),
(475,253,o),
(436,310,o),
(378,341,c),
(424,380,o),
(464,454,o),
(467,539,c),
(566,539,l),
(566,577,l),
(-20,577,l),
(-20,539,l)
);
},
{
closed = 1;
nodes = (
(145,39,o),
(84,76,o),
(84,125,cs),
(84,154,o),
(106,181,o),
(147,181,cs),
(239,181,o),
(293,107,o),
(329,53,c),
(304,44,o),
(271,39,o),
(244,39,cs)
);
}
);
vertWidth = 814;
width = 536;
},
{
layerId = master04;
shapes = (
{
closed = 1;
nodes = (
(412,527,l),
(408,465,o),
(378,402,o),
(348,372,c),
(94,372,l),
(90,365,o),
(86,354,o),
(86,344,cs),
(86,311,o),
(120,298,o),
(190,298,cs),
(247,298,o),
(292,303,o),
(331,313,c),
(379,295,o),
(419,247,o),
(419,187,cs),
(419,140,o),
(398,105,o),
(365,83,c),
(325,145,o),
(258,222,o),
(147,222,cs),
(75,222,o),
(34,177,o),
(34,124,cs),
(34,47,o),
(118,-4,o),
(241,-4,cs),
(372,-4,o),
(480,63,o),
(480,182,cs),
(480,253,o),
(444,307,o),
(389,339,c),
(431,377,o),
(468,447,o),
(472,527,c),
(566,527,l),
(566,577,l),
(-20,577,l),
(-20,527,l)
);
},
{
closed = 1;
nodes = (
(152,47,o),
(95,81,o),
(95,124,cs),
(95,149,o),
(114,173,o),
(152,173,cs),
(233,173,o),
(283,112,o),
(319,59,c),
(296,51,o),
(268,47,o),
(241,47,cs)
);
}
);
vertWidth = 1130;
width = 536;
},
{
layerId = master05;
shapes = (
{
closed = 1;
nodes = (
(402,510,l),
(396,462,o),
(374,412,o),
(349,385,c),
(93,385,l),
(86,374,o),
(80,359,o),
(80,344,cs),
(80,304,o),
(121,287,o),
(201,287,cs),
(252,287,o),
(294,292,o),
(332,302,c),
(369,288,o),
(409,247,o),
(409,191,cs),
(409,153,o),
(394,123,o),
(369,102,c),
(328,165,o),
(259,229,o),
(153,229,cs),
(78,229,o),
(31,184,o),
(31,124,cs),
(31,44,o),
(125,-10,o),
(247,-10,cs),
(386,-10,o),
(498,61,o),
(498,186,cs),
(498,255,o),
(464,306,o),
(411,339,c),
(450,374,o),
(485,437,o),
(491,510,c),
(574,510,l),
(574,582,l),
(-20,582,l),
(-20,510,l)
);
},
{
closed = 1;
nodes = (
(169,63,o),
(120,90,o),
(120,123,cs),
(120,143,o),
(134,161,o),
(166,161,cs),
(227,161,o),
(270,121,o),
(306,71,c),
(286,65,o),
(264,63,o),
(241,63,cs)
);
}
);
vertWidth = 1130;
width = 544;
},
{
layerId = master06;
shapes = (
{
closed = 1;
nodes = (
(405,515,l),
(401,463,o),
(379,410,o),
(353,380,c),
(95,380,l),
(89,370,o),
(83,355,o),
(83,341,cs),
(83,301,o),
(128,288,o),
(202,288,cs),
(249,288,o),
(292,293,o),
(332,304,c),
(371,290,o),
(412,245,o),
(412,189,cs),
(412,146,o),
(394,114,o),
(364,92,c),
(324,156,o),
(256,224,o),
(150,224,cs),
(78,224,o),
(33,179,o),
(33,122,cs),
(33,45,o),
(124,-7,o),
(240,-7,cs),
(379,-7,o),
(486,64,o),
(486,184,cs),
(486,254,o),
(453,305,o),
(400,337,c),
(439,373,o),
(475,439,o),
(479,515,c),
(566,515,l),
(566,577,l),
(-20,577,l),
(-20,515,l)
);
},
{
closed = 1;
nodes = (
(160,56,o),
(107,86,o),
(107,123,cs),
(107,144,o),
(122,165,o),
(157,165,cs),
(227,165,o),
(272,116,o),
(309,65,c),
(287,59,o),
(264,56,o),
(238,56,cs)
);
}
);
width = 536;
},
{
layerId = master07;
shapes = (
{
closed = 1;
nodes = (
(397,504,l),
(390,460,o),
(369,414,o),
(344,391,c),
(90,391,l),
(83,380,o),
(76,363,o),
(76,348,cs),
(76,307,o),
(113,287,o),
(200,287,cs),
(256,287,o),
(298,292,o),
(333,300,c),
(370,286,o),
(407,247,o),
(407,194,cs),
(407,161,o),
(395,134,o),
(374,114,c),
(333,175,o),
(262,236,o),
(157,236,cs),
(79,236,o),
(29,190,o),
(29,126,cs),
(29,43,o),
(127,-12,o),
(254,-12,cs),
(393,-12,o),
(512,59,o),
(512,188,cs),
(512,256,o),
(477,309,o),
(424,341,c),
(463,376,o),
(496,435,o),
(504,504,c),
(583,504,l),
(583,588,l),
(-20,588,l),
(-20,504,l)
);
},
{
closed = 1;
nodes = (
(180,70,o),
(134,94,o),
(134,124,cs),
(134,143,o),
(148,158,o),
(176,158,cs),
(228,158,o),
(268,127,o),
(304,77,c),
(285,72,o),
(265,70,o),
(245,70,cs)
);
}
);
vertWidth = 1130;
width = 553;
}
);
unicode = 2593;
},
{
glyphname = Ddha;
layers = (
{
layerId = master01;
shapes = (
{
closed = 1;
nodes = (
(428,499,l),
(428,382,l),
(187,382,l),
(187,435,l),
(176,444,o),
(156,449,o),
(128,449,cs),
(65,449,o),
(14,405,o),
(14,349,cs),
(14,306,o),
(39,285,o),
(77,281,c),
(91,75,o),
(245,-15,o),
(392,-15,cs),
(505,-15,o),
(573,41,o),
(573,116,cs),
(573,181,o),
(530,233,o),
(427,233,cs),
(359,233,o),
(288,200,o),
(242,147,c),
(214,176,o),
(191,222,o),
(187,287,c),
(544,287,l),
(544,499,l),
(633,499,l),
(633,593,l),
(-20,593,l),
(-20,499,l)
);
},
{
closed = 1;
nodes = (
(446,146,o),
(459,132,o),
(459,116,cs),
(459,94,o),
(437,76,o),
(392,76,cs),
(357,76,o),
(334,84,o),
(313,95,c),
(347,131,o),
(382,146,o),
(417,146,cs)
);
}
);
vertWidth = 1130;
width = 613;
},
{
layerId = master02;
shapes = (
{
closed = 1;
nodes = (
(426,494,l),
(426,389,l),
(196,389,l),
(196,440,l),
(184,449,o),
(164,455,o),
(134,455,cs),
(66,455,o),
(12,408,o),
(12,350,cs),
(12,306,o),
(36,283,o),
(75,279,c),
(93,68,o),
(251,-17,o),
(396,-17,cs),
(511,-17,o),
(583,39,o),
(583,117,cs),
(583,183,o),
(542,239,o),
(432,239,cs),
(362,239,o),
(292,205,o),
(246,155,c),
(220,183,o),
(201,227,o),
(197,285,c),
(554,285,l),
(554,494,l),
(639,494,l),
(639,597,l),
(-20,597,l),
(-20,494,l)
);
},
{
closed = 1;
nodes = (
(446,144,o),
(458,131,o),
(458,117,cs),
(458,98,o),
(440,82,o),
(397,82,cs),
(364,82,o),
(343,89,o),
(324,98,c),
(357,131,o),
(388,144,o),
(420,144,cs)
);
}
);
vertWidth = 1130;
width = 619;
},
{
layerId = master03;
shapes = (
{
closed = 1;
nodes = (
(456,539,l),
(456,357,l),
(130,357,l),
(130,429,l),
(125,432,o),
(112,436,o),
(98,436,cs),
(60,436,o),
(26,404,o),
(26,365,cs),
(26,340,o),
(45,319,o),
(84,317,c),
(104,78,o),
(243,-2,o),
(376,-2,cs),
(470,-2,o),
(536,41,o),
(536,114,cs),
(536,174,o),
(488,216,o),
(418,216,cs),
(332,216,o),
(267,164,o),
(219,98,c),
(171,142,o),
(137,227,o),
(132,317,c),
(503,317,l),
(503,539,l),
(615,539,l),
(615,577,l),
(-20,577,l),
(-20,539,l)
);
},
{
closed = 1;
nodes = (
(459,176,o),
(489,151,o),
(489,113,cs),
(489,68,o),
(445,38,o),
(377,38,cs),
(331,38,o),
(286,49,o),
(254,69,c),
(299,130,o),
(346,176,o),
(415,176,cs)
);
}
);
vertWidth = 814;
width = 595;
},
{
layerId = master04;
shapes = (
{
closed = 1;
nodes = (
(446,527,l),
(446,357,l),
(143,357,l),
(143,424,l),
(135,429,o),
(120,433,o),
(103,433,cs),
(61,433,o),
(23,399,o),
(23,356,cs),
(23,325,o),
(47,306,o),
(84,304,c),
(94,89,o),
(235,-4,o),
(377,-4,cs),
(477,-4,o),
(536,44,o),
(536,113,cs),
(536,173,o),
(488,215,o),
(414,215,cs),
(339,215,o),
(272,173,o),
(223,106,c),
(183,145,o),
(149,212,o),
(144,305,c),
(506,305,l),
(506,527,l),
(613,527,l),
(613,577,l),
(-20,577,l),
(-20,527,l)
);
},
{
closed = 1;
nodes = (
(452,166,o),
(477,144,o),
(477,113,cs),
(477,73,o),
(437,47,o),
(376,47,cs),
(333,47,o),
(294,58,o),
(266,75,c),
(306,130,o),
(354,166,o),
(410,166,cs)
);
}
);
vertWidth = 1130;
width = 593;
},
{
layerId = master05;
shapes = (
{
closed = 1;
nodes = (
(433,510,l),
(433,365,l),
(167,365,l),
(167,424,l),
(155,431,o),
(137,436,o),
(114,436,cs),
(63,436,o),
(18,397,o),
(18,347,cs),
(18,307,o),
(46,290,o),
(81,286,c),
(85,92,o),
(232,-10,o),
(382,-10,cs),
(491,-10,o),
(548,46,o),
(548,113,cs),
(548,175,o),
(502,220,o),
(415,220,cs),
(350,220,o),
(281,188,o),
(231,126,c),
(200,158,o),
(171,207,o),
(167,291,c),
(520,291,l),
(520,510,l),
(617,510,l),
(617,582,l),
(-20,582,l),
(-20,510,l)
);
},
{
closed = 1;
nodes = (
(444,152,o),
(462,135,o),
(462,113,cs),
(462,83,o),
(431,63,o),
(380,63,cs),
(342,63,o),
(314,72,o),
(289,85,c),
(325,130,o),
(369,152,o),
(409,152,cs)
);
}
);
vertWidth = 1130;
width = 597;
},
{
layerId = master06;
shapes = (
{
closed = 1;
nodes = (
(436,515,l),
(436,357,l),
(157,357,l),
(157,419,l),
(146,425,o),
(128,430,o),
(108,430,cs),
(62,430,o),
(20,393,o),
(20,346,cs),
(20,308,o),
(49,292,o),
(83,289,c),
(83,100,o),
(226,-7,o),
(378,-7,cs),
(485,-7,o),
(537,48,o),
(537,112,cs),
(537,172,o),
(489,214,o),
(409,214,cs),
(347,214,o),
(278,183,o),
(226,116,c),
(194,149,o),
(161,199,o),
(157,293,c),
(509,293,l),
(509,515,l),
(610,515,l),
(610,577,l),
(-20,577,l),
(-20,515,l)
);
},
{
closed = 1;
nodes = (
(444,155,o),
(463,136,o),
(463,112,cs),
(463,78,o),
(428,57,o),
(375,57,cs),
(335,57,o),
(304,67,o),
(278,81,c),
(314,129,o),
(363,155,o),
(405,155,cs)
);
}
);
width = 590;
},
{
layerId = master07;
shapes = (
{
closed = 1;
nodes = (
(431,504,l),
(431,374,l),
(178,374,l),
(178,430,l),
(166,438,o),
(147,443,o),
(122,443,cs),
(64,443,o),
(16,401,o),
(16,348,cs),
(16,307,o),
(42,287,o),
(79,284,c),
(88,83,o),
(239,-12,o),
(388,-12,cs),
(499,-12,o),
(561,43,o),
(561,115,cs),
(561,178,o),
(517,227,o),
(421,227,cs),
(355,227,o),
(285,195,o),
(237,137,c),
(207,167,o),
(182,215,o),
(178,289,c),
(533,289,l),
(533,504,l),
(625,504,l),
(625,588,l),
(-20,588,l),
(-20,504,l)
);
},
{
closed = 1;
nodes = (
(445,149,o),
(460,133,o),
(460,115,cs),
(460,89,o),
(434,70,o),
(387,70,cs),
(350,70,o),
(324,79,o),
(302,90,c),
(337,131,o),
(376,149,o),
(413,149,cs)
);
}
);
vertWidth = 1130;
width = 605;
}
);
unicode = 2594;
},
{
glyphname = Nna;
layers = (
{
layerId = master01;
shapes = (
{
closed = 1;
nodes = (
(167,499,l),
(209,438,o),
(271,391,o),
(340,356,c),
(327,291,l),
(303,317,o),
(265,336,o),
(217,336,cs),
(143,336,o),
(55,295,o),
(13,179,c),
(63,63,o),
(184,-11,o),
(340,-11,cs),
(442,-11,o),
(514,20,o),
(553,49,c),
(509,130,l),
(469,106,o),
(409,84,o),
(342,84,cs),
(233,84,o),
(162,136,o),
(136,181,c),
(150,213,o),
(185,241,o),
(222,241,cs),
(267,241,o),
(295,219,o),
(314,186,c),
(406,186,l),
(433,315,l),
(468,305,o),
(509,297,o),
(544,295,c),
(554,389,l),
(457,403,o),
(370,437,o),
(310,499,c),
(601,499,l),
(601,593,l),
(-20,593,l),
(-20,499,l)
);
}
);
vertWidth = 1130;
width = 581;
},
{
layerId = master02;
shapes = (
{
closed = 1;
nodes = (
(165,494,l),
(205,437,o),
(266,390,o),
(336,355,c),
(324,295,l),
(299,321,o),
(262,340,o),
(215,340,cs),
(142,340,o),
(54,299,o),
(11,180,c),
(64,62,o),
(187,-12,o),
(348,-12,cs),
(449,-12,o),
(521,17,o),
(562,46,c),
(516,136,l),
(472,111,o),
(411,92,o),
(350,92,cs),
(242,92,o),
(172,141,o),
(148,183,c),
(159,209,o),
(189,236,o),
(222,236,cs),
(267,236,o),
(291,216,o),
(312,184,c),
(411,184,l),
(438,311,l),
(475,301,o),
(517,293,o),
(551,291,c),
(562,395,l),
(468,407,o),
(385,437,o),
(324,494,c),
(607,494,l),
(607,597,l),
(-20,597,l),
(-20,494,l)
);
}
);
vertWidth = 1130;
width = 587;
},
{
layerId = master03;
shapes = (
{
closed = 1;
nodes = (
(184,539,l),
(225,462,o),
(293,407,o),
(375,368,c),
(350,244,l),
(326,279,o),
(281,310,o),
(219,310,cs),
(134,310,o),
(74,256,o),
(31,162,c),
(78,62,o),
(181,-3,o),
(312,-3,cs),
(404,-3,o),
(478,30,o),
(517,68,c),
(490,99,l),
(443,60,o),
(382,38,o),
(312,38,cs),
(192,38,o),
(113,106,o),
(82,162,c),
(106,212,o),
(153,269,o),
(218,269,cs),
(278,269,o),
(321,231,o),
(337,194,c),
(380,194,l),
(413,351,l),
(440,340,o),
(483,328,o),
(520,323,c),
(527,363,l),
(395,389,o),
(297,452,o),
(240,539,c),
(589,539,l),
(589,577,l),
(-20,577,l),
(-20,539,l)
);
}
);
vertWidth = 814;
width = 569;
},
{
layerId = master04;
shapes = (
{
closed = 1;
nodes = (
(182,527,l),
(228,449,o),
(293,400,o),
(365,364,c),
(347,258,l),
(324,290,o),
(278,316,o),
(220,316,cs),
(139,316,o),
(67,268,o),
(25,168,c),
(70,63,o),
(177,-5,o),
(311,-5,cs),
(411,-5,o),
(482,30,o),
(519,64,c),
(487,105,l),
(450,74,o),
(392,47,o),
(312,47,cs),
(195,47,o),
(119,112,o),
(88,167,c),
(112,218,o),
(163,264,o),
(220,264,cs),
(274,264,o),
(316,231,o),
(330,194,c),
(383,194,l),
(414,341,l),
(442,331,o),
(484,319,o),
(519,315,c),
(527,366,l),
(408,389,o),
(311,448,o),
(255,527,c),
(585,527,l),
(585,577,l),
(-20,577,l),
(-20,527,l)
);
}
);
vertWidth = 1130;
width = 565;
},
{
layerId = master05;
shapes = (
{
closed = 1;
nodes = (
(175,510,l),
(223,438,o),
(286,392,o),
(350,360,c),
(337,278,l),
(315,306,o),
(272,327,o),
(220,327,cs),
(144,327,o),
(58,285,o),
(16,175,c),
(62,64,o),
(176,-8,o),
(319,-8,cs),
(426,-8,o),
(495,27,o),
(532,56,c),
(492,117,l),
(461,95,o),
(405,66,o),
(322,66,cs),
(210,66,o),
(137,124,o),
(107,175,c),
(129,221,o),
(177,253,o),
(223,253,cs),
(268,253,o),
(306,226,o),
(320,191,c),
(393,191,l),
(422,326,l),
(452,316,o),
(491,306,o),
(525,303,c),
(536,375,l),
(432,393,o),
(338,441,o),
(282,510,c),
(587,510,l),
(587,582,l),
(-20,582,l),
(-20,510,l)
);
}
);
vertWidth = 1130;
width = 567;
},
{
layerId = master06;
shapes = (
{
closed = 1;
nodes = (
(179,515,l),
(230,436,o),
(293,392,o),
(354,361,c),
(342,273,l),
(321,302,o),
(275,323,o),
(222,323,cs),
(145,323,o),
(59,280,o),
(18,174,c),
(61,65,o),
(172,-7,o),
(310,-7,cs),
(418,-7,o),
(487,30,o),
(522,60,c),
(484,111,l),
(458,90,o),
(403,57,o),
(313,57,cs),
(199,57,o),
(125,119,o),
(94,173,c),
(119,225,o),
(173,259,o),
(223,259,cs),
(269,259,o),
(311,230,o),
(323,194,c),
(387,194,l),
(416,331,l),
(443,321,o),
(483,310,o),
(517,307,c),
(527,369,l),
(420,387,o),
(322,444,o),
(270,515,c),
(580,515,l),
(580,577,l),
(-20,577,l),
(-20,515,l)
);
}
);
width = 560;
},
{
layerId = master07;
shapes = (
{
closed = 1;
nodes = (
(171,504,l),
(216,439,o),
(278,392,o),
(344,358,c),
(332,286,l),
(308,313,o),
(268,332,o),
(218,332,cs),
(143,332,o),
(56,290,o),
(14,177,c),
(63,63,o),
(180,-10,o),
(330,-10,cs),
(434,-10,o),
(505,23,o),
(543,53,c),
(501,124,l),
(465,101,o),
(407,76,o),
(333,76,cs),
(222,76,o),
(150,131,o),
(123,178,c),
(140,217,o),
(181,247,o),
(222,247,cs),
(268,247,o),
(300,223,o),
(317,189,c),
(400,189,l),
(427,321,l),
(460,310,o),
(501,301,o),
(535,299,c),
(546,383,l),
(445,398,o),
(356,438,o),
(297,504,c),
(594,504,l),
(594,588,l),
(-20,588,l),
(-20,504,l)
);
}
);
vertWidth = 1130;
width = 574;
}
);
unicode = 2595;
},
{
glyphname = Ta;
layers = (
{
layerId = master01;
shapes = (
{
closed = 1;
nodes = (
(367,499,l),
(365,452,o),
(352,404,o),
(329,369,c),
(78,369,l),
(68,355,o),
(60,336,o),
(60,317,cs),
(60,275,o),
(89,246,o),
(201,246,cs),
(242,246,o),
(291,254,o),
(330,267,c),
(354,249,o),
(368,223,o),
(368,191,cs),
(368,130,o),
(313,87,o),
(223,87,cs),
(148,87,o),
(92,107,o),
(50,128,c),
(12,39,l),
(68,9,o),
(143,-9,o),
(226,-9,cs),
(386,-9,o),
(488,62,o),
(488,184,cs),
(488,239,o),
(462,290,o),
(421,321,c),
(459,366,o),
(482,425,o),
(486,499,c),
(559,499,l),
(559,593,l),
(-20,593,l),
(-20,499,l)
);
}
);
vertWidth = 1130;
width = 529;
},
{
layerId = master02;
shapes = (
{
closed = 1;
nodes = (
(363,494,l),
(361,450,o),
(348,406,o),
(326,372,c),
(77,372,l),
(66,357,o),
(58,337,o),
(58,317,cs),
(58,275,o),
(84,242,o),
(203,242,cs),
(240,242,o),
(289,250,o),
(328,263,c),
(352,246,o),
(364,221,o),
(364,194,cs),
(364,139,o),
(314,95,o),
(223,95,cs),
(150,95,o),
(91,115,o),
(48,135,c),
(8,38,l),
(68,7,o),
(145,-9,o),
(227,-9,cs),
(394,-9,o),
(497,65,o),
(497,186,cs),
(497,240,o),
(470,291,o),
(431,322,c),
(468,367,o),
(491,423,o),
(495,494,c),
(565,494,l),
(565,597,l),
(-20,597,l),
(-20,494,l)
);
}
);
vertWidth = 1130;
width = 535;
},
{
layerId = master03;
shapes = (
{
closed = 1;
nodes = (
(398,539,l),
(396,477,o),
(374,399,o),
(331,344,c),
(86,344,l),
(83,339,o),
(81,332,o),
(81,325,cs),
(81,303,o),
(91,285,o),
(176,285,cs),
(254,285,o),
(284,290,o),
(330,301,c),
(365,277,o),
(398,230,o),
(398,175,cs),
(398,89,o),
(330,37,o),
(227,37,cs),
(145,37,o),
(85,71,o),
(54,97,c),
(27,65,l),
(57,34,o),
(129,-3,o),
(225,-3,cs),
(367,-3,o),
(447,69,o),
(447,172,cs),
(447,246,o),
(408,293,o),
(365,323,c),
(407,365,o),
(441,450,o),
(446,539,c),
(542,539,l),
(542,577,l),
(-20,577,l),
(-20,539,l)
);
}
);
vertWidth = 814;
width = 512;
},
{
layerId = master04;
shapes = (
{
closed = 1;
nodes = (
(390,527,l),
(388,467,o),
(371,399,o),
(335,351,c),
(84,351,l),
(79,343,o),
(75,332,o),
(75,321,cs),
(75,290,o),
(98,273,o),
(184,273,cs),
(251,273,o),
(290,279,o),
(334,290,c),
(364,269,o),
(391,229,o),
(391,178,cs),
(391,92,o),
(321,47,o),
(225,47,cs),
(144,47,o),
(90,75,o),
(54,99,c),
(26,55,l),
(61,26,o),
(132,-5,o),
(224,-5,cs),
(362,-5,o),
(452,61,o),
(452,174,cs),
(452,240,o),
(420,288,o),
(377,321,c),
(416,363,o),
(447,439,o),
(451,527,c),
(540,527,l),
(540,577,l),
(-20,577,l),
(-20,527,l)
);
}
);
vertWidth = 1130;
width = 510;
},
{
layerId = master05;
shapes = (
{
closed = 1;
nodes = (
(377,510,l),
(376,456,o),
(362,402,o),
(335,362,c),
(80,362,l),
(73,350,o),
(65,333,o),
(65,316,cs),
(65,276,o),
(100,255,o),
(195,255,cs),
(246,255,o),
(294,263,o),
(335,275,c),
(359,257,o),
(378,226,o),
(378,184,cs),
(378,107,o),
(312,66,o),
(223,66,cs),
(145,66,o),
(94,89,o),
(53,109,c),
(21,42,l),
(66,14,o),
(138,-8,o),
(223,-8,cs),
(366,-8,o),
(467,56,o),
(467,178,cs),
(467,234,o),
(442,284,o),
(399,319,c),
(437,361,o),
(463,426,o),
(466,510,c),
(545,510,l),
(545,582,l),
(-20,582,l),
(-20,510,l)
);
}
);
vertWidth = 1130;
width = 515;
},
{
layerId = master06;
shapes = (
{
closed = 1;
nodes = (
(382,515,l),
(381,458,o),
(366,400,o),
(339,359,c),
(81,359,l),
(75,348,o),
(68,332,o),
(68,316,cs),
(68,276,o),
(105,259,o),
(192,259,cs),
(248,259,o),
(296,267,o),
(338,279,c),
(362,261,o),
(383,228,o),
(383,181,cs),
(383,96,o),
(311,57,o),
(223,57,cs),
(143,57,o),
(95,80,o),
(55,101,c),
(25,44,l),
(66,17,o),
(136,-7,o),
(222,-7,cs),
(357,-7,o),
(457,53,o),
(457,176,cs),
(457,232,o),
(433,283,o),
(389,318,c),
(426,358,o),
(454,427,o),
(457,515,c),
(538,515,l),
(538,577,l),
(-20,577,l),
(-20,515,l)
);
}
);
width = 508;
},
{
layerId = master07;
shapes = (
{
closed = 1;
nodes = (
(372,504,l),
(370,453,o),
(357,403,o),
(332,366,c),
(79,366,l),
(70,353,o),
(63,335,o),
(63,317,cs),
(63,275,o),
(94,250,o),
(198,250,cs),
(244,250,o),
(292,258,o),
(333,271,c),
(357,253,o),
(373,224,o),
(373,188,cs),
(373,119,o),
(313,77,o),
(223,77,cs),
(147,77,o),
(93,99,o),
(51,119,c),
(16,41,l),
(67,12,o),
(141,-8,o),
(225,-8,cs),
(377,-8,o),
(478,59,o),
(478,181,cs),
(478,236,o),
(452,287,o),
(411,320,c),
(448,364,o),
(474,425,o),
(477,504,c),
(552,504,l),
(552,588,l),
(-20,588,l),
(-20,504,l)
);
}
);
vertWidth = 1130;
width = 522;
}
);
unicode = 2596;
},
{
glyphname = Tha;
lastChange = "2022-06-08 23:36:54 +0000";
layers = (
{
layerId = master01;
shapes = (
{
closed = 1;
nodes = (
(539,0,l),
(539,499,l),
(628,499,l),
(628,593,l),
(-30,593,l),
(-30,499,l),
(79,499,l),
(87,477,o),
(92,448,o),
(92,413,cs),
(92,350,o),
(73,284,o),
(38,225,c),
(90,130,o),
(191,86,o),
(300,86,cs),
(351,86,o),
(389,95,o),
(419,109,c),
(419,0,l)
);
},
{
closed = 1;
nodes = (
(248,181,o),
(189,201,o),
(167,233,c),
(180,256,o),
(190,281,o),
(198,307,c),
(419,307,l),
(419,210,l),
(389,191,o),
(351,181,o),
(305,181,cs)
);
},
{
closed = 1;
nodes = (
(212,439,o),
(206,470,o),
(198,499,c),
(419,499,l),
(419,393,l),
(212,393,l)
);
}
);
vertWidth = 1130;
width = 608;
},
{
layerId = master02;
shapes = (
{
closed = 1;
nodes = (
(552,0,l),
(552,494,l),
(637,494,l),
(637,597,l),
(-30,597,l),
(-30,494,l),
(77,494,l),
(85,473,o),
(90,447,o),
(90,410,cs),
(90,350,o),
(73,283,o),
(37,225,c),
(93,123,o),
(198,82,o),
(307,82,cs),
(354,82,o),
(390,90,o),
(419,102,c),
(419,0,l)
);
},
{
closed = 1;
nodes = (
(258,187,o),
(199,205,o),
(179,235,c),
(191,256,o),
(201,279,o),
(208,304,c),
(419,304,l),
(419,211,l),
(389,195,o),
(354,187,o),
(313,187,cs)
);
},
{
closed = 1;
nodes = (
(223,434,o),
(217,466,o),
(209,494,c),
(419,494,l),
(419,397,l),
(223,397,l)
);
}
);
vertWidth = 1130;
width = 617;
},
{
layerId = master03;
shapes = (
{
closed = 1;
nodes = (
(478,0,l),
(478,539,l),
(596,539,l),
(596,577,l),
(-30,577,l),
(-30,539,l),
(96,539,l),
(110,511,o),
(119,478,o),
(119,433,cs),
(119,360,o),
(91,283,o),
(53,223,c),
(93,150,o),
(175,105,o),
(270,105,cs),
(347,105,o),
(399,128,o),
(431,155,c),
(431,0,l)
);
},
{
closed = 1;
nodes = (
(200,145,o),
(130,184,o),
(107,224,c),
(128,257,o),
(145,296,o),
(155,338,c),
(431,338,l),
(431,208,l),
(403,174,o),
(346,145,o),
(273,145,cs)
);
},
{
closed = 1;
nodes = (
(172,432,o),
(166,485,o),
(144,539,c),
(431,539,l),
(431,376,l),
(163,376,l)
);
}
);
vertWidth = 814;
width = 576;
},
{
layerId = master04;
shapes = (
{
closed = 1;
nodes = (
(485,0,l),
(485,527,l),
(597,527,l),
(597,577,l),
(-30,577,l),
(-30,527,l),
(92,527,l),
(103,500,o),
(110,464,o),
(110,428,cs),
(110,355,o),
(82,284,o),
(47,224,c),
(86,153,o),
(170,102,o),
(272,102,cs),
(343,102,o),
(392,120,o),
(425,144,c),
(425,0,l)
);
},
{
closed = 1;
nodes = (
(207,153,o),
(141,185,o),
(116,226,c),
(134,257,o),
(148,290,o),
(158,327,c),
(425,327,l),
(425,208,l),
(395,176,o),
(343,153,o),
(274,153,cs)
);
},
{
closed = 1;
nodes = (
(175,431,o),
(171,472,o),
(152,527,c),
(425,527,l),
(425,376,l),
(168,376,l)
);
}
);
vertWidth = 1130;
width = 577;
},
{
layerId = master05;
shapes = (
{
closed = 1;
nodes = (
(507,0,l),
(507,510,l),
(608,510,l),
(608,582,l),
(-30,582,l),
(-30,510,l),
(83,510,l),
(92,485,o),
(98,450,o),
(98,420,cs),
(98,350,o),
(73,285,o),
(40,226,c),
(82,148,o),
(173,94,o),
(282,94,cs),
(341,94,o),
(385,106,o),
(418,125,c),
(418,0,l)
);
},
{
closed = 1;
nodes = (
(225,168,o),
(164,191,o),
(138,230,c),
(152,256,o),
(164,283,o),
(173,313,c),
(418,313,l),
(418,209,l),
(387,184,o),
(343,168,o),
(285,168,cs)
);
},
{
closed = 1;
nodes = (
(189,431,o),
(186,464,o),
(171,510,c),
(418,510,l),
(418,382,l),
(185,382,l)
);
}
);
vertWidth = 1130;
width = 588;
},
{
layerId = master06;
shapes = (
{
closed = 1;
nodes = (
(492,0,l),
(492,515,l),
(598,515,l),
(598,577,l),
(-30,577,l),
(-30,515,l),
(86,515,l),
(95,489,o),
(101,451,o),
(101,423,cs),
(101,350,o),
(73,286,o),
(41,226,c),
(78,157,o),
(165,98,o),
(274,98,cs),
(337,98,o),
(384,113,o),
(418,133,c),
(418,0,l)
);
},
{
closed = 1;
nodes = (
(214,162,o),
(153,187,o),
(125,228,c),
(140,256,o),
(152,285,o),
(161,316,c),
(418,316,l),
(418,210,l),
(387,181,o),
(340,162,o),
(276,162,cs)
);
},
{
closed = 1;
nodes = (
(179,425,o),
(174,467,o),
(159,515,c),
(418,515,l),
(418,377,l),
(172,377,l)
);
}
);
width = 578;
},
{
layerId = master07;
shapes = (
{
closed = 1;
nodes = (
(524,0,l),
(524,504,l),
(619,504,l),
(619,588,l),
(-30,588,l),
(-30,504,l),
(81,504,l),
(90,480,o),
(95,449,o),
(95,416,cs),
(95,350,o),
(73,284,o),
(39,225,c),
(86,139,o),
(182,90,o),
(291,90,cs),
(346,90,o),
(387,101,o),
(419,117,c),
(419,0,l)
);
},
{
closed = 1;
nodes = (
(237,175,o),
(177,197,o),
(154,232,c),
(167,256,o),
(178,282,o),
(186,310,c),
(419,310,l),
(419,210,l),
(388,187,o),
(347,175,o),
(296,175,cs)
);
},
{
closed = 1;
nodes = (
(203,414,o),
(196,467,o),
(185,504,c),
(419,504,l),
(419,388,l),
(199,388,l)
);
}
);
vertWidth = 1130;
width = 599;
}
);
unicode = 2597;
},
{
glyphname = Da;
layers = (
{
layerId = master01;
shapes = (
{
closed = 1;
nodes = (
(412,499,l),
(412,345,l),
(202,345,l),
(202,408,l),
(189,419,o),
(167,426,o),
(139,426,cs),
(70,426,o),
(15,381,o),
(15,320,cs),
(15,276,o),
(46,250,o),
(84,245,c),
(99,74,o),
(210,-11,o),
(375,-11,cs),
(460,-11,o),
(523,11,o),
(562,41,c),
(519,121,l),
(491,105,o),
(444,84,o),
(380,84,cs),
(277,84,o),
(205,137,o),
(202,251,c),
(531,251,l),
(531,499,l),
(616,499,l),
(616,593,l),
(-20,593,l),
(-20,499,l)
);
}
);
vertWidth = 1130;
width = 596;
},
{
layerId = master02;
shapes = (
{
closed = 1;
nodes = (
(411,494,l),
(411,350,l),
(213,350,l),
(213,413,l),
(200,424,o),
(177,433,o),
(147,433,cs),
(71,433,o),
(13,385,o),
(13,320,cs),
(13,273,o),
(46,246,o),
(83,240,c),
(102,68,o),
(217,-12,o),
(383,-12,cs),
(470,-12,o),
(534,10,o),
(574,40,c),
(527,128,l),
(500,114,o),
(454,92,o),
(389,92,cs),
(289,92,o),
(217,140,o),
(213,247,c),
(543,247,l),
(543,494,l),
(623,494,l),
(623,597,l),
(-20,597,l),
(-20,494,l)
);
}
);
vertWidth = 1130;
width = 603;
},
{
layerId = master03;
shapes = (
{
closed = 1;
nodes = (
(436,539,l),
(436,330,l),
(138,330,l),
(138,398,l),
(129,402,o),
(119,405,o),
(105,405,cs),
(67,405,o),
(30,373,o),
(30,337,cs),
(30,304,o),
(55,290,o),
(90,290,c),
(94,119,o),
(173,-1,o),
(354,-1,cs),
(427,-1,o),
(481,23,o),
(512,50,c),
(489,84,l),
(459,60,o),
(416,40,o),
(355,40,cs),
(217,40,o),
(140,124,o),
(138,290,c),
(483,290,l),
(483,539,l),
(594,539,l),
(594,577,l),
(-20,577,l),
(-20,539,l)
);
}
);
vertWidth = 814;
width = 574;
},
{
layerId = master04;
shapes = (
{
closed = 1;
nodes = (
(425,527,l),
(425,329,l),
(149,329,l),
(149,395,l),
(138,401,o),
(125,404,o),
(108,404,cs),
(67,404,o),
(27,370,o),
(27,328,cs),
(27,296,o),
(50,278,o),
(89,277,c),
(92,108,o),
(178,-4,o),
(351,-4,cs),
(425,-4,o),
(481,19,o),
(516,47,c),
(489,90,l),
(459,67,o),
(413,48,o),
(352,48,cs),
(226,48,o),
(149,124,o),
(149,277,c),
(485,277,l),
(485,527,l),
(592,527,l),
(592,577,l),
(-20,577,l),
(-20,527,l)
);
}
);
vertWidth = 1130;
width = 572;
},
{
layerId = master05;
shapes = (
{
closed = 1;
nodes = (
(413,510,l),
(413,333,l),
(174,333,l),
(174,397,l),
(161,406,o),
(143,410,o),
(121,410,cs),
(68,410,o),
(21,371,o),
(21,319,cs),
(21,283,o),
(45,261,o),
(86,256,c),
(93,89,o),
(191,-8,o),
(356,-8,cs),
(435,-8,o),
(497,14,o),
(533,43,c),
(499,104,l),
(468,85,o),
(421,66,o),
(359,66,cs),
(249,66,o),
(174,128,o),
(174,259,c),
(501,259,l),
(501,510,l),
(597,510,l),
(597,582,l),
(-20,582,l),
(-20,510,l)
);
}
);
vertWidth = 1130;
width = 577;
},
{
layerId = master06;
shapes = (
{
closed = 1;
nodes = (
(414,515,l),
(414,327,l),
(161,327,l),
(161,392,l),
(148,400,o),
(132,403,o),
(112,403,cs),
(67,403,o),
(24,366,o),
(24,319,cs),
(24,287,o),
(45,266,o),
(87,262,c),
(90,96,o),
(183,-7,o),
(347,-7,cs),
(422,-7,o),
(482,15,o),
(520,44,c),
(490,96,l),
(458,75,o),
(410,57,o),
(349,57,cs),
(237,57,o),
(161,123,o),
(161,263,c),
(487,263,l),
(487,515,l),
(589,515,l),
(589,577,l),
(-20,577,l),
(-20,515,l)
);
}
);
width = 569;
},
{
layerId = master07;
shapes = (
{
closed = 1;
nodes = (
(412,504,l),
(412,339,l),
(189,339,l),
(189,403,l),
(176,413,o),
(156,419,o),
(131,419,cs),
(69,419,o),
(18,376,o),
(18,320,cs),
(18,280,o),
(46,255,o),
(85,250,c),
(96,81,o),
(201,-10,o),
(366,-10,cs),
(448,-10,o),
(511,12,o),
(549,42,c),
(510,113,l),
(480,96,o),
(433,76,o),
(370,76,cs),
(264,76,o),
(190,133,o),
(189,255,c),
(517,255,l),
(517,504,l),
(607,504,l),
(607,588,l),
(-20,588,l),
(-20,504,l)
);
}
);
vertWidth = 1130;
width = 587;
}
);
unicode = 2598;
},
{
glyphname = Dha;
lastChange = "2022-06-07 15:02:57 +0000";
layers = (
{
layerId = master01;
shapes = (
{
closed = 1;
nodes = (
(523,0,l),
(523,499,l),
(613,499,l),
(613,593,l),
(-30,593,l),
(-30,499,l),
(79,499,l),
(87,478,o),
(92,452,o),
(92,407,cs),
(92,345,o),
(73,288,o),
(38,229,c),
(88,137,o),
(174,91,o),
(282,91,cs),
(335,91,o),
(374,102,o),
(403,117,c),
(403,0,l)
);
},
{
closed = 1;
nodes = (
(234,186,o),
(189,205,o),
(167,238,c),
(196,288,o),
(212,343,o),
(212,406,cs),
(212,438,o),
(206,471,o),
(198,499,c),
(403,499,l),
(403,224,l),
(373,200,o),
(334,186,o),
(287,186,cs)
);
}
);
vertWidth = 1130;
width = 593;
},
{
layerId = master02;
shapes = (
{
closed = 1;
nodes = (
(538,0,l),
(538,494,l),
(623,494,l),
(623,597,l),
(-30,597,l),
(-30,494,l),
(78,494,l),
(85,475,o),
(90,451,o),
(90,403,cs),
(90,343,o),
(73,287,o),
(37,229,c),
(91,130,o),
(180,87,o),
(287,87,cs),
(339,87,o),
(376,98,o),
(405,112,c),
(405,0,l)
);
},
{
closed = 1;
nodes = (
(243,192,o),
(199,209,o),
(179,239,c),
(207,288,o),
(223,343,o),
(223,401,cs),
(223,434,o),
(218,466,o),
(210,494,c),
(405,494,l),
(405,226,l),
(375,204,o),
(337,192,o),
(293,192,cs)
);
}
);
vertWidth = 1130;
width = 603;
},
{
layerId = master03;
shapes = (
{
closed = 1;
nodes = (
(471,0,l),
(471,539,l),
(589,539,l),
(589,577,l),
(-30,577,l),
(-30,539,l),
(97,539,l),
(111,512,o),
(120,478,o),
(120,433,cs),
(120,360,o),
(92,293,o),
(53,232,c),
(98,153,o),
(180,111,o),
(269,111,cs),
(334,111,o),
(388,129,o),
(424,158,c),
(424,0,l)
);
},
{
closed = 1;
nodes = (
(202,151,o),
(131,189,o),
(108,233,c),
(144,290,o),
(168,354,o),
(168,433,cs),
(168,463,o),
(160,502,o),
(145,539,c),
(424,539,l),
(424,212,l),
(397,179,o),
(343,151,o),
(271,151,cs)
);
}
);
vertWidth = 814;
width = 569;
},
{
layerId = master04;
shapes = (
{
closed = 1;
nodes = (
(471,0,l),
(471,527,l),
(583,527,l),
(583,577,l),
(-30,577,l),
(-30,527,l),
(92,527,l),
(103,500,o),
(111,465,o),
(111,428,cs),
(111,355,o),
(83,292,o),
(47,232,c),
(88,157,o),
(168,107,o),
(267,107,cs),
(328,107,o),
(377,122,o),
(411,146,c),
(411,0,l)
);
},
{
closed = 1;
nodes = (
(203,159,o),
(142,190,o),
(116,233,c),
(149,290,o),
(171,349,o),
(171,428,cs),
(171,456,o),
(164,492,o),
(152,527,c),
(411,527,l),
(411,212,l),
(382,181,o),
(334,159,o),
(269,159,cs)
);
}
);
vertWidth = 1130;
width = 563;
},
{
layerId = master05;
shapes = (
{
closed = 1;
nodes = (
(488,0,l),
(488,510,l),
(588,510,l),
(588,582,l),
(-30,582,l),
(-30,510,l),
(83,510,l),
(92,485,o),
(98,452,o),
(98,418,cs),
(98,348,o),
(73,290,o),
(40,230,c),
(81,154,o),
(161,99,o),
(270,99,cs),
(326,99,o),
(368,111,o),
(399,129,c),
(399,0,l)
);
},
{
closed = 1;
nodes = (
(214,173,o),
(164,196,o),
(138,234,c),
(168,289,o),
(187,344,o),
(187,417,cs),
(187,446,o),
(181,479,o),
(172,510,c),
(399,510,l),
(399,216,l),
(369,189,o),
(328,173,o),
(273,173,cs)
);
}
);
vertWidth = 1130;
width = 568;
},
{
layerId = master06;
shapes = (
{
closed = 1;
nodes = (
(471,0,l),
(471,515,l),
(577,515,l),
(577,577,l),
(-30,577,l),
(-30,515,l),
(86,515,l),
(95,489,o),
(101,451,o),
(101,423,cs),
(101,350,o),
(73,291,o),
(41,231,c),
(78,162,o),
(155,103,o),
(264,103,cs),
(322,103,o),
(365,116,o),
(397,135,c),
(397,0,l)
);
},
{
closed = 1;
nodes = (
(204,167,o),
(153,192,o),
(125,233,c),
(155,290,o),
(175,344,o),
(175,423,cs),
(175,449,o),
(169,482,o),
(159,515,c),
(397,515,l),
(397,213,l),
(367,185,o),
(326,167,o),
(266,167,cs)
);
}
);
width = 557;
},
{
layerId = master07;
shapes = (
{
closed = 1;
nodes = (
(507,0,l),
(507,504,l),
(601,504,l),
(601,588,l),
(-30,588,l),
(-30,504,l),
(81,504,l),
(90,481,o),
(95,452,o),
(95,412,cs),
(95,346,o),
(73,289,o),
(39,230,c),
(85,145,o),
(168,95,o),
(276,95,cs),
(331,95,o),
(371,107,o),
(401,123,c),
(401,0,l)
);
},
{
closed = 1;
nodes = (
(225,180,o),
(177,201,o),
(154,236,c),
(183,289,o),
(200,343,o),
(200,411,cs),
(200,442,o),
(194,474,o),
(186,504,c),
(401,504,l),
(401,220,l),
(371,195,o),
(331,180,o),
(280,180,cs)
);
}
);
vertWidth = 1130;
width = 581;
}
);
unicode = 2599;
},
{
glyphname = Na;
layers = (
{
layerId = master01;
shapes = (
{
closed = 1;
nodes = (
(246,499,l),
(246,412,l),
(109,372,o),
(35,287,o),
(35,178,cs),
(35,52,o),
(130,-1,o),
(206,-13,c),
(240,79,l),
(196,94,o),
(154,120,o),
(154,180,cs),
(154,246,o),
(217,303,o),
(305,318,c),
(395,299,o),
(455,246,o),
(455,183,cs),
(455,121,o),
(412,95,o),
(366,80,c),
(402,-13,l),
(475,-2,o),
(575,57,o),
(575,178,cs),
(575,297,o),
(490,375,o),
(365,412,c),
(365,499,l),
(629,499,l),
(629,593,l),
(-20,593,l),
(-20,499,l)
);
}
);
vertWidth = 1130;
width = 609;
},
{
layerId = master02;
shapes = (
{
closed = 1;
nodes = (
(245,494,l),
(245,414,l),
(107,375,o),
(33,288,o),
(33,178,cs),
(33,51,o),
(128,-3,o),
(212,-15,c),
(248,88,l),
(206,100,o),
(165,123,o),
(165,181,cs),
(165,242,o),
(226,299,o),
(312,311,c),
(400,294,o),
(455,243,o),
(455,184,cs),
(455,125,o),
(413,102,o),
(368,89,c),
(406,-15,l),
(487,-3,o),
(588,57,o),
(588,178,cs),
(588,299,o),
(503,377,o),
(376,414,c),
(376,494,l),
(639,494,l),
(639,597,l),
(-20,597,l),
(-20,494,l)
);
}
);
vertWidth = 1130;
width = 619;
},
{
layerId = master03;
shapes = (
{
closed = 1;
nodes = (
(258,539,l),
(258,405,l),
(128,367,o),
(44,283,o),
(44,177,cs),
(44,62,o),
(135,11,o),
(182,-5,c),
(199,34,l),
(145,57,o),
(93,103,o),
(93,177,cs),
(93,273,o),
(176,340,o),
(280,367,c),
(386,339,o),
(468,271,o),
(468,177,cs),
(468,102,o),
(420,57,o),
(363,34,c),
(380,-4,l),
(430,12,o),
(517,60,o),
(517,177,cs),
(517,281,o),
(430,368,o),
(305,404,c),
(305,539,l),
(582,539,l),
(582,577,l),
(-20,577,l),
(-20,539,l)
);
}
);
vertWidth = 814;
width = 562;
},
{
layerId = master04;
shapes = (
{
closed = 1;
nodes = (
(254,527,l),
(254,404,l),
(122,365,o),
(44,283,o),
(44,177,cs),
(44,61,o),
(136,9,o),
(183,-6,c),
(206,41,l),
(154,65,o),
(105,105,o),
(105,177,cs),
(105,268,o),
(181,330,o),
(282,356,c),
(384,329,o),
(461,265,o),
(461,177,cs),
(461,105,o),
(415,65,o),
(362,41,c),
(383,-6,l),
(433,8,o),
(522,59,o),
(522,177,cs),
(522,286,o),
(435,367,o),
(314,403,c),
(314,527,l),
(587,527,l),
(587,577,l),
(-20,577,l),
(-20,527,l)
);
}
);
vertWidth = 1130;
width = 567;
},
{
layerId = master05;
shapes = (
{
closed = 1;
nodes = (
(248,510,l),
(248,405,l),
(114,366,o),
(40,285,o),
(40,176,cs),
(40,54,o),
(135,4,o),
(192,-10,c),
(221,57,l),
(173,78,o),
(129,112,o),
(129,178,cs),
(129,259,o),
(198,315,o),
(294,336,c),
(386,312,o),
(453,254,o),
(453,179,cs),
(453,112,o),
(411,79,o),
(363,57,c),
(391,-10,l),
(446,1,o),
(542,56,o),
(542,176,cs),
(542,292,o),
(456,369,o),
(337,406,c),
(337,510,l),
(604,510,l),
(604,582,l),
(-20,582,l),
(-20,510,l)
);
}
);
vertWidth = 1130;
width = 584;
},
{
layerId = master06;
shapes = (
{
closed = 1;
nodes = (
(249,515,l),
(249,403,l),
(116,363,o),
(43,284,o),
(43,176,cs),
(43,59,o),
(137,6,o),
(185,-8,c),
(213,49,l),
(163,73,o),
(117,108,o),
(117,177,cs),
(117,264,o),
(187,320,o),
(287,344,c),
(382,319,o),
(453,258,o),
(453,178,cs),
(453,108,o),
(409,74,o),
(360,48,c),
(386,-8,l),
(436,3,o),
(527,58,o),
(527,176,cs),
(527,290,o),
(440,366,o),
(324,403,c),
(324,515,l),
(593,515,l),
(593,577,l),
(-20,577,l),
(-20,515,l)
);
}
);
width = 573;
},
{
layerId = master07;
shapes = (
{
closed = 1;
nodes = (
(247,504,l),
(247,409,l),
(112,370,o),
(38,286,o),
(38,177,cs),
(38,53,o),
(132,1,o),
(199,-12,c),
(231,69,l),
(185,86,o),
(142,116,o),
(142,179,cs),
(142,252,o),
(209,309,o),
(302,326,c),
(392,305,o),
(454,249,o),
(454,181,cs),
(454,117,o),
(412,88,o),
(365,69,c),
(397,-12,l),
(462,-1,o),
(559,57,o),
(559,177,cs),
(559,294,o),
(474,372,o),
(352,409,c),
(352,504,l),
(617,504,l),
(617,588,l),
(-20,588,l),
(-20,504,l)
);
}
);
vertWidth = 1130;
width = 597;
}
);
unicode = 2600;
},
{
glyphname = Pa;
layers = (
{
layerId = master01;
shapes = (
{
closed = 1;
nodes = (
(-30,593,l),
(-30,499,l),
(85,499,l),
(91,477,o),
(94,450,o),
(94,413,cs),
(94,350,o),
(75,288,o),
(39,229,c),
(90,137,o),
(176,91,o),
(283,91,cs),
(336,91,o),
(373,102,o),
(401,117,c),
(401,0,l),
(521,0,l),
(521,499,l),
(611,499,l),
(611,593,l),
(401,593,l),
(401,223,l),
(372,200,o),
(335,186,o),
(289,186,cs),
(236,186,o),
(190,205,o),
(169,238,c),
(197,288,o),
(214,343,o),
(214,406,cs),
(214,488,o),
(184,560,o),
(165,593,c)
);
}
);
vertWidth = 1130;
width = 591;
},
{
layerId = master02;
shapes = (
{
closed = 1;
nodes = (
(-30,597,l),
(-30,494,l),
(85,494,l),
(89,473,o),
(92,447,o),
(92,410,cs),
(92,350,o),
(75,287,o),
(39,229,c),
(93,130,o),
(182,87,o),
(289,87,cs),
(340,87,o),
(376,97,o),
(403,111,c),
(403,0,l),
(536,0,l),
(536,494,l),
(621,494,l),
(621,597,l),
(403,597,l),
(403,226,l),
(374,204,o),
(339,192,o),
(295,192,cs),
(245,192,o),
(201,209,o),
(181,239,c),
(209,288,o),
(225,343,o),
(225,401,cs),
(225,492,o),
(191,569,o),
(175,597,c)
);
}
);
vertWidth = 1130;
width = 601;
},
{
layerId = master03;
shapes = (
{
closed = 1;
nodes = (
(-30,577,l),
(-30,539,l),
(97,539,l),
(112,509,o),
(120,474,o),
(120,433,cs),
(120,354,o),
(88,294,o),
(53,238,c),
(90,167,o),
(168,117,o),
(264,117,cs),
(336,117,o),
(386,138,o),
(417,166,c),
(417,0,l),
(464,0,l),
(464,539,l),
(582,539,l),
(582,577,l),
(417,577,l),
(417,222,l),
(390,184,o),
(339,157,o),
(267,157,cs),
(201,157,o),
(132,193,o),
(108,239,c),
(141,293,o),
(168,350,o),
(168,433,cs),
(168,479,o),
(152,532,o),
(127,577,c)
);
}
);
vertWidth = 814;
width = 562;
},
{
layerId = master04;
shapes = (
{
closed = 1;
nodes = (
(-30,577,l),
(-30,527,l),
(90,527,l),
(103,499,o),
(111,465,o),
(111,428,cs),
(111,352,o),
(81,293,o),
(47,235,c),
(84,165,o),
(162,110,o),
(264,110,cs),
(328,110,o),
(374,126,o),
(406,149,c),
(406,0,l),
(466,0,l),
(466,527,l),
(579,527,l),
(579,577,l),
(406,577,l),
(406,215,l),
(376,183,o),
(331,162,o),
(267,162,cs),
(202,162,o),
(142,193,o),
(116,236,c),
(148,292,o),
(171,347,o),
(171,428,cs),
(171,476,o),
(155,530,o),
(128,577,c)
);
}
);
vertWidth = 1130;
width = 559;
},
{
layerId = master05;
shapes = (
{
closed = 1;
nodes = (
(-30,582,l),
(-30,510,l),
(84,510,l),
(93,485,o),
(99,454,o),
(99,420,cs),
(99,350,o),
(73,290,o),
(40,230,c),
(82,154,o),
(162,99,o),
(270,99,cs),
(326,99,o),
(366,111,o),
(397,128,c),
(397,0,l),
(486,0,l),
(486,510,l),
(586,510,l),
(586,582,l),
(397,582,l),
(397,215,l),
(367,189,o),
(328,173,o),
(273,173,cs),
(214,173,o),
(165,196,o),
(139,234,c),
(168,289,o),
(187,344,o),
(187,417,cs),
(187,477,o),
(166,537,o),
(140,582,c)
);
}
);
vertWidth = 1130;
width = 566;
},
{
layerId = master06;
shapes = (
{
closed = 1;
nodes = (
(-30,577,l),
(-30,515,l),
(83,515,l),
(93,489,o),
(101,456,o),
(101,423,cs),
(101,350,o),
(73,291,o),
(41,231,c),
(78,162,o),
(155,103,o),
(264,103,cs),
(321,103,o),
(363,115,o),
(395,134,c),
(395,0,l),
(469,0,l),
(469,515,l),
(575,515,l),
(575,577,l),
(395,577,l),
(395,211,l),
(365,184,o),
(324,167,o),
(266,167,cs),
(204,167,o),
(153,192,o),
(125,233,c),
(155,290,o),
(175,344,o),
(175,423,cs),
(175,472,o),
(158,527,o),
(129,577,c)
);
}
);
width = 555;
},
{
layerId = master07;
shapes = (
{
closed = 1;
nodes = (
(-30,588,l),
(-30,504,l),
(85,504,l),
(91,480,o),
(96,451,o),
(96,416,cs),
(96,350,o),
(74,289,o),
(40,230,c),
(86,145,o),
(169,95,o),
(277,95,cs),
(331,95,o),
(370,106,o),
(399,122,c),
(399,0,l),
(505,0,l),
(505,504,l),
(599,504,l),
(599,588,l),
(399,588,l),
(399,219,l),
(370,194,o),
(332,180,o),
(281,180,cs),
(226,180,o),
(178,201,o),
(155,236,c),
(184,289,o),
(201,343,o),
(201,411,cs),
(201,483,o),
(175,549,o),
(153,588,c)
);
}
);
vertWidth = 1130;
width = 579;
}
);
unicode = 2602;
},
{
glyphname = Pha;
lastChange = "2022-06-07 15:02:57 +0000";
layers = (
{
layerId = master01;
shapes = (
{
closed = 1;
nodes = (
(473,-15,o),
(532,53,o),
(532,128,cs),
(532,202,o),
(469,247,o),
(385,247,cs),
(316,247,o),
(248,215,o),
(191,142,c),
(170,163,o),
(154,193,o),
(154,231,cs),
(154,285,o),
(192,320,o),
(258,320,cs),
(497,320,l),
(497,499,l),
(585,499,l),
(585,593,l),
(-20,593,l),
(-20,499,l),
(378,499,l),
(378,416,l),
(230,416,ls),
(112,416,o),
(34,352,o),
(34,233,cs),
(34,87,o),
(180,-15,o),
(331,-15,cs)
);
},
{
closed = 1;
nodes = (
(306,76,o),
(283,80,o),
(264,87,c),
(300,137,o),
(339,164,o),
(378,164,cs),
(400,164,o),
(419,150,o),
(419,128,cs),
(419,99,o),
(396,76,o),
(332,76,cs)
);
}
);
vertWidth = 1130;
width = 565;
},
{
layerId = master02;
shapes = (
{
closed = 1;
nodes = (
(482,-17,o),
(541,54,o),
(541,129,cs),
(541,204,o),
(477,251,o),
(391,251,cs),
(323,251,o),
(256,223,o),
(197,149,c),
(179,169,o),
(164,196,o),
(164,231,cs),
(164,280,o),
(199,316,o),
(264,316,cs),
(504,316,l),
(504,494,l),
(589,494,l),
(589,597,l),
(-20,597,l),
(-20,494,l),
(373,494,l),
(373,420,l),
(230,420,ls),
(110,420,o),
(31,356,o),
(31,233,cs),
(31,88,o),
(178,-17,o),
(333,-17,cs)
);
},
{
closed = 1;
nodes = (
(311,82,o),
(293,84,o),
(276,90,c),
(309,136,o),
(345,161,o),
(381,161,cs),
(400,161,o),
(417,148,o),
(417,129,cs),
(417,104,o),
(399,82,o),
(334,82,cs)
);
}
);
vertWidth = 1130;
width = 569;
},
{
layerId = master03;
shapes = (
{
closed = 1;
nodes = (
(442,-2,o),
(492,54,o),
(492,120,cs),
(492,178,o),
(446,227,o),
(372,227,cs),
(295,227,o),
(228,179,o),
(174,96,c),
(137,125,o),
(104,179,o),
(104,242,cs),
(104,318,o),
(147,358,o),
(222,358,cs),
(459,358,l),
(459,539,l),
(574,539,l),
(574,577,l),
(-20,577,l),
(-20,539,l),
(412,539,l),
(412,398,l),
(212,398,ls),
(118,398,o),
(55,342,o),
(55,244,cs),
(55,92,o),
(188,-2,o),
(331,-2,cs)
);
},
{
closed = 1;
nodes = (
(284,39,o),
(235,54,o),
(211,69,c),
(260,146,o),
(315,185,o),
(369,185,cs),
(412,185,o),
(444,158,o),
(444,120,cs),
(444,70,o),
(404,39,o),
(333,39,cs)
);
}
);
vertWidth = 814;
width = 554;
},
{
layerId = master04;
shapes = (
{
closed = 1;
nodes = (
(441,-4,o),
(496,52,o),
(496,121,cs),
(496,185,o),
(444,230,o),
(369,230,cs),
(293,230,o),
(224,185,o),
(172,107,c),
(140,133,o),
(112,181,o),
(112,237,cs),
(112,310,o),
(156,347,o),
(228,347,cs),
(465,347,l),
(465,527,l),
(574,527,l),
(574,577,l),
(-20,577,l),
(-20,527,l),
(405,527,l),
(405,399,l),
(220,399,ls),
(118,399,o),
(51,340,o),
(51,239,cs),
(51,89,o),
(188,-4,o),
(329,-4,cs)
);
},
{
closed = 1;
nodes = (
(284,48,o),
(241,61,o),
(216,74,c),
(264,144,o),
(316,180,o),
(368,180,cs),
(407,180,o),
(435,158,o),
(435,121,cs),
(435,76,o),
(396,48,o),
(330,48,cs)
);
}
);
vertWidth = 1130;
width = 554;
},
{
layerId = master05;
shapes = (
{
closed = 1;
nodes = (
(450,-10,o),
(510,51,o),
(510,124,cs),
(510,196,o),
(451,238,o),
(372,238,cs),
(298,238,o),
(229,198,o),
(176,125,c),
(151,148,o),
(131,186,o),
(131,232,cs),
(131,296,o),
(174,331,o),
(242,331,cs),
(479,331,l),
(479,510,l),
(577,510,l),
(577,582,l),
(-20,582,l),
(-20,510,l),
(392,510,l),
(392,405,l),
(228,405,ls),
(116,405,o),
(42,342,o),
(42,234,cs),
(42,86,o),
(186,-10,o),
(328,-10,cs)
);
},
{
closed = 1;
nodes = (
(292,63,o),
(260,71,o),
(236,82,c),
(279,140,o),
(323,171,o),
(370,171,cs),
(401,171,o),
(424,155,o),
(424,124,cs),
(424,88,o),
(390,63,o),
(329,63,cs)
);
}
);
vertWidth = 1130;
width = 557;
},
{
layerId = master06;
shapes = (
{
closed = 1;
nodes = (
(439,-7,o),
(500,50,o),
(500,123,cs),
(500,193,o),
(442,234,o),
(366,234,cs),
(289,234,o),
(221,190,o),
(170,117,c),
(143,140,o),
(120,182,o),
(120,232,cs),
(120,301,o),
(166,336,o),
(235,336,cs),
(471,336,l),
(471,515,l),
(573,515,l),
(573,577,l),
(-20,577,l),
(-20,515,l),
(398,515,l),
(398,400,l),
(228,400,ls),
(118,400,o),
(46,338,o),
(46,234,cs),
(46,85,o),
(189,-7,o),
(326,-7,cs)
);
},
{
closed = 1;
nodes = (
(285,57,o),
(246,69,o),
(223,80,c),
(270,141,o),
(316,175,o),
(367,175,cs),
(401,175,o),
(426,157,o),
(426,123,cs),
(426,83,o),
(387,57,o),
(327,57,cs)
);
}
);
width = 553;
},
{
layerId = master07;
shapes = (
{
closed = 1;
nodes = (
(462,-12,o),
(522,52,o),
(522,126,cs),
(522,199,o),
(461,243,o),
(379,243,cs),
(308,243,o),
(239,207,o),
(184,133,c),
(161,155,o),
(143,189,o),
(143,231,cs),
(143,290,o),
(183,325,o),
(250,325,cs),
(488,325,l),
(488,504,l),
(581,504,l),
(581,588,l),
(-20,588,l),
(-20,504,l),
(385,504,l),
(385,411,l),
(229,411,ls),
(114,411,o),
(38,348,o),
(38,233,cs),
(38,87,o),
(183,-12,o),
(330,-12,cs)
);
},
{
closed = 1;
nodes = (
(300,70,o),
(273,76,o),
(251,85,c),
(290,138,o),
(332,168,o),
(374,168,cs),
(400,168,o),
(421,152,o),
(421,126,cs),
(421,94,o),
(393,70,o),
(331,70,cs)
);
}
);
vertWidth = 1130;
width = 561;
}
);
unicode = 2603;
},
{
glyphname = Ba;
lastChange = "2022-06-07 15:02:57 +0000";
layers = (
{
layerId = master01;
shapes = (
{
closed = 1;
nodes = (
(544,0,l),
(544,499,l),
(634,499,l),
(634,593,l),
(-40,593,l),
(-40,499,l),
(41,499,l),
(57,432,o),
(103,371,o),
(169,336,c),
(105,309,o),
(57,257,o),
(31,196,c),
(84,109,o),
(187,62,o),
(298,62,cs),
(346,62,o),
(389,71,o),
(424,88,c),
(424,0,l)
);
},
{
closed = 1;
nodes = (
(243,158,o),
(195,182,o),
(166,211,c),
(193,259,o),
(246,290,o),
(330,290,cs),
(424,290,l),
(424,188,l),
(396,170,o),
(353,158,o),
(311,158,cs)
);
},
{
closed = 1;
nodes = (
(237,382,o),
(184,443,o),
(170,499,c),
(424,499,l),
(424,382,l),
(308,382,ls)
);
}
);
vertWidth = 1130;
width = 614;
},
{
layerId = master02;
shapes = (
{
closed = 1;
nodes = (
(560,0,l),
(560,494,l),
(645,494,l),
(645,597,l),
(-40,597,l),
(-40,494,l),
(40,494,l),
(56,429,o),
(100,371,o),
(166,335,c),
(102,307,o),
(55,254,o),
(30,194,c),
(81,109,o),
(184,59,o),
(303,59,cs),
(346,59,o),
(391,67,o),
(427,83,c),
(427,0,l)
);
},
{
closed = 1;
nodes = (
(251,164,o),
(206,187,o),
(180,212,c),
(204,257,o),
(253,286,o),
(340,286,cs),
(427,286,l),
(427,191,l),
(399,174,o),
(355,164,o),
(319,164,cs)
);
},
{
closed = 1;
nodes = (
(243,389,o),
(196,443,o),
(183,494,c),
(427,494,l),
(427,386,l),
(312,386,l)
);
}
);
vertWidth = 1130;
width = 625;
},
{
layerId = master03;
shapes = (
{
closed = 1;
nodes = (
(484,0,l),
(484,539,l),
(602,539,l),
(602,577,l),
(-40,577,l),
(-40,539,l),
(61,539,l),
(77,441,o),
(146,373,o),
(208,349,c),
(134,328,o),
(80,278,o),
(51,219,c),
(99,135,o),
(182,87,o),
(279,87,cs),
(353,87,o),
(404,108,o),
(437,131,c),
(437,0,l)
);
},
{
closed = 1;
nodes = (
(210,128,o),
(143,163,o),
(102,222,c),
(141,284,o),
(218,326,o),
(304,326,cs),
(437,326,l),
(437,180,l),
(406,153,o),
(361,128,o),
(285,128,cs)
);
},
{
closed = 1;
nodes = (
(223,366,o),
(129,437,o),
(110,539,c),
(437,539,l),
(437,366,l),
(301,366,ls)
);
}
);
vertWidth = 814;
width = 582;
},
{
layerId = master04;
shapes = (
{
closed = 1;
nodes = (
(485,0,l),
(485,527,l),
(598,527,l),
(598,577,l),
(-40,577,l),
(-40,527,l),
(55,527,l),
(70,438,o),
(133,371,o),
(195,345,c),
(126,322,o),
(73,273,o),
(44,212,c),
(97,122,o),
(189,81,o),
(280,81,cs),
(347,81,o),
(393,97,o),
(425,117,c),
(425,0,l)
);
},
{
closed = 1;
nodes = (
(211,133,o),
(149,164,o),
(110,215,c),
(147,274,o),
(219,316,o),
(300,316,cs),
(425,316,l),
(425,177,l),
(395,153,o),
(351,133,o),
(285,133,cs)
);
},
{
closed = 1;
nodes = (
(211,371,o),
(136,440,o),
(116,527,c),
(425,527,l),
(425,367,l),
(287,367,l)
);
}
);
vertWidth = 1130;
width = 578;
},
{
layerId = master05;
shapes = (
{
closed = 1;
nodes = (
(505,0,l),
(505,510,l),
(606,510,l),
(606,582,l),
(-40,582,l),
(-40,510,l),
(45,510,l),
(59,435,o),
(113,368,o),
(177,338,c),
(114,313,o),
(62,263,o),
(34,202,c),
(91,107,o),
(193,70,o),
(287,70,cs),
(344,70,o),
(385,82,o),
(416,99,c),
(416,0,l)
);
},
{
closed = 1;
nodes = (
(222,144,o),
(168,170,o),
(133,209,c),
(166,262,o),
(228,300,o),
(307,300,cs),
(416,300,l),
(416,179,l),
(387,159,o),
(346,144,o),
(293,144,cs)
);
},
{
closed = 1;
nodes = (
(212,377,o),
(155,441,o),
(137,510,c),
(416,510,l),
(416,373,l),
(287,373,l)
);
}
);
vertWidth = 1130;
width = 586;
},
{
layerId = master06;
shapes = (
{
closed = 1;
nodes = (
(487,0,l),
(487,515,l),
(593,515,l),
(593,577,l),
(-40,577,l),
(-40,515,l),
(47,515,l),
(62,435,o),
(120,366,o),
(180,339,c),
(118,315,o),
(65,266,o),
(36,205,c),
(94,107,o),
(196,74,o),
(282,74,cs),
(342,74,o),
(383,86,o),
(413,103,c),
(413,0,l)
);
},
{
closed = 1;
nodes = (
(213,138,o),
(155,165,o),
(118,208,c),
(153,264,o),
(220,305,o),
(296,305,cs),
(413,305,l),
(413,176,l),
(384,155,o),
(343,138,o),
(284,138,cs)
);
},
{
closed = 1;
nodes = (
(204,369,o),
(142,440,o),
(122,515,c),
(413,515,l),
(413,369,l),
(280,369,ls)
);
}
);
width = 573;
},
{
layerId = master07;
shapes = (
{
closed = 1;
nodes = (
(526,0,l),
(526,504,l),
(621,504,l),
(621,588,l),
(-40,588,l),
(-40,504,l),
(43,504,l),
(59,433,o),
(108,370,o),
(173,337,c),
(110,311,o),
(60,260,o),
(33,199,c),
(87,108,o),
(190,66,o),
(293,66,cs),
(345,66,o),
(387,77,o),
(420,93,c),
(420,0,l)
);
},
{
closed = 1;
nodes = (
(233,152,o),
(182,177,o),
(151,210,c),
(180,260,o),
(237,295,o),
(319,295,cs),
(420,295,l),
(420,184,l),
(392,165,o),
(350,152,o),
(303,152,cs)
);
},
{
closed = 1;
nodes = (
(226,378,o),
(171,440,o),
(154,504,c),
(420,504,l),
(420,378,l),
(302,378,ls)
);
}
);
vertWidth = 1130;
width = 601;
}
);
unicode = 2604;
},
{
glyphname = Bha;
layers = (
{
layerId = master01;
shapes = (
{
closed = 1;
nodes = (
(409,499,l),
(406,460,o),
(394,418,o),
(377,383,c),
(341,409,o),
(283,434,o),
(214,434,cs),
(111,434,o),
(40,381,o),
(40,307,cs),
(40,227,o),
(112,181,o),
(214,181,cs),
(283,181,o),
(349,207,o),
(387,245,c),
(395,231,o),
(400,215,o),
(400,194,cs),
(400,132,o),
(341,84,o),
(239,84,cs),
(161,84,o),
(101,106,o),
(63,125,c),
(25,36,l),
(76,9,o),
(151,-11,o),
(240,-11,cs),
(403,-11,o),
(528,60,o),
(528,187,cs),
(528,238,o),
(502,284,o),
(467,318,c),
(499,363,o),
(524,427,o),
(529,499,c),
(600,499,l),
(600,593,l),
(-20,593,l),
(-20,499,l)
);
},
{
closed = 1;
nodes = (
(183,267,o),
(158,281,o),
(158,306,cs),
(158,332,o),
(185,347,o),
(226,347,cs),
(266,347,o),
(302,332,o),
(329,312,c),
(301,282,o),
(264,267,o),
(222,267,cs)
);
}
);
vertWidth = 1130;
width = 570;
},
{
layerId = master02;
shapes = (
{
closed = 1;
nodes = (
(408,494,l),
(404,459,o),
(393,422,o),
(377,391,c),
(340,416,o),
(284,440,o),
(217,440,cs),
(111,440,o),
(39,383,o),
(39,308,cs),
(39,227,o),
(113,179,o),
(218,179,cs),
(284,179,o),
(350,203,o),
(388,238,c),
(394,227,o),
(398,214,o),
(398,196,cs),
(398,137,o),
(340,92,o),
(241,92,cs),
(163,92,o),
(103,114,o),
(64,132,c),
(24,35,l),
(77,7,o),
(154,-12,o),
(243,-12,cs),
(409,-12,o),
(541,58,o),
(541,188,cs),
(541,238,o),
(515,284,o),
(479,319,c),
(510,362,o),
(534,423,o),
(540,494,c),
(609,494,l),
(609,597,l),
(-20,597,l),
(-20,494,l)
);
},
{
closed = 1;
nodes = (
(193,272,o),
(169,285,o),
(169,307,cs),
(169,332,o),
(195,345,o),
(231,345,cs),
(266,345,o),
(300,332,o),
(326,313,c),
(298,284,o),
(263,272,o),
(227,272,cs)
);
}
);
vertWidth = 1130;
width = 579;
},
{
layerId = master03;
shapes = (
{
closed = 1;
nodes = (
(435,539,l),
(434,487,o),
(420,407,o),
(389,350,c),
(350,382,o),
(287,415,o),
(206,415,cs),
(114,415,o),
(61,368,o),
(61,306,cs),
(61,238,o),
(126,200,o),
(207,200,cs),
(293,200,o),
(356,242,o),
(393,283,c),
(413,261,o),
(432,226,o),
(432,183,cs),
(432,106,o),
(368,37,o),
(238,37,cs),
(154,37,o),
(92,70,o),
(61,92,c),
(37,58,l),
(67,32,o),
(141,-3,o),
(236,-3,cs),
(383,-3,o),
(480,66,o),
(480,183,cs),
(480,236,o),
(455,287,o),
(420,319,c),
(455,373,o),
(481,456,o),
(484,539,c),
(578,539,l),
(578,577,l),
(-20,577,l),
(-20,539,l)
);
},
{
closed = 1;
nodes = (
(148,241,o),
(109,267,o),
(109,306,cs),
(109,345,o),
(143,375,o),
(210,375,cs),
(276,375,o),
(329,347,o),
(368,315,c),
(328,268,o),
(272,241,o),
(213,241,cs)
);
}
);
vertWidth = 814;
width = 548;
},
{
layerId = master04;
shapes = (
{
closed = 1;
nodes = (
(424,527,l),
(423,474,o),
(410,405,o),
(383,352,c),
(348,381,o),
(285,415,o),
(205,415,cs),
(113,415,o),
(52,370,o),
(52,304,cs),
(52,233,o),
(118,195,o),
(203,195,cs),
(285,195,o),
(349,232,o),
(387,276,c),
(406,253,o),
(420,223,o),
(420,186,cs),
(420,110,o),
(357,46,o),
(234,46,cs),
(154,46,o),
(93,74,o),
(60,95,c),
(33,50,l),
(69,23,o),
(141,-5,o),
(233,-5,cs),
(382,-5,o),
(481,67,o),
(481,184,cs),
(481,237,o),
(456,286,o),
(423,318,c),
(458,370,o),
(482,447,o),
(485,527,c),
(572,527,l),
(572,577,l),
(-20,577,l),
(-20,527,l)
);
},
{
closed = 1;
nodes = (
(148,246,o),
(113,268,o),
(113,304,cs),
(113,338,o),
(146,365,o),
(210,365,cs),
(272,365,o),
(320,340,o),
(354,313,c),
(318,271,o),
(269,246,o),
(209,246,cs)
);
}
);
vertWidth = 1130;
width = 542;
},
{
layerId = master05;
shapes = (
{
closed = 1;
nodes = (
(411,510,l),
(410,459,o),
(398,407,o),
(376,363,c),
(343,390,o),
(282,421,o),
(207,421,cs),
(112,421,o),
(42,375,o),
(42,303,cs),
(42,228,o),
(110,187,o),
(204,187,cs),
(280,187,o),
(343,216,o),
(384,259,c),
(397,240,o),
(405,218,o),
(405,191,cs),
(405,120,o),
(344,65,o),
(233,65,cs),
(155,65,o),
(97,87,o),
(60,106,c),
(28,39,l),
(72,12,o),
(145,-8,o),
(233,-8,cs),
(388,-8,o),
(497,65,o),
(497,186,cs),
(497,239,o),
(472,285,o),
(439,318,c),
(473,367,o),
(496,434,o),
(499,510,c),
(577,510,l),
(577,582,l),
(-20,582,l),
(-20,510,l)
);
},
{
closed = 1;
nodes = (
(160,256,o),
(130,273,o),
(130,303,cs),
(130,331,o),
(160,352,o),
(214,352,cs),
(265,352,o),
(306,333,o),
(336,310,c),
(305,276,o),
(264,256,o),
(210,256,cs)
);
}
);
vertWidth = 1130;
width = 547;
},
{
layerId = master06;
shapes = (
{
closed = 1;
nodes = (
(412,515,l),
(411,460,o),
(400,402,o),
(376,354,c),
(346,380,o),
(282,415,o),
(204,415,cs),
(112,415,o),
(43,372,o),
(43,302,cs),
(43,228,o),
(109,190,o),
(199,190,cs),
(278,190,o),
(341,221,o),
(382,266,c),
(398,244,o),
(408,219,o),
(408,189,cs),
(408,115,o),
(346,56,o),
(230,56,cs),
(153,56,o),
(95,78,o),
(59,98,c),
(29,41,l),
(71,14,o),
(142,-7,o),
(230,-7,cs),
(381,-7,o),
(482,68,o),
(482,185,cs),
(482,239,o),
(458,286,o),
(426,317,c),
(461,369,o),
(483,437,o),
(486,515,c),
(566,515,l),
(566,577,l),
(-20,577,l),
(-20,515,l)
);
},
{
closed = 1;
nodes = (
(149,251,o),
(117,269,o),
(117,302,cs),
(117,331,o),
(149,355,o),
(209,355,cs),
(266,355,o),
(309,333,o),
(339,309,c),
(308,274,o),
(265,251,o),
(205,251,cs)
);
}
);
width = 536;
},
{
layerId = master07;
shapes = (
{
closed = 1;
nodes = (
(409,504,l),
(407,460,o),
(395,413,o),
(376,374,c),
(342,400,o),
(283,428,o),
(211,428,cs),
(111,428,o),
(41,378,o),
(41,305,cs),
(41,227,o),
(111,184,o),
(209,184,cs),
(282,184,o),
(347,212,o),
(386,252,c),
(396,236,o),
(403,217,o),
(403,193,cs),
(403,127,o),
(343,75,o),
(236,75,cs),
(158,75,o),
(99,97,o),
(62,116,c),
(26,38,l),
(74,10,o),
(148,-10,o),
(237,-10,cs),
(396,-10,o),
(513,63,o),
(513,187,cs),
(513,239,o),
(487,285,o),
(454,318,c),
(487,365,o),
(511,430,o),
(515,504,c),
(589,504,l),
(589,588,l),
(-20,588,l),
(-20,504,l)
);
},
{
closed = 1;
nodes = (
(172,262,o),
(145,277,o),
(145,305,cs),
(145,332,o),
(173,350,o),
(221,350,cs),
(266,350,o),
(304,332,o),
(333,311,c),
(303,279,o),
(264,262,o),
(217,262,cs)
);
}
);
vertWidth = 1130;
width = 559;
}
);
unicode = 2605;
},
{
glyphname = Ma;
lastChange = "2022-06-07 15:02:57 +0000";
layers = (
{
layerId = master01;
shapes = (
{
closed = 1;
nodes = (
(521,0,l),
(521,499,l),
(611,499,l),
(611,593,l),
(401,593,l),
(401,325,l),
(221,325,l),
(219,396,o),
(209,497,o),
(188,593,c),
(-30,593,l),
(-30,499,l),
(88,499,l),
(99,430,o),
(103,355,o),
(103,309,cs),
(103,303,o),
(103,299,o),
(102,285,c),
(33,101,l),
(41,75,o),
(70,50,o),
(106,50,cs),
(152,50,o),
(217,84,o),
(222,230,c),
(401,230,l),
(401,0,l)
);
}
);
vertWidth = 1130;
width = 591;
},
{
layerId = master02;
shapes = (
{
closed = 1;
nodes = (
(535,0,l),
(535,494,l),
(620,494,l),
(620,597,l),
(402,597,l),
(402,333,l),
(233,333,l),
(231,400,o),
(222,500,o),
(199,597,c),
(-30,597,l),
(-30,494,l),
(89,494,l),
(99,429,o),
(102,360,o),
(102,315,cs),
(102,308,o),
(102,303,o),
(100,288,c),
(31,105,l),
(40,75,o),
(73,49,o),
(111,49,cs),
(157,49,o),
(228,77,o),
(233,229,c),
(402,229,l),
(402,0,l)
);
}
);
vertWidth = 1130;
width = 600;
},
{
layerId = master03;
shapes = (
{
closed = 1;
nodes = (
(454,0,l),
(454,539,l),
(572,539,l),
(572,577,l),
(407,577,l),
(407,291,l),
(170,291,l),
(166,380,o),
(150,485,o),
(132,577,c),
(-30,577,l),
(-30,539,l),
(94,539,l),
(110,448,o),
(121,343,o),
(121,290,cs),
(121,286,o),
(121,269,o),
(120,261,c),
(54,92,l),
(58,82,o),
(69,70,o),
(90,70,cs),
(133,70,o),
(166,159,o),
(169,251,c),
(407,251,l),
(407,0,l)
);
}
);
vertWidth = 814;
width = 552;
},
{
layerId = master04;
shapes = (
{
closed = 1;
nodes = (
(463,0,l),
(463,527,l),
(575,527,l),
(575,577,l),
(403,577,l),
(403,294,l),
(175,294,l),
(171,382,o),
(158,487,o),
(140,577,c),
(-30,577,l),
(-30,527,l),
(92,527,l),
(104,441,o),
(115,341,o),
(115,290,cs),
(115,286,o),
(115,276,o),
(114,268,c),
(46,90,l),
(51,78,o),
(64,62,o),
(89,62,cs),
(133,62,o),
(172,135,o),
(175,243,c),
(403,243,l),
(403,0,l)
);
}
);
vertWidth = 1130;
width = 555;
},
{
layerId = master05;
shapes = (
{
closed = 1;
nodes = (
(488,0,l),
(488,510,l),
(589,510,l),
(589,582,l),
(400,582,l),
(400,307,l),
(194,307,l),
(190,388,o),
(180,490,o),
(161,582,c),
(-30,582,l),
(-30,510,l),
(88,510,l),
(99,432,o),
(106,344,o),
(106,296,cs),
(106,291,o),
(106,288,o),
(105,278,c),
(36,92,l),
(42,74,o),
(62,52,o),
(94,52,cs),
(140,52,o),
(190,101,o),
(194,233,c),
(400,233,l),
(400,0,l)
);
}
);
vertWidth = 1130;
width = 569;
},
{
layerId = master06;
shapes = (
{
closed = 1;
nodes = (
(473,0,l),
(473,515,l),
(579,515,l),
(579,577,l),
(399,577,l),
(399,298,l),
(181,298,l),
(177,385,o),
(167,488,o),
(149,577,c),
(-30,577,l),
(-30,515,l),
(88,515,l),
(98,433,o),
(108,338,o),
(108,290,cs),
(108,286,o),
(108,283,o),
(107,275,c),
(38,88,l),
(43,74,o),
(58,53,o),
(88,53,cs),
(134,53,o),
(178,109,o),
(182,234,c),
(399,234,l),
(399,0,l)
);
}
);
width = 559;
},
{
layerId = master07;
shapes = (
{
closed = 1;
nodes = (
(506,0,l),
(506,504,l),
(601,504,l),
(601,588,l),
(401,588,l),
(401,317,l),
(208,317,l),
(206,392,o),
(196,494,o),
(175,588,c),
(-30,588,l),
(-30,504,l),
(88,504,l),
(99,431,o),
(105,350,o),
(105,303,cs),
(105,298,o),
(105,294,o),
(103,282,c),
(34,97,l),
(41,75,o),
(66,51,o),
(100,51,cs),
(147,51,o),
(204,92,o),
(208,231,c),
(401,231,l),
(401,0,l)
);
}
);
vertWidth = 1130;
width = 581;
}
);
unicode = 2606;
},
{
glyphname = Ya;
lastChange = "2022-06-08 23:10:25 +0000";
layers = (
{
layerId = master01;
shapes = (
{
closed = 1;
nodes = (
(674,0,l),
(674,499,l),
(763,499,l),
(763,593,l),
(-30,593,l),
(-30,499,l),
(82,499,l),
(88,476,o),
(92,449,o),
(92,417,cs),
(92,353,o),
(76,291,o),
(38,230,c),
(91,111,o),
(202,68,o),
(320,68,cs),
(369,68,o),
(408,77,o),
(438,87,c),
(438,281,l),
(554,281,l),
(554,0,l)
);
},
{
closed = 1;
nodes = (
(245,166,o),
(194,192,o),
(167,231,c),
(195,277,o),
(212,333,o),
(212,416,cs),
(212,442,o),
(208,471,o),
(202,499,c),
(554,499,l),
(554,377,l),
(318,377,l),
(318,166,l)
);
}
);
vertWidth = 1130;
width = 743;
},
{
layerId = master02;
shapes = (
{
closed = 1;
nodes = (
(695,0,l),
(695,494,l),
(780,494,l),
(780,597,l),
(-30,597,l),
(-30,494,l),
(81,494,l),
(86,472,o),
(90,446,o),
(90,415,cs),
(90,353,o),
(76,293,o),
(36,228,c),
(93,106,o),
(209,65,o),
(329,65,cs),
(381,65,o),
(423,75,o),
(454,85,c),
(454,275,l),
(562,275,l),
(562,0,l)
);
},
{
closed = 1;
nodes = (
(255,172,o),
(205,196,o),
(179,230,c),
(206,276,o),
(223,332,o),
(223,414,cs),
(223,438,o),
(219,467,o),
(214,494,c),
(562,494,l),
(562,379,l),
(321,379,l),
(321,172,l)
);
}
);
vertWidth = 1130;
width = 760;
},
{
layerId = master03;
shapes = (
{
closed = 1;
nodes = (
(596,0,l),
(596,539,l),
(714,539,l),
(714,577,l),
(-30,577,l),
(-30,539,l),
(104,539,l),
(114,510,o),
(120,472,o),
(120,431,cs),
(120,353,o),
(95,289,o),
(55,240,c),
(100,141,o),
(189,93,o),
(296,93,cs),
(328,93,o),
(359,97,o),
(377,103,c),
(377,324,l),
(549,324,l),
(549,0,l)
);
},
{
closed = 1;
nodes = (
(214,134,o),
(146,171,o),
(108,238,c),
(143,289,o),
(169,339,o),
(169,431,cs),
(169,467,o),
(162,507,o),
(151,539,c),
(549,539,l),
(549,364,l),
(330,364,l),
(330,135,l)
);
}
);
vertWidth = 814;
width = 694;
},
{
layerId = master04;
shapes = (
{
closed = 1;
nodes = (
(597,0,l),
(597,527,l),
(709,527,l),
(709,577,l),
(-30,577,l),
(-30,527,l),
(95,527,l),
(104,501,o),
(111,466,o),
(111,427,cs),
(111,353,o),
(86,287,o),
(49,238,c),
(91,135,o),
(184,87,o),
(293,87,cs),
(327,87,o),
(357,92,o),
(378,99,c),
(378,314,l),
(537,314,l),
(537,0,l)
);
},
{
closed = 1;
nodes = (
(212,138,o),
(149,175,o),
(116,236,c),
(148,285,o),
(172,338,o),
(172,427,cs),
(172,461,o),
(165,497,o),
(154,527,c),
(537,527,l),
(537,366,l),
(318,366,l),
(318,139,l)
);
}
);
vertWidth = 1130;
width = 689;
},
{
layerId = master05;
shapes = (
{
closed = 1;
nodes = (
(622,0,l),
(622,510,l),
(723,510,l),
(723,582,l),
(-30,582,l),
(-30,510,l),
(85,510,l),
(92,488,o),
(98,457,o),
(98,421,cs),
(98,352,o),
(77,287,o),
(41,234,c),
(85,123,o),
(186,76,o),
(299,76,cs),
(339,76,o),
(372,83,o),
(398,92,c),
(398,297,l),
(533,297,l),
(533,0,l)
);
},
{
closed = 1;
nodes = (
(220,150,o),
(166,183,o),
(138,232,c),
(167,280,o),
(187,335,o),
(187,421,cs),
(187,451,o),
(181,482,o),
(173,510,c),
(533,510,l),
(533,371,l),
(310,371,l),
(310,150,l)
);
}
);
vertWidth = 1130;
width = 703;
},
{
layerId = master06;
shapes = (
{
closed = 1;
nodes = (
(598,0,l),
(598,515,l),
(704,515,l),
(704,577,l),
(-30,577,l),
(-30,515,l),
(86,515,l),
(94,493,o),
(101,460,o),
(101,423,cs),
(101,352,o),
(77,285,o),
(43,236,c),
(82,129,o),
(178,80,o),
(289,80,cs),
(325,80,o),
(355,86,o),
(380,95,c),
(380,304,l),
(524,304,l),
(524,0,l)
);
},
{
closed = 1;
nodes = (
(209,143,o),
(153,179,o),
(125,233,c),
(154,281,o),
(175,336,o),
(175,423,cs),
(175,455,o),
(168,487,o),
(158,515,c),
(524,515,l),
(524,368,l),
(306,368,l),
(306,143,l)
);
}
);
width = 684;
},
{
layerId = master07;
shapes = (
{
closed = 1;
nodes = (
(649,0,l),
(649,504,l),
(744,504,l),
(744,588,l),
(-30,588,l),
(-30,504,l),
(84,504,l),
(90,481,o),
(95,452,o),
(95,419,cs),
(95,353,o),
(76,289,o),
(39,232,c),
(88,117,o),
(194,72,o),
(310,72,cs),
(355,72,o),
(391,80,o),
(419,90,c),
(419,289,l),
(544,289,l),
(544,0,l)
);
},
{
closed = 1;
nodes = (
(233,158,o),
(181,188,o),
(154,231,c),
(182,278,o),
(200,334,o),
(200,418,cs),
(200,446,o),
(195,476,o),
(188,504,c),
(544,504,l),
(544,374,l),
(314,374,l),
(314,158,l)
);
}
);
vertWidth = 1130;
width = 724;
}
);
unicode = 2607;
},
{
glyphname = Ra;
layers = (
{
layerId = master01;
shapes = (
{
closed = 1;
nodes = (
(378,499,l),
(378,381,l),
(195,381,ls),
(102,381,o),
(31,329,o),
(31,221,cs),
(31,89,o),
(151,-11,o),
(290,-11,cs),
(415,-11,o),
(498,44,o),
(498,166,cs),
(498,499,l),
(582,499,l),
(582,593,l),
(-20,593,l),
(-20,499,l)
);
},
{
closed = 1;
nodes = (
(224,84,o),
(150,142,o),
(150,218,cs),
(150,257,o),
(171,286,o),
(218,286,cs),
(378,286,l),
(378,170,ls),
(378,108,o),
(349,84,o),
(292,84,cs)
);
}
);
vertWidth = 1130;
width = 562;
},
{
layerId = master02;
shapes = (
{
closed = 1;
nodes = (
(377,494,l),
(377,385,l),
(197,385,ls),
(101,385,o),
(28,332,o),
(28,221,cs),
(28,91,o),
(148,-12,o),
(293,-12,cs),
(422,-12,o),
(510,42,o),
(510,169,cs),
(510,494,l),
(589,494,l),
(589,597,l),
(-20,597,l),
(-20,494,l)
);
},
{
closed = 1;
nodes = (
(229,92,o),
(160,148,o),
(160,218,cs),
(160,254,o),
(179,281,o),
(224,281,cs),
(377,281,l),
(377,175,ls),
(377,115,o),
(352,92,o),
(295,92,cs)
);
}
);
vertWidth = 1130;
width = 569;
},
{
layerId = master03;
shapes = (
{
closed = 1;
nodes = (
(395,539,l),
(395,364,l),
(183,364,ls),
(100,364,o),
(45,318,o),
(45,230,cs),
(45,106,o),
(151,-2,o),
(285,-2,cs),
(378,-2,o),
(442,42,o),
(442,142,cs),
(442,539,l),
(555,539,l),
(555,577,l),
(-20,577,l),
(-20,539,l)
);
},
{
closed = 1;
nodes = (
(187,39,o),
(94,125,o),
(94,230,cs),
(94,290,o),
(126,324,o),
(190,324,cs),
(395,324,l),
(395,142,ls),
(395,72,o),
(352,39,o),
(288,39,cs)
);
}
);
vertWidth = 814;
width = 535;
},
{
layerId = master04;
shapes = (
{
closed = 1;
nodes = (
(388,527,l),
(388,366,l),
(185,366,ls),
(102,366,o),
(43,318,o),
(43,226,cs),
(43,95,o),
(156,-4,o),
(282,-4,cs),
(383,-4,o),
(448,45,o),
(448,148,cs),
(448,527,l),
(555,527,l),
(555,577,l),
(-20,577,l),
(-20,527,l)
);
},
{
closed = 1;
nodes = (
(196,48,o),
(104,123,o),
(104,223,cs),
(104,279,o),
(134,314,o),
(194,314,cs),
(388,314,l),
(388,148,ls),
(388,78,o),
(346,48,o),
(285,48,cs)
);
}
);
vertWidth = 1130;
width = 535;
},
{
layerId = master05;
shapes = (
{
closed = 1;
nodes = (
(380,510,l),
(380,372,l),
(189,372,ls),
(104,372,o),
(38,321,o),
(38,222,cs),
(38,86,o),
(158,-8,o),
(282,-8,cs),
(397,-8,o),
(469,47,o),
(469,158,cs),
(469,510,l),
(563,510,l),
(563,582,l),
(-20,582,l),
(-20,510,l)
);
},
{
closed = 1;
nodes = (
(212,66,o),
(126,127,o),
(126,216,cs),
(126,264,o),
(152,298,o),
(205,298,cs),
(380,298,l),
(380,159,ls),
(380,92,o),
(342,66,o),
(284,66,cs)
);
}
);
vertWidth = 1130;
width = 543;
},
{
layerId = master06;
shapes = (
{
closed = 1;
nodes = (
(381,515,l),
(381,368,l),
(187,368,ls),
(105,368,o),
(41,317,o),
(41,222,cs),
(41,84,o),
(161,-7,o),
(278,-7,cs),
(389,-7,o),
(455,49,o),
(455,154,cs),
(455,515,l),
(555,515,l),
(555,577,l),
(-20,577,l),
(-20,515,l)
);
},
{
closed = 1;
nodes = (
(206,57,o),
(115,120,o),
(115,216,cs),
(115,268,o),
(143,304,o),
(199,304,cs),
(381,304,l),
(381,154,ls),
(381,84,o),
(339,57,o),
(281,57,cs)
);
}
);
width = 535;
},
{
layerId = master07;
shapes = (
{
closed = 1;
nodes = (
(379,504,l),
(379,377,l),
(192,377,ls),
(103,377,o),
(34,325,o),
(34,221,cs),
(34,88,o),
(154,-10,o),
(286,-10,cs),
(406,-10,o),
(484,45,o),
(484,162,cs),
(484,504,l),
(573,504,l),
(573,588,l),
(-20,588,l),
(-20,504,l)
);
},
{
closed = 1;
nodes = (
(218,76,o),
(139,135,o),
(139,217,cs),
(139,261,o),
(162,292,o),
(212,292,cs),
(379,292,l),
(379,165,ls),
(379,100,o),
(346,76,o),
(288,76,cs)
);
}
);
vertWidth = 1130;
width = 553;
}
);
unicode = 2608;
},
